<svg width="18" height="20" viewBox="0 0 18 20" fill="none" xmlns="http://www.w3.org/2000/svg">
<path d="M12.35 0.649902V4.2499M5.15002 0.649902V4.2499" stroke="#3D3D3D" stroke-width="1.3" stroke-linecap="round" stroke-linejoin="round"/>
<path d="M9.65002 2.44995H7.85002C4.45591 2.44995 2.75886 2.44995 1.70444 3.50436C0.650024 4.55879 0.650024 6.25584 0.650024 9.64995V11.45C0.650024 14.844 0.650024 16.5412 1.70444 17.5955C2.75886 18.65 4.45591 18.65 7.85002 18.65H9.65002C13.0441 18.65 14.7412 18.65 15.7956 17.5955C16.85 16.5412 16.85 14.844 16.85 11.45V9.64995C16.85 6.25584 16.85 4.55879 15.7956 3.50436C14.7412 2.44995 13.0441 2.44995 9.65002 2.44995Z" stroke="#3D3D3D" stroke-width="1.3" stroke-linecap="round" stroke-linejoin="round"/>
<path d="M0.650024 7.84985H16.85" stroke="#3D3D3D" stroke-width="1.3" stroke-linecap="round" stroke-linejoin="round"/>
<path d="M8.74597 11.45H8.75407M8.74597 15.05H8.75407M12.3419 11.45H12.35M5.15002 11.45H5.1581M5.15002 15.05H5.1581" stroke="#3D3D3D" stroke-width="1.3" stroke-linecap="round" stroke-linejoin="round"/>
</svg>
