<svg width="35" height="35" viewBox="0 0 35 35" fill="none" xmlns="http://www.w3.org/2000/svg">
<rect x="0.5" y="0.5" width="34" height="34" rx="4.5" fill="#F8FFE6" stroke="#AFE910"/>
<path d="M20.792 10.5877L19.9977 11.3381L15.7529 15.3328L13.6691 17.2953C13.5299 17.4243 13.4319 17.5816 13.3725 17.7467C13.2152 18.1747 13.3132 18.6725 13.6691 19.0077L14.7626 20.0315L16.5446 21.7001L20.1627 25.0861C20.4051 25.3131 20.7894 25.0552 20.6682 24.7431L20.3897 24.0236L20.3923 24.0211L19.6779 22.1823L18.8578 20.0625L18.3317 18.706C18.1976 18.4043 18.1976 18.0613 18.3292 17.7595L18.6051 17.1251L20.9493 11.7353L21.2974 10.9358C21.429 10.6289 21.0396 10.353 20.792 10.5877Z" fill="#606060"/>
<path d="M13.3725 17.7471C13.2152 18.1752 13.3132 18.6729 13.6691 19.0081L14.7626 20.032L16.2016 18.9437L13.3725 17.7471Z" fill="#353535"/>
<path d="M15.7528 15.3328L13.6691 17.2953C13.5298 17.4242 13.4318 17.5815 13.3725 17.7466L16.2015 18.9432L15.7528 15.3328Z" fill="#3B3A3A"/>
<path d="M14.7626 20.0316L16.5446 21.7002L16.2016 18.9434L14.7626 20.0316Z" fill="#565151"/>
<path d="M20.7919 10.5876L19.9976 11.338L15.7528 15.3327L16.2015 18.9432L18.6025 17.1302L20.9467 11.7404L21.2948 10.9409C21.4289 10.6289 21.0395 10.3529 20.7919 10.5876Z" fill="black"/>
<path d="M20.6683 24.7464L18.8554 20.0658L18.3293 18.7093C18.1952 18.4075 18.1952 18.0646 18.3267 17.7628L18.6027 17.1284L16.2017 18.9414L16.5447 21.6982L20.1629 25.0843C20.4053 25.3164 20.7895 25.0559 20.6683 24.7464Z" fill="#686868"/>
<path d="M16.942 22.0583L19.6782 22.1847L20.3926 24.0235L19.8046 24.7404L16.942 22.0583Z" fill="url(#paint0_linear_1_2749)"/>
<defs>
<linearGradient id="paint0_linear_1_2749" x1="19.748" y1="24.1189" x2="17.3689" y2="20.8153" gradientUnits="userSpaceOnUse">
<stop offset="0.3334" stop-color="#3F3E3E"/>
<stop offset="0.8783"/>
</linearGradient>
</defs>
</svg>
