<svg width="85" height="30" viewBox="0 0 85 30" fill="none" xmlns="http://www.w3.org/2000/svg">
<g clip-path="url(#clip0_422_3688)">
<mask id="mask0_422_3688" style="mask-type:luminance" maskUnits="userSpaceOnUse" x="0" y="0" width="85" height="30">
<path d="M85 0H0V30H85V0Z" fill="white"/>
</mask>
<g mask="url(#mask0_422_3688)">
<path d="M36.7332 18.056C35.8947 19.9982 34.4393 21.0809 32.3512 21.3196C32.1139 21.3515 31.8766 21.3515 31.6393 21.3674C31.6077 21.3674 31.576 21.3674 31.5444 21.3674C30.88 21.3674 30.2156 21.2878 29.5828 21.0968C28.776 20.8739 28.0642 20.4917 27.3997 19.9823C27.2257 19.8549 27.0517 19.7275 26.8619 19.6321C26.6721 19.5207 26.5613 19.5684 26.4506 19.7435C26.3715 19.8708 26.2924 19.9982 26.2133 20.1097C26.15 20.1893 26.071 20.3008 25.9918 20.3326C25.8811 20.3804 25.7229 20.3963 25.6438 20.3485C25.5648 20.3008 25.5015 20.1256 25.5015 20.0301C25.6438 18.3425 25.8178 16.6709 25.976 14.9833C26.0077 14.7126 26.0077 14.7126 26.2766 14.7285C26.7353 14.7444 26.7353 14.7444 26.7512 15.1903C26.8145 16.655 27.3364 17.9286 28.3488 18.9794C29.6303 20.3008 31.75 20.6669 33.4111 19.8708C34.5185 19.3455 35.1511 18.4539 35.2777 17.2122C35.4043 16.0182 35.1828 14.8877 34.376 13.9484C33.9173 13.4071 33.3162 13.041 32.6992 12.7225C32.1772 12.4518 31.6235 12.245 31.054 12.022C29.8043 11.5604 28.5862 11.0509 27.5422 10.1912C26.498 9.36331 25.9918 8.26479 25.7862 6.99115C25.6596 6.13145 25.5963 5.27174 25.9127 4.44387C26.6246 2.51748 27.8902 1.212 29.9941 0.861742C31.3704 0.638855 32.6992 0.798059 34.0123 1.24383C34.202 1.30752 34.376 1.38712 34.5501 1.48265C34.7874 1.59408 34.8822 1.57816 35.0721 1.40304C35.2303 1.25976 35.4043 1.10055 35.5942 0.989109C35.7839 0.861746 35.9105 0.925428 35.9422 1.14831C35.9897 1.41897 35.9738 1.70553 36.0054 1.97618C36.1004 2.9951 36.1953 4.01401 36.306 5.03293C36.3377 5.28766 36.3534 5.54239 36.3693 5.79711C36.3851 5.97224 36.3219 6.06777 36.1478 6.0996C35.7524 6.1792 35.7998 6.22697 35.6732 5.81303C35.3094 4.619 34.6925 3.56823 33.775 2.70853C33.063 2.05578 32.2088 1.78514 31.2596 1.76922C30.5953 1.75329 29.9466 1.81697 29.3455 2.13539C28.428 2.613 27.9376 3.42495 27.7793 4.41203C27.6054 5.49463 27.7478 6.51354 28.5071 7.35733C28.9342 7.83495 29.4878 8.13743 30.0416 8.424C30.9275 8.8857 31.9083 9.14044 32.8416 9.47476C33.5059 9.71357 34.1704 9.9683 34.7874 10.3185C36.3693 11.2101 37.1761 12.627 37.3184 14.4261C37.3659 15.6678 37.2235 16.8937 36.7332 18.056Z" fill="black"/>
<path d="M69.6055 9.49068V9.8887C69.6055 10.1753 69.5739 10.2071 69.2891 10.2071C69.1308 10.2071 68.9885 10.2071 68.8303 10.2071C68.3241 10.2071 67.9444 10.4141 67.7388 10.8917C67.3117 11.9265 66.8687 12.9455 66.4575 13.9962C65.5241 16.3047 64.6065 18.6291 63.689 20.9376C63.6258 21.065 63.5308 21.2242 63.4042 21.2878C63.1512 21.4152 62.9297 21.3515 62.7873 21.0968C62.6608 20.842 62.5658 20.5554 62.471 20.2848C61.6483 17.8649 60.8258 15.429 60.0031 12.9932C59.9874 12.9455 59.9241 12.8977 59.8924 12.8499C59.8449 12.8977 59.7975 12.9455 59.7659 12.9932C58.6902 15.5405 57.6145 18.0878 56.5545 20.635C56.5071 20.7465 56.4596 20.8739 56.3963 20.9853C56.2856 21.2083 56.1116 21.3515 55.8585 21.3355C55.6212 21.3196 55.5262 21.1127 55.4631 20.9217C55.2732 20.4282 55.0992 19.9186 54.9093 19.4251C53.8653 16.5753 52.8212 13.7256 51.7772 10.8758C51.6031 10.43 51.2867 10.2071 50.7489 10.1912C50.5274 10.1912 50.2901 10.1912 50.0687 10.1912C49.9105 10.1912 49.8314 10.1275 49.8472 9.95238C49.8629 9.76134 49.8629 9.58621 49.8472 9.39517C49.8314 9.22004 49.9104 9.15636 50.0844 9.17228C50.6539 9.20411 51.2234 9.25188 51.7929 9.23596C52.7579 9.23596 53.7387 9.1882 54.7037 9.17228C55.0043 9.17228 55.0517 9.20411 55.0517 9.49068C55.0517 9.64989 55.0517 9.8091 55.0517 9.96831C55.0517 10.1116 54.9884 10.1593 54.8619 10.1753C54.7828 10.1753 54.7037 10.1753 54.6088 10.1753C54.3241 10.1753 54.1658 10.3504 54.1975 10.637C54.1975 10.7325 54.2291 10.828 54.2608 10.9235C54.9726 13.3434 55.6687 15.7475 56.3805 18.1515C56.3963 18.2152 56.4438 18.263 56.4755 18.3106C56.5071 18.263 56.5704 18.2152 56.5862 18.1515C57.4879 15.9704 58.3737 13.8052 59.2754 11.6241C59.4969 11.0668 59.0698 10.3663 58.4845 10.3504C58.3104 10.3345 58.1364 10.3345 57.9467 10.3504C57.8042 10.3504 57.7252 10.2867 57.7252 10.1275C57.7252 9.96831 57.7252 9.82502 57.7252 9.66581C57.7252 9.36332 57.7885 9.29964 58.1048 9.31556C58.5478 9.33149 58.9907 9.37925 59.4337 9.37925C60.4303 9.36332 61.4269 9.3474 62.4235 9.31556C62.7399 9.31556 62.8032 9.3474 62.8032 9.68174C62.8032 9.82502 62.8032 9.96831 62.8032 10.1275C62.8032 10.2708 62.724 10.3504 62.5817 10.3504C62.4235 10.3504 62.2811 10.3663 62.1229 10.3504C61.759 10.3186 61.5693 10.6688 61.6326 10.9395C61.7275 11.3056 61.8382 11.6718 61.9489 12.038C62.5184 13.9167 63.1038 15.7793 63.6733 17.6579C63.689 17.7216 63.7207 17.8012 63.7523 17.8649C63.7681 17.8649 63.7997 17.8649 63.8156 17.8649C63.8473 17.8171 63.863 17.7534 63.8947 17.7057C64.6065 15.7315 65.3342 13.7415 66.0461 11.7673C66.1569 11.4648 66.2202 11.1305 66.236 10.7962C66.2517 10.3982 66.0144 10.1912 65.619 10.1912C65.0337 10.1912 65.1127 10.2071 65.1127 9.68174C65.1127 9.15636 65.1127 9.15636 65.619 9.1882C66.853 9.28372 68.0868 9.26781 69.3207 9.1882C69.558 9.1882 69.6055 9.23596 69.6055 9.49068Z" fill="black"/>
<path d="M80.1719 19.1392C80.1403 19.1392 80.1086 19.1711 80.077 19.187C80.0296 19.2348 79.982 19.2984 79.9346 19.3462C79.6341 19.6328 79.2543 19.7921 78.8589 19.6806C78.4951 19.5851 78.3685 19.2348 78.3211 18.9005C78.2578 18.4865 78.2103 18.0567 78.2103 17.6269C78.1945 15.5889 78.2103 13.5511 78.1945 11.5133C78.1945 11.1631 78.1628 10.781 78.052 10.4466C77.7673 9.60286 77.0871 9.173 76.2487 9.02972C74.9832 8.80683 73.7651 9.02972 72.6261 9.60286C71.9142 9.95311 71.2656 10.383 70.7594 11.0198C70.3956 11.4974 70.1109 12.0068 70.1266 12.6277C70.1425 13.2806 70.3481 13.4715 70.9967 13.4397C71.0283 13.4397 71.0441 13.4397 71.0758 13.4397C71.7244 13.3919 72.0724 13.0736 72.199 12.4367C72.278 12.0227 72.2306 11.6248 72.1673 11.2268C72.1357 10.9561 72.2147 10.7332 72.4046 10.5581C72.5153 10.4626 72.6419 10.383 72.7685 10.3193C73.3537 10.0645 73.9549 9.92127 74.5877 10.0168C75.4577 10.1442 75.9798 10.5103 76.1064 11.4656C76.2171 12.2298 76.1854 12.9939 76.2012 13.7741C76.2012 13.9174 76.1696 13.997 76.0431 14.0606C75.4103 14.3949 74.7775 14.7612 74.1447 15.0795C73.4487 15.4298 72.7368 15.7482 72.0407 16.1303C71.5662 16.385 71.1549 16.7353 70.8543 17.1969C70.2216 18.1522 70.2057 19.187 70.5695 20.2219C70.7752 20.795 71.2182 21.1612 71.8035 21.2408C72.452 21.3203 73.1165 21.3044 73.7492 21.0657C74.73 20.6994 75.6634 20.2378 76.3752 19.394C76.3911 19.4258 76.4069 19.4258 76.4069 19.4418C76.4227 19.4895 76.4385 19.5532 76.4544 19.601C76.6126 20.1104 76.834 20.588 77.2769 20.9224C78.2736 21.6547 80.0611 21.2727 80.5991 19.6647C80.6781 19.5054 80.3617 19.1234 80.1719 19.1392ZM75.7899 18.9801C75.3628 19.4258 74.8725 19.7284 74.2871 19.8875C73.3537 20.1263 72.5786 19.5691 72.5312 18.6139C72.4837 17.7701 72.7368 17.0377 73.4013 16.4805C73.8916 16.0666 74.4294 15.7163 75.0148 15.4458C75.4103 15.2706 75.7899 15.0477 76.2012 14.8248V15.0318C76.2012 16.0029 76.1854 16.9581 76.2012 17.9293C76.2171 18.3592 76.0746 18.6935 75.7899 18.9801Z" fill="black"/>
<path d="M49.3111 17.6726C49.0896 17.5611 49.0105 17.577 48.8998 17.784C48.0772 19.2169 46.337 19.9492 44.7235 19.5194C43.5054 19.201 42.7461 18.3731 42.224 17.2746C41.702 16.1442 41.6387 14.9343 41.7494 13.7084C41.7653 13.5492 41.8127 13.5014 41.9867 13.5014C43.094 13.5014 44.2014 13.5014 45.3087 13.5014C46.3844 13.5014 47.476 13.5014 48.5517 13.5014C48.6941 13.5014 48.8365 13.4855 48.963 13.4696C49.2636 13.4218 49.3585 13.2944 49.3585 12.992C49.3427 12.4028 49.1687 11.8616 48.9315 11.3362C48.441 10.2377 47.6817 9.40983 46.4794 9.10733C45.2771 8.80485 44.0749 8.88445 42.9517 9.36207C41.5597 9.93521 40.6421 11.0337 40.1042 12.4188C39.4557 14.0905 39.4873 15.794 39.9619 17.4974C40.2782 18.6438 40.8952 19.6626 41.8918 20.3472C43.1732 21.2388 44.6285 21.4617 46.1314 21.1592C47.7766 20.8408 48.8206 19.7263 49.5325 18.2775C49.6907 17.9114 49.6591 17.8637 49.3111 17.6726ZM43.2049 10.3491C43.9167 9.80785 44.7076 9.61679 45.5619 9.95113C46.2105 10.1899 46.5585 10.7312 46.7483 11.3681C46.8275 11.6387 46.8432 11.9253 46.8749 12.2119C46.9065 12.4028 46.8116 12.5302 46.6376 12.578C46.4953 12.6098 46.3529 12.6576 46.2105 12.6576C44.8184 12.6576 43.4263 12.6576 42.0342 12.6576C41.9867 12.6576 41.9551 12.6576 41.876 12.6417C42.1449 11.7501 42.4455 10.9223 43.2049 10.3491Z" fill="black"/>
<path d="M84.1282 10.8266H83.8752C83.8435 10.3171 83.8277 9.82357 83.796 9.31411C83.7803 9.31411 83.7803 9.31411 83.7644 9.31411C83.6063 9.75988 83.448 10.2057 83.2898 10.6514C83.2582 10.7151 83.1949 10.8106 83.1316 10.8266C82.9893 10.8584 83.005 10.731 82.9735 10.6514C82.831 10.2375 82.7046 9.82356 82.5621 9.40963C82.5463 9.37779 82.5305 9.36186 82.5147 9.29818C82.483 9.83949 82.4514 10.333 82.4355 10.8425H82.1982C82.2458 10.2057 82.2774 9.56884 82.3248 8.93201C82.6413 8.86833 82.6413 8.86833 82.7362 9.13898C82.8786 9.55292 83.0209 9.98277 83.1632 10.4126C83.3215 9.98277 83.4638 9.55292 83.6063 9.13898C83.7011 8.86833 83.7011 8.86833 84.0175 8.90018C84.0492 9.55292 84.0966 10.1897 84.1282 10.8266Z" fill="#6D6E71"/>
<path d="M82.0401 9.1223H81.4706V10.8258H81.2175V9.1223H80.6479V8.89941H82.0401C82.0243 8.97902 82.0401 9.0427 82.0401 9.1223Z" fill="#6D6E71"/>
<path d="M70.8708 28.1508C70.8708 28.2782 70.8234 28.326 70.7126 28.3101C70.6651 28.3101 70.6176 28.3101 70.5861 28.3101C70.4436 28.326 70.3962 28.2782 70.3962 28.1349C70.3962 27.7051 70.412 27.2753 70.3962 26.8613C70.3962 26.6543 70.3803 26.4315 70.3488 26.2245C70.3172 26.0016 70.1747 25.8584 69.9533 25.8106C69.716 25.7628 69.4629 25.7947 69.3363 26.0175C69.2415 26.1767 69.1623 26.3837 69.1465 26.5748C69.1149 27.1001 69.1306 27.6096 69.1465 28.1349C69.1465 28.3419 69.0357 28.326 68.9091 28.3101C68.7827 28.3101 68.6561 28.3419 68.672 28.1349C68.6877 27.6573 68.6877 27.1957 68.672 26.718C68.672 26.527 68.6561 26.32 68.5928 26.129C68.4979 25.8425 68.2448 25.731 67.881 25.7788C67.5962 25.8265 67.4064 26.0493 67.4064 26.336C67.4064 26.925 67.3905 27.4981 67.4064 28.0871C67.4064 28.326 67.2798 28.2782 67.1216 28.2941C66.9476 28.3101 66.916 28.2464 66.916 28.0713C66.9318 27.2753 66.916 26.4633 66.916 25.6673C66.916 25.3966 66.916 25.3966 67.1849 25.4125C67.2324 25.4125 67.2639 25.4125 67.3272 25.4285C67.3589 25.5399 67.3747 25.6355 67.4064 25.7788C67.6437 25.4921 67.9284 25.3488 68.2765 25.3648C68.6403 25.3648 68.8934 25.524 69.0516 25.8902C69.1149 25.8106 69.1465 25.7628 69.1939 25.7151C69.5261 25.3011 70.1589 25.2374 70.5386 25.5718C70.7917 25.7947 70.855 26.113 70.8708 26.4315C70.8867 27.0205 70.8708 27.5936 70.8708 28.1508Z" fill="#6D6E71"/>
<path d="M28.6497 25.4453C28.5231 25.8912 28.4123 26.321 28.2859 26.735C28.1593 27.1966 28.0169 27.6742 27.8904 28.136C27.8587 28.2474 27.8271 28.3269 27.6847 28.3269C27.5581 28.311 27.4316 28.3429 27.3842 28.1519C27.1943 27.4992 27.0044 26.8463 26.8147 26.2095C26.7988 26.1777 26.783 26.1458 26.7514 26.0821C26.7197 26.1458 26.704 26.1936 26.6881 26.2254C26.4982 26.8782 26.3085 27.5151 26.1186 28.1678C26.0712 28.3269 25.9762 28.3269 25.8497 28.3429C25.7231 28.3429 25.644 28.311 25.6124 28.1678C25.3751 27.324 25.1219 26.4802 24.8847 25.6205C24.8689 25.5727 24.8689 25.5249 24.853 25.4772C24.8847 25.4772 24.9005 25.4612 24.9163 25.4612C25.3118 25.4294 25.3118 25.4294 25.4067 25.8275C25.5491 26.4165 25.6914 26.9896 25.8339 27.5787C25.8339 27.5787 25.8497 27.5946 25.8654 27.6105C25.8813 27.5787 25.8971 27.5627 25.913 27.5309C26.1028 26.8941 26.2926 26.2573 26.4824 25.6205C26.5299 25.4612 26.6248 25.4612 26.7514 25.4612C26.8937 25.4612 26.957 25.4931 26.9887 25.6364C27.1785 26.2891 27.3683 26.9578 27.5582 27.6105C27.5582 27.6264 27.5739 27.6583 27.6056 27.722C27.6372 27.5946 27.6531 27.5151 27.6847 27.4195C27.8271 26.8463 27.9694 26.2573 28.096 25.6842C28.1276 25.4931 28.2067 25.4453 28.3966 25.4612C28.4756 25.4453 28.5389 25.4453 28.6497 25.4453Z" fill="#6D6E71"/>
<path d="M37.7448 25.4457C37.6341 25.8279 37.5392 26.194 37.4284 26.5443C37.2702 27.0856 37.112 27.6109 36.9697 28.1522C36.938 28.2796 36.8906 28.3433 36.7483 28.3273C36.6217 28.3114 36.511 28.3433 36.4635 28.1681C36.2736 27.5154 36.0838 26.8626 35.8782 26.2099C35.8623 26.1781 35.8465 26.1303 35.8149 26.0666C35.7041 26.4169 35.625 26.7512 35.5143 27.0696C35.4035 27.4358 35.277 27.7861 35.1821 28.1522C35.1346 28.3273 35.0398 28.3114 34.9132 28.3114C34.7866 28.3114 34.7233 28.2955 34.6759 28.1522C34.4386 27.2926 34.1855 26.4488 33.9482 25.589C33.9324 25.5413 33.9324 25.5094 33.9165 25.4298C34.0589 25.4298 34.1855 25.4139 34.312 25.4298C34.3595 25.4298 34.407 25.5253 34.4228 25.5731C34.581 26.2099 34.7392 26.8467 34.8973 27.4835C34.8973 27.4995 34.9132 27.5313 34.9132 27.5472C34.929 27.5472 34.9448 27.5472 34.9606 27.5472C35.0239 27.3244 35.0872 27.1174 35.1505 26.8945C35.2771 26.4647 35.4194 26.0188 35.546 25.589C35.5934 25.4298 35.6567 25.3979 35.8149 25.3979C35.973 25.3979 36.0363 25.4616 36.068 25.6049C36.2578 26.2736 36.4635 26.9423 36.685 27.6109C36.7007 27.5791 36.7324 27.5313 36.7483 27.4994C36.8906 26.8786 37.0488 26.2736 37.1753 25.6527C37.2228 25.4616 37.3019 25.3661 37.4917 25.4139C37.5867 25.4457 37.65 25.4457 37.7448 25.4457Z" fill="#6D6E71"/>
<path d="M53.7544 25.4447C53.6752 25.7312 53.5962 25.986 53.5329 26.2407C53.3589 26.8775 53.169 27.5144 52.995 28.1352C52.9634 28.2626 52.9001 28.3263 52.7577 28.3104C52.6312 28.3104 52.5205 28.3104 52.4729 28.1352C52.299 27.4825 52.0933 26.8457 51.9034 26.2089C51.8877 26.1611 51.8719 26.1293 51.8403 26.0497C51.8086 26.1293 51.7927 26.1611 51.777 26.2089C51.5871 26.8616 51.3972 27.5144 51.2075 28.1671C51.1758 28.2945 51.0967 28.3263 50.986 28.3104C50.891 28.2945 50.7803 28.3582 50.7329 28.1989C50.4798 27.2914 50.2108 26.384 49.9419 25.4447C50.1001 25.4447 50.2425 25.4288 50.3691 25.4447C50.4165 25.4447 50.4481 25.5402 50.464 25.6039C50.638 26.2567 50.7961 26.9253 50.9702 27.594C50.986 27.5621 51.0176 27.5303 51.0335 27.4984C51.2232 26.8616 51.4131 26.2248 51.603 25.588C51.6504 25.4447 51.7295 25.4129 51.856 25.4288C51.9826 25.4288 52.0617 25.4288 52.1092 25.588C52.299 26.2407 52.4888 26.8775 52.6787 27.5144C52.6945 27.5462 52.7103 27.594 52.742 27.6895C52.8052 27.4188 52.8527 27.2118 52.9001 27.0049C53.0109 26.5591 53.1216 26.1134 53.2165 25.6517C53.2482 25.4765 53.3272 25.4129 53.5012 25.4447C53.5804 25.4447 53.6436 25.4447 53.7544 25.4447Z" fill="#6D6E71"/>
<path d="M33.2065 25.4449C33.0958 25.8269 33.0009 26.1932 32.8902 26.5434C32.732 27.0847 32.5737 27.6101 32.4314 28.1514C32.3997 28.2787 32.3523 28.3265 32.21 28.3265C32.0834 28.3106 31.9726 28.3424 31.9252 28.1673C31.7353 27.5146 31.5456 26.8618 31.3557 26.225C31.3399 26.1932 31.324 26.1454 31.2766 26.0817C31.1975 26.3524 31.1342 26.6071 31.071 26.8459C30.9444 27.2916 30.7862 27.7216 30.6755 28.1673C30.628 28.3265 30.5489 28.3424 30.4066 28.3424C30.28 28.3424 30.2009 28.3265 30.1534 28.1832C29.9161 27.3235 29.6631 26.4797 29.4257 25.6201C29.4099 25.5723 29.4099 25.5404 29.394 25.4608C29.5365 25.4608 29.6631 25.4449 29.7738 25.4608C29.8212 25.4608 29.8845 25.5404 29.9004 25.5882C30.0585 26.225 30.2167 26.8618 30.3749 27.5146C30.3749 27.5464 30.3907 27.5623 30.4066 27.6419C30.4382 27.5782 30.454 27.5305 30.4698 27.4986C30.6596 26.8618 30.8495 26.225 31.0393 25.5882C31.071 25.4449 31.1658 25.4608 31.2766 25.4608C31.3873 25.4608 31.4823 25.429 31.5297 25.5882C31.7195 26.2569 31.9252 26.9255 32.1308 27.5942C32.1308 27.6101 32.1467 27.6419 32.1625 27.7056C32.1941 27.6101 32.21 27.5623 32.2258 27.5146C32.384 26.8777 32.5263 26.225 32.6845 25.5882C32.7003 25.5404 32.7795 25.4767 32.8427 25.4608C32.9535 25.429 33.0642 25.4449 33.2065 25.4449Z" fill="#6D6E71"/>
<path d="M79.6373 25.8259C79.321 25.2846 78.5617 25.2209 78.103 25.6507C78.0713 25.6826 78.0238 25.7303 77.9605 25.7781C77.9289 25.6985 77.9131 25.6507 77.8972 25.603C77.8814 25.3802 77.7232 25.4438 77.5967 25.4438C77.4385 25.4438 77.5018 25.5711 77.5018 25.6507C77.5018 26.7971 77.5018 27.9592 77.5018 29.1056C77.5018 29.4558 77.5018 29.4398 77.8498 29.4398C77.9764 29.4398 78.0238 29.408 78.008 29.2806C78.008 29.0737 78.008 28.8667 78.008 28.6438V28.0388C78.0713 28.0866 78.103 28.1025 78.1345 28.1344C78.6725 28.5801 79.4476 28.4369 79.7482 27.8159C80.0487 27.1473 80.0171 26.4627 79.6373 25.8259ZM79.3368 27.5294C79.1787 27.9274 78.7989 28.1025 78.3877 27.9592C78.1345 27.8796 78.008 27.6887 78.008 27.418V26.8767C78.008 26.7015 77.9922 26.5105 78.008 26.3194C78.0238 26.1921 78.0713 26.0488 78.1504 25.9692C78.4826 25.6348 79.0204 25.7144 79.2418 26.1284C79.4792 26.5901 79.5109 27.0517 79.3368 27.5294Z" fill="#6D6E71"/>
<path d="M56.9492 26.2412C56.9334 25.9705 56.8385 25.7477 56.617 25.5884C56.1899 25.27 55.3989 25.3337 55.0193 25.7158C54.8927 25.8432 54.7978 25.9864 54.8294 26.2093C54.9718 26.2093 55.1142 26.2252 55.2407 26.1934C55.2882 26.1775 55.304 26.0501 55.3673 26.0023C55.4465 25.9227 55.5255 25.8432 55.6205 25.8113C56.0001 25.668 56.5063 25.8273 56.4905 26.4322C56.4905 26.5913 56.443 26.671 56.269 26.655C56.0634 26.655 55.8419 26.6232 55.6521 26.671C55.4148 26.7187 55.1617 26.7983 54.956 26.9257C54.6871 27.1009 54.6396 27.4033 54.6871 27.7058C54.7345 28.0243 54.9085 28.2471 55.2249 28.3267C55.6362 28.4382 55.9843 28.3586 56.3006 28.072C56.3481 28.0243 56.4114 27.9765 56.4746 27.9288C56.5696 28.3586 56.6012 28.3745 56.9809 28.3108V27.1805C56.9492 26.862 56.9492 26.5596 56.9492 26.2412ZM55.5888 27.9606C55.4148 27.9447 55.2724 27.8969 55.1933 27.7377C55.1142 27.5785 55.13 27.4033 55.2407 27.2601C55.3673 27.085 55.5413 26.9894 55.7628 26.9894C55.9052 26.9894 56.0475 26.9894 56.2057 26.9894C56.4746 26.9894 56.4746 26.9894 56.4746 27.276C56.5379 27.674 55.9843 28.0084 55.5888 27.9606Z" fill="#6D6E71"/>
<path d="M40.8946 26.9741C41.3849 26.9901 41.8911 26.9741 42.3973 26.9741C42.5239 26.9741 42.5713 26.9423 42.5555 26.8149C42.5398 26.6557 42.5398 26.5124 42.5239 26.3533C42.4606 25.8756 42.2392 25.5254 41.7488 25.4139C41.2583 25.2865 40.7996 25.4458 40.4832 25.8596C40.2301 26.194 40.1826 26.5761 40.1826 26.9901C40.1985 28.2159 41.2426 28.6457 42.1917 28.2159C42.4922 28.0885 42.5081 28.0089 42.2866 27.7383C42.2866 27.7383 42.2707 27.7383 42.255 27.7224C42.1917 27.7543 42.1284 27.802 42.0651 27.8338C41.4008 28.2 40.7521 27.8815 40.6731 27.181C40.6731 27.0219 40.7205 26.9741 40.8946 26.9741ZM40.7363 26.4168C40.8313 26.1144 40.9736 25.8596 41.3058 25.78C41.7171 25.6845 42.1443 26.0985 42.0651 26.5124C42.0493 26.5442 41.986 26.6079 41.9386 26.6079C41.7488 26.6238 41.5748 26.6079 41.3849 26.6079C41.2109 26.6079 41.0527 26.6079 40.8787 26.6079C40.7205 26.6079 40.6888 26.5601 40.7363 26.4168Z" fill="#6D6E71"/>
<path d="M47.4739 26.9732C47.8535 26.9732 48.2333 26.9732 48.6129 26.9732C49.1665 26.9732 49.1824 26.9732 49.1191 26.416C49.0874 26.0179 48.9135 25.6518 48.518 25.4926C48.1067 25.3174 47.6953 25.3334 47.3157 25.604C46.9677 25.8746 46.8095 26.2409 46.762 26.6707C46.6988 27.4508 46.9993 28.3105 47.9642 28.3742C48.3597 28.406 48.7236 28.3264 49.0558 28.024C48.9767 27.9125 48.9292 27.817 48.8659 27.7374C48.7395 27.8011 48.6445 27.8648 48.5496 27.9125C47.901 28.1831 47.4106 27.8966 47.284 27.212C47.2524 27.0369 47.2999 26.9732 47.4739 26.9732ZM48.1857 25.7951C48.4547 25.8746 48.6919 26.2249 48.6445 26.4956C48.6445 26.5275 48.597 26.5912 48.5654 26.5912C48.1541 26.5912 47.7428 26.5912 47.3157 26.5912C47.2999 26.0498 47.7269 25.6677 48.1857 25.7951Z" fill="#6D6E71"/>
<path d="M65.7462 26.3517C65.6038 25.7626 65.1767 25.4123 64.5914 25.3805C63.9903 25.3646 63.5474 25.6671 63.3575 26.2561C63.2468 26.6063 63.2468 26.9885 63.3259 27.3387C63.4524 27.9597 63.927 28.3576 64.544 28.3576C65.1135 28.3736 65.5881 28.0074 65.7462 27.4183C65.7937 27.2432 65.7937 27.0522 65.8254 26.877C65.7937 26.7178 65.7778 26.5268 65.7462 26.3517ZM65.1609 27.6094C65.0502 27.8801 64.8287 28.0073 64.544 27.9915C64.2592 27.9915 64.0377 27.8641 63.9112 27.6094C63.6897 27.1318 63.6897 26.6382 63.9112 26.1606C64.0377 25.9058 64.2433 25.7626 64.5281 25.7626C64.8128 25.7626 65.0344 25.8899 65.1452 26.1606C65.24 26.3835 65.2875 26.6382 65.3508 26.8929C65.2875 27.1318 65.2559 27.3864 65.1609 27.6094Z" fill="#6D6E71"/>
<path d="M76.2652 28.1671C76.2652 28.2786 76.2177 28.3264 76.107 28.3104C76.0595 28.3104 76.012 28.3104 75.9487 28.3104C75.8222 28.3264 75.7748 28.2627 75.7748 28.1353C75.7748 27.5781 75.7748 27.0209 75.7748 26.4795C75.7748 26.0975 75.6482 25.8905 75.395 25.8109C75.0787 25.7153 74.7148 25.8268 74.5251 26.1134C74.4775 26.1771 74.4618 26.2726 74.4618 26.3682C74.4618 26.9572 74.4618 27.5303 74.4618 28.1194C74.4618 28.2786 74.4143 28.3423 74.256 28.3264C74.2245 28.3264 74.177 28.3264 74.1453 28.3264C74.003 28.3423 73.9556 28.2945 73.9556 28.1353C73.9556 27.3074 73.9556 26.4636 73.9556 25.6358C73.9556 25.5084 73.9713 25.4288 74.1296 25.4448C74.2719 25.4607 74.4459 25.397 74.4301 25.6358C74.4301 25.6994 74.4459 25.7472 74.4459 25.8109C74.4618 25.8268 74.4934 25.8427 74.5092 25.8586C74.5251 25.8268 74.5408 25.779 74.5566 25.7472C74.8572 25.4129 75.3002 25.3014 75.7115 25.4607C76.0595 25.604 76.2177 25.8746 76.2334 26.2249C76.281 26.8617 76.2652 27.5144 76.2652 28.1671Z" fill="#6D6E71"/>
<path d="M45.4189 28.1833C44.8968 28.5018 44.09 28.4221 43.7262 27.9922C43.5996 27.8489 43.5048 27.6898 43.5679 27.4509C43.6787 27.4509 43.7895 27.435 43.8844 27.4509C43.9318 27.4509 44.011 27.5146 44.011 27.5624C44.1533 28.0559 44.8968 28.0877 45.1657 27.8331C45.3714 27.642 45.3397 27.3395 45.0867 27.2121C44.8968 27.1167 44.6912 27.0848 44.5013 27.0052C44.3115 26.9415 44.1217 26.8778 43.9477 26.7823C43.5838 26.5753 43.5205 26.0818 43.7895 25.7633C44.185 25.2539 45.15 25.238 45.5612 25.7315C45.5929 25.7792 45.6403 25.827 45.6562 25.8748C45.6878 25.9863 45.7036 26.1136 45.7195 26.2251C45.5929 26.241 45.4663 26.2569 45.324 26.2569C45.2923 26.2569 45.2607 26.1933 45.2449 26.1455C45.0867 25.7952 44.6279 25.6361 44.3273 25.8589C44.2166 25.9385 44.1374 26.0977 44.1217 26.2251C44.1059 26.3684 44.2166 26.4957 44.3589 26.5594C44.5488 26.6231 44.7386 26.6708 44.9127 26.7186C45.0708 26.7664 45.229 26.8301 45.3714 26.8937C45.9251 27.1484 45.8459 27.9126 45.4189 28.1833Z" fill="#6D6E71"/>
<path d="M62.3291 27.4515C62.3291 27.6584 62.2499 27.8494 62.1076 27.9928C61.7279 28.3907 61.2534 28.4703 60.7472 28.2953C60.2567 28.1361 60.0511 27.738 59.9719 27.2604C59.9088 26.8624 59.9403 26.4803 60.0828 26.0983C60.4466 25.1748 61.6804 25.2226 62.0918 25.732C62.2499 25.9231 62.3291 26.1301 62.3291 26.3848C62.2499 26.3848 62.2025 26.3848 62.1551 26.4007C61.9969 26.4166 61.9019 26.3848 61.8545 26.1937C61.7754 25.9072 61.554 25.7798 61.2692 25.7639C61.0002 25.7479 60.7472 25.8435 60.6206 26.0983C60.3675 26.6077 60.3675 27.1489 60.6206 27.6584C60.7313 27.8972 60.9528 27.9928 61.2217 27.9928C61.4907 27.9928 61.6963 27.8813 61.8387 27.6584C61.981 27.4037 61.9969 27.3878 62.3291 27.4515Z" fill="#6D6E71"/>
<path d="M38.9613 28.0711C38.9613 28.31 38.9613 28.3098 38.7082 28.3098C38.4551 28.3098 38.4551 28.31 38.4551 28.0552C38.4551 27.8005 38.4551 27.8005 38.7082 27.8005C38.9613 27.8005 38.9613 27.8004 38.9613 28.0711Z" fill="#6D6E71"/>
<path d="M58.7215 28.0712C58.7215 28.31 58.7215 28.31 58.4685 28.31C58.2153 28.31 58.2153 28.31 58.2153 28.0234C58.2153 27.7847 58.2153 27.7847 58.4843 27.7847C58.7215 27.8006 58.7215 27.8006 58.7215 28.0712Z" fill="#6D6E71"/>
<path d="M72.6291 28.0697C72.6291 28.3245 72.6291 28.3245 72.376 28.3245C72.1387 28.3245 72.1387 28.3245 72.1387 28.0697C72.1387 27.8149 72.1387 27.8149 72.376 27.8149C72.6291 27.799 72.6291 27.799 72.6291 28.0697Z" fill="#6D6E71"/>
<path d="M22.1926 12.7048C20.9271 12.7048 19.6615 12.7048 18.3959 12.7048C18.2536 12.7048 18.2062 12.6729 18.2219 12.5296C18.2378 12.2272 18.2219 11.9247 18.2219 11.6381C18.2378 11.2879 18.1903 10.9217 18.2378 10.5714C18.3011 10.5237 18.3644 10.5555 18.4435 10.5555C19.6931 10.5555 20.9587 10.5555 22.2084 10.5555C22.2876 10.5555 22.3509 10.5555 22.4299 10.5396C22.3824 10.1575 22.335 9.77541 22.2717 9.39331C22.0503 8.27888 21.6706 7.21219 21.1327 6.2092C20.4366 4.93556 19.5508 3.82112 18.4435 2.89773C17.0513 1.75146 15.4853 0.971345 13.7135 0.589252C12.3214 0.286761 10.9135 0.25492 9.52137 0.493728C6.94283 0.955423 4.75977 2.16539 3.05128 4.17137C0.630927 7.02115 -0.207495 10.3326 0.536012 14.0103C1.15296 17.0352 2.79817 19.3914 5.3609 21.0949C6.75299 22.0342 8.30329 22.5914 9.96431 22.8143C10.0118 22.8143 10.075 22.8143 10.1225 22.8303C10.1383 22.8303 10.1383 22.8462 10.1541 22.8462C10.2016 22.8462 10.2491 22.8462 10.3123 22.8462C10.3756 22.8462 10.4547 22.8462 10.518 22.8621C10.5338 22.8621 10.5338 22.8621 10.5496 22.878C10.6604 22.878 10.7711 22.8939 10.8818 22.8939C11.2298 22.8939 11.5936 22.8939 11.9417 22.8939C12.0367 22.8939 12.1474 22.8939 12.2423 22.878C12.2581 22.878 12.2581 22.8621 12.2739 22.8621C12.2739 22.8621 12.2739 22.8621 12.2897 22.8621C12.353 22.8462 12.4163 22.8462 12.4796 22.8462C12.7959 22.7984 13.1281 22.7666 13.4446 22.7029C14.6785 22.4641 15.8333 22.0342 16.9248 21.3974C17.6525 20.9676 18.3328 20.474 18.9497 19.8849C19.6457 19.2322 20.2469 18.4999 20.7689 17.6879C21.3542 16.7645 21.7971 15.7616 22.0977 14.7108C22.2559 14.1217 22.3824 13.5327 22.4457 12.9436C22.4299 12.7048 22.4457 12.7048 22.1926 12.7048ZM16.0389 14.3924C15.77 15.3157 15.3428 16.1436 14.6943 16.86C13.7768 17.879 12.6378 18.3725 11.2931 18.4839C10.3756 18.5636 9.45809 18.4999 8.58803 18.1655C7.5756 17.7834 6.84791 17.0511 6.21514 16.2073C5.56654 15.3316 5.26597 14.3287 5.02869 13.2938C4.74395 12.0202 4.7123 10.7625 5.06033 9.50476C5.45581 8.07191 6.24678 6.87787 7.51232 6.06592C8.30329 5.55646 9.7112 5.19029 10.7553 5.19029C12.3372 5.17436 13.4603 5.93856 14.283 7.24404C14.5836 7.70574 14.8208 8.19928 14.9474 8.75649C15.0424 9.20227 14.9632 9.36147 14.5203 9.47291C13.9666 9.6162 13.7135 9.67988 13.1598 9.75948C11.2457 10.0779 9.03097 10.3804 7.11684 10.6829C7.02193 10.6988 6.95865 10.7306 6.97446 10.8421C7.06938 12.657 7.4965 14.3287 8.88859 15.6183C10.518 17.1466 12.7801 16.8123 14.1405 15.666C14.6785 15.2203 15.0739 14.6789 15.3113 14.0103C15.3745 13.8351 15.4853 13.7873 15.675 13.851C15.7067 13.8669 15.7542 13.8829 15.7858 13.8829C16.1022 14.0103 16.1338 14.0421 16.0389 14.3924Z" fill="#60BB46"/>
<path d="M15.7696 13.8828C15.7379 13.8669 15.7063 13.851 15.6589 13.851C15.469 13.7873 15.3583 13.8351 15.295 14.0101C15.0577 14.6789 14.6622 15.2202 14.1244 15.6659C12.7639 16.8122 10.5176 17.1465 8.87236 15.6181C7.48026 14.3286 7.05314 12.641 6.95823 10.842C6.95823 10.7305 7.00568 10.6987 7.1006 10.6828C9.01474 10.3803 11.2294 10.0778 13.1436 9.75938C13.6972 9.66385 13.9504 9.6161 14.504 9.47281C14.9469 9.36136 15.0261 9.18624 14.9312 8.75639C14.8046 8.21509 14.5673 7.72155 14.2667 7.24393C13.4442 5.93844 12.321 5.17426 10.739 5.19019C9.69496 5.19019 8.30286 5.55636 7.49608 6.06582C6.23054 6.87777 5.43958 8.05588 5.04409 9.50465C4.71189 10.7624 4.7277 12.0201 5.01245 13.2937C5.24974 14.3445 5.55031 15.3475 6.1989 16.2072C6.83167 17.051 7.55935 17.7833 8.57179 18.1655C9.44185 18.4997 10.3594 18.5475 11.2769 18.4838C12.6215 18.3883 13.7605 17.8788 14.678 16.8599C15.3267 16.1435 15.7537 15.3157 16.0226 14.3923C16.1334 14.042 16.1018 14.0101 15.7696 13.8828ZM7.27461 9.60017C7.36953 8.96335 7.48027 8.34245 7.79665 7.76931C8.22376 6.97328 8.85654 6.41607 9.75824 6.24094C10.8656 6.01806 11.7198 6.46382 12.2419 7.56234C12.3843 7.86484 12.495 8.19916 12.5425 8.51758C12.5425 8.70862 12.4475 8.78822 12.321 8.86783C12.1153 8.99519 11.878 9.02704 11.6565 9.05887C10.2486 9.28176 8.85654 9.50465 7.44862 9.74346C7.29043 9.7753 7.2588 9.75938 7.27461 9.60017Z" fill="white"/>
<path d="M12.544 8.53439C12.544 8.72544 12.4492 8.80504 12.3226 8.88464C12.117 9.012 11.8797 9.04385 11.6582 9.07569C10.2503 9.29857 8.8582 9.52146 7.45027 9.76027C7.3079 9.77618 7.26045 9.76027 7.29208 9.60107C7.38699 8.96425 7.49774 8.34334 7.81412 7.7702C8.24125 6.97417 8.87401 6.41696 9.77571 6.24183C10.8831 6.01895 11.7374 6.46472 12.2593 7.56324C12.3859 7.89757 12.4808 8.21598 12.544 8.53439Z" fill="#60BB46"/>
</g>
</g>
<defs>
<clipPath id="clip0_422_3688">
<rect width="85" height="30" fill="white"/>
</clipPath>
</defs>
</svg>
