<svg width="74" height="30" viewBox="0 0 74 30" fill="none" xmlns="http://www.w3.org/2000/svg">
<rect x="0.5" y="0.5" width="73" height="29" rx="4.5" fill="white"/>
<rect x="0.5" y="0.5" width="73" height="29" rx="4.5" stroke="#E5E6E8"/>
<path d="M35.9712 16.1514V20.5815H34.5422V9.65991H38.3295C39.289 9.65991 40.1074 9.97425 40.7772 10.6029C41.4616 11.2316 41.8037 11.9992 41.8037 12.9057C41.8037 13.8341 41.4616 14.6016 40.7772 15.223C40.1143 15.8444 39.2958 16.1514 38.3295 16.1514H35.9712ZM35.9712 11.005V14.8136H38.3587C38.9244 14.8136 39.4007 14.6236 39.7721 14.2507C40.1521 13.8779 40.3456 13.4247 40.3456 12.913C40.3456 12.4086 40.1521 11.9626 39.7721 11.5898C39.4007 11.2024 38.9321 11.0123 38.3587 11.0123H35.9712V11.005ZM45.5385 12.8618C46.5943 12.8618 47.4274 13.1396 48.0378 13.6952C48.6483 14.2507 48.9535 15.011 48.9535 15.976V20.5815H47.5916V19.5434H47.5314C46.9442 20.3987 46.1558 20.8226 45.174 20.8226C44.3331 20.8226 43.6333 20.5815 43.0684 20.0917C42.5027 19.6019 42.2199 18.9951 42.2199 18.2641C42.2199 17.4892 42.5182 16.8751 43.1131 16.4219C43.7081 15.9614 44.5042 15.7347 45.4938 15.7347C46.3415 15.7347 47.0414 15.8882 47.5839 16.1953V15.8736C47.5839 15.3839 47.3913 14.9745 46.9967 14.6309C46.602 14.2873 46.1403 14.1192 45.6125 14.1192C44.8163 14.1192 44.1844 14.4481 43.7227 15.1134L42.4658 14.3385C43.1579 13.3516 44.1844 12.8618 45.5385 12.8618ZM43.6935 18.286C43.6935 18.6515 43.85 18.9586 44.1689 19.1998C44.4819 19.441 44.8542 19.5653 45.278 19.5653C45.8807 19.5653 46.4163 19.346 46.8849 18.9073C47.3535 18.4688 47.5916 17.957 47.5916 17.3649C47.1454 17.0213 46.5281 16.8459 45.7311 16.8459C45.1508 16.8459 44.6684 16.9848 44.2807 17.2552C43.8869 17.5404 43.6935 17.884 43.6935 18.286ZM56.7197 13.103L51.9583 23.8637H50.4856L52.2567 20.0989L49.1168 13.103H50.6713L52.9333 18.4688H52.9634L55.1652 13.103H56.7197Z" fill="#3C4043"/>
<path d="M30.2925 15.2675C30.2925 14.8099 30.2503 14.372 30.1738 13.9509H24.1856V16.3633L27.6341 16.364C27.4948 17.1667 27.0443 17.851 26.3548 18.307V19.8722H28.407C29.6055 18.7823 30.2925 17.1711 30.2925 15.2675Z" fill="#4285F4"/>
<path d="M26.3565 18.307C25.7848 18.6857 25.0488 18.9072 24.1882 18.9072C22.5254 18.9072 21.1146 17.8063 20.6099 16.3223H18.4923V17.9364C19.5412 19.9817 21.6975 21.3853 24.1882 21.3853C25.9094 21.3853 27.3564 20.8291 28.4087 19.8715L26.3565 18.307Z" fill="#34A853"/>
<path d="M20.4104 15.1252C20.4104 14.7086 20.4818 14.3058 20.6099 13.9271V12.313H18.4923C18.059 13.1588 17.8148 14.1135 17.8148 15.1252C17.8148 16.137 18.0599 17.0917 18.4923 17.9375L20.6099 16.3234C20.4783 15.9372 20.4113 15.5326 20.4104 15.1252Z" fill="#FABB05"/>
<path d="M24.1882 11.3417C25.1279 11.3417 25.9696 11.6597 26.6342 12.2811L28.4526 10.4952C27.3478 9.48417 25.9077 8.86353 24.1882 8.86353C21.6983 8.86353 19.5412 10.2671 18.4923 12.3125L20.6099 13.9266C21.1146 12.4426 22.5254 11.3417 24.1882 11.3417Z" fill="#E94235"/>
</svg>
