<svg width="12" height="21" viewBox="0 0 12 21" fill="none" xmlns="http://www.w3.org/2000/svg">
<path d="M10.703 0.125616L9.56827 1.19769L3.50422 6.90438L0.52746 9.70799C0.328518 9.8922 0.188522 10.1169 0.103787 10.3527C-0.120943 10.9643 0.0190528 11.6753 0.52746 12.1542L2.08952 13.6168L4.63524 16.0005L9.80405 20.8377C10.1504 21.1619 10.6993 20.7935 10.5261 20.3477L10.1283 19.3198L10.1319 19.3162L9.11144 16.6894L7.93989 13.661L7.18833 11.7232C6.99676 11.2922 6.99676 10.8022 7.18465 10.3711L7.57885 9.46484L10.9277 1.76505L11.4251 0.622971C11.613 0.184562 11.0567 -0.209638 10.703 0.125616Z" fill="#606060"/>
<path d="M0.103745 10.353C-0.120985 10.9646 0.0190108 11.6756 0.527418 12.1546L2.08948 13.6172L4.14522 12.0625L0.103745 10.353Z" fill="#353535"/>
<path d="M3.50418 6.90454L0.527414 9.70815C0.328471 9.89236 0.188475 10.1171 0.103741 10.3529L4.14521 12.0623L3.50418 6.90454Z" fill="#3B3A3A"/>
<path d="M2.08954 13.617L4.63526 16.0006L4.14527 12.0623L2.08954 13.617Z" fill="#565151"/>
<path d="M10.7029 0.125728L9.56821 1.1978L3.50416 6.90449L4.1452 12.0622L7.5751 9.47232L10.924 1.77253L11.4213 0.630451C11.6129 0.184673 11.0566 -0.209526 10.7029 0.125728Z" fill="black"/>
<path d="M10.5263 20.3516L7.93641 13.665L7.18485 11.7271C6.99327 11.2961 6.99327 10.8061 7.18116 10.375L7.57536 9.46875L4.14545 12.0587L4.63544 15.997L9.80425 20.8342C10.1506 21.1658 10.6995 20.7937 10.5263 20.3516Z" fill="#686868"/>
<path d="M5.20298 16.5125L9.11182 16.693L10.1323 19.3197L9.29234 20.3439L5.20298 16.5125Z" fill="url(#paint0_linear_1_2368)"/>
<defs>
<linearGradient id="paint0_linear_1_2368" x1="9.21159" y1="19.4561" x2="5.81277" y2="14.7367" gradientUnits="userSpaceOnUse">
<stop offset="0.3334" stop-color="#3F3E3E"/>
<stop offset="0.8783"/>
</linearGradient>
</defs>
</svg>
