<svg width="127" height="40" viewBox="0 0 127 40" fill="none" xmlns="http://www.w3.org/2000/svg">
<path d="M20.2065 0.233045L18.0603 2.27624L6.61714 13.171L0.995059 18.5232C0.680766 18.8238 0.430423 19.186 0.259332 19.5876C0.0882422 19.9893 0 20.422 0 20.8593C0 21.2966 0.0882422 21.7293 0.259332 22.1309C0.430423 22.5326 0.680766 22.8948 0.995059 23.1953L3.94286 25.9844L8.75114 30.5347L18.5099 39.768C18.6495 39.9008 18.8297 39.9816 19.0208 39.9972C19.2119 40.0128 19.4026 39.9623 19.5615 39.8539C19.7204 39.7455 19.8382 39.5857 19.8953 39.4007C19.9525 39.2157 19.9457 39.0166 19.8761 38.8361L19.126 36.8764L17.1964 31.8567L14.9812 26.0774L13.5635 22.3824C13.3857 21.9764 13.2932 21.5375 13.2918 21.0935C13.2904 20.6495 13.3801 20.21 13.5554 19.8028L14.2974 18.0757L20.6249 3.37242L21.5606 1.19648C21.6388 1.01608 21.6528 0.813931 21.6004 0.624258C21.548 0.434584 21.4323 0.269048 21.273 0.155683C21.1137 0.0423184 20.9205 -0.0119063 20.7261 0.00219209C20.5318 0.0162905 20.3482 0.0978455 20.2065 0.233045Z" fill="#0279FE"/>
<path d="M0.195066 19.7544C-0.0195899 20.3442 -0.0580497 20.9847 0.0844655 21.5963C0.226981 22.208 0.544188 22.7639 0.996672 23.1948L3.94447 25.9839L7.82928 23.0169L0.195066 19.7544Z" fill="#29A9FE"/>
<path d="M6.62119 13.1704L0.999116 18.5227C0.640388 18.8643 0.365849 19.2861 0.19751 19.7543L7.83173 23.0169L6.62119 13.1704Z" fill="#0E91FE"/>
<path d="M3.94141 25.9845L8.74969 30.5348L7.82622 23.0176L3.94141 25.9845Z" fill="#0279FE"/>
<path d="M20.2123 0.233045L18.0661 2.27624L6.62292 13.171L7.83346 23.0174L14.3086 18.0716L20.6307 3.37242L21.5664 1.19648C21.6445 1.01608 21.6586 0.813931 21.6062 0.624258C21.5538 0.434584 21.4381 0.269048 21.2788 0.155683C21.1195 0.0423184 20.9263 -0.0119063 20.7319 0.00219209C20.5376 0.0162905 20.354 0.0978455 20.2123 0.233045Z" fill="#027DFE"/>
<path d="M19.8774 38.8355L14.9879 26.0769L13.5702 22.3819C13.3924 21.9759 13.2999 21.537 13.2985 21.0929C13.2971 20.6489 13.3869 20.2094 13.5621 19.8023L14.3041 18.0752L7.82898 23.0169L8.75245 30.5341L18.5112 39.7675C18.6508 39.9003 18.831 39.9811 19.0221 39.9967C19.2132 40.0123 19.4039 39.9617 19.5628 39.8533C19.7217 39.7449 19.8395 39.5851 19.8966 39.4002C19.9538 39.2152 19.947 39.0161 19.8774 38.8355Z" fill="#005EFE"/>
<path d="M9.8252 31.5112L17.2048 31.8561L19.133 36.8717L17.5461 38.8205L9.8252 31.5112Z" fill="url(#paint0_linear_116_837)"/>
<path d="M63.9611 36.3028H65.4505V36.8872H63.3612V33.1689H63.9611V36.3028Z" fill="#1B3775"/>
<path d="M68.1034 35.8051C68.135 35.9919 68.2375 36.1588 68.3891 36.2703C68.5503 36.3817 68.7424 36.4383 68.9375 36.4318C69.0688 36.4407 69.2001 36.4151 69.3188 36.3575C69.4374 36.3 69.5393 36.2124 69.6146 36.1034L70.079 36.3771C69.9546 36.5654 69.7838 36.7177 69.5834 36.819C69.383 36.9203 69.1599 36.967 68.9362 36.9546C68.7473 36.9628 68.5587 36.932 68.3819 36.864C68.2052 36.796 68.0441 36.6922 67.9084 36.5591C67.7792 36.4281 67.6779 36.2718 67.6106 36.0998C67.5433 35.9277 67.5115 35.7436 67.5171 35.5587C67.5119 35.375 67.5435 35.1921 67.6098 35.0209C67.6761 34.8497 67.7758 34.6938 67.903 34.5624C68.0316 34.4296 68.1861 34.3253 68.3568 34.2563C68.5274 34.1872 68.7105 34.155 68.8942 34.1615C69.0723 34.1557 69.2495 34.1895 69.4132 34.2604C69.577 34.3314 69.7234 34.4377 69.8421 34.572C70.0862 34.8426 70.2177 35.198 70.209 35.5642C70.2075 35.6444 70.2007 35.7244 70.1887 35.8037L68.1034 35.8051ZM68.1034 35.3384H69.6362C69.6162 35.1547 69.5285 34.9853 69.3904 34.8641C69.2524 34.7429 69.0743 34.6787 68.8915 34.6842C68.7022 34.6776 68.5167 34.7397 68.3688 34.8594C68.2246 34.981 68.1285 35.1511 68.098 35.3384H68.1034Z" fill="#1B3775"/>
<path d="M73.9501 34.7844H73.3029V36.0598C73.2988 36.102 73.3031 36.1446 73.3157 36.185C73.3283 36.2255 73.3488 36.263 73.376 36.2952C73.4361 36.3479 73.5131 36.3766 73.5927 36.3759C73.6875 36.3759 73.8066 36.3759 73.9501 36.3759V36.8919C73.5182 36.9452 73.2095 36.9069 73.0213 36.7783C72.833 36.6496 72.7396 36.4102 72.7396 36.0639V34.7885H72.2589V34.2411H72.7396V33.6594L73.3029 33.4897V34.2329H73.9501V34.7844Z" fill="#1B3775"/>
<path d="M76.527 33.1689L76.1614 34.5498H75.6915L75.9001 33.1689H76.527Z" fill="#1B3775"/>
<path d="M78.4242 34.9622C78.4257 35.0073 78.4402 35.051 78.466 35.088C78.4917 35.1249 78.5275 35.1535 78.569 35.1702C78.6803 35.2261 78.7963 35.2719 78.9157 35.307L79.33 35.437C79.4707 35.48 79.5947 35.5661 79.6848 35.6834C79.7986 35.8448 79.8469 36.0441 79.8197 36.2404C79.7925 36.4367 79.6919 36.6149 79.5385 36.7385C79.3256 36.8891 79.0697 36.9651 78.8101 36.9547C78.5787 36.9613 78.3499 36.9046 78.1479 36.7905C77.9665 36.6873 77.8238 36.5267 77.7417 36.3334L78.2265 36.0474C78.2658 36.1681 78.3447 36.2716 78.45 36.341C78.5553 36.4104 78.6809 36.4415 78.806 36.4292C79.1012 36.4292 79.2501 36.3307 79.2501 36.1322C79.248 36.0874 79.2334 36.0441 79.208 36.0073C79.1827 35.9705 79.1475 35.9417 79.1066 35.9242C78.9956 35.8677 78.8795 35.8219 78.76 35.7874L78.3456 35.6574C78.2064 35.6142 78.0827 35.5309 77.9895 35.4179C77.8913 35.294 77.8403 35.1386 77.846 34.98C77.8417 34.867 77.864 34.7546 77.9111 34.6521C77.9582 34.5496 78.0287 34.4598 78.1168 34.3901C78.3097 34.238 78.5493 34.159 78.7938 34.1671C78.9956 34.1631 79.1947 34.2137 79.3706 34.3135C79.5369 34.4093 79.672 34.5519 79.7593 34.724L79.284 34.9977C79.251 34.9324 79.2056 34.8743 79.1504 34.8267C79.0951 34.7791 79.0311 34.7431 78.9621 34.7206C78.893 34.698 78.8202 34.6896 78.7479 34.6956C78.6756 34.7016 78.6051 34.7219 78.5406 34.7555C78.5044 34.776 78.4744 34.806 78.4539 34.8424C78.4334 34.8789 78.4231 34.9203 78.4242 34.9622Z" fill="#1B3775"/>
<path d="M86.4426 33.1689V33.7533H85.4149V36.8872H84.8164V33.7533H83.7832V33.1689H86.4426Z" fill="#1B3775"/>
<path d="M90.331 34.2306H90.8942V36.8869H90.331V36.5051C90.229 36.652 90.0917 36.7704 89.9321 36.8492C89.7725 36.9279 89.5957 36.9644 89.4183 36.9553C89.2452 36.9567 89.0738 36.9208 88.9155 36.85C88.7572 36.7792 88.6157 36.6751 88.5003 36.5447C88.2555 36.2735 88.1199 35.9196 88.1199 35.5526C88.1199 35.1855 88.2555 34.8316 88.5003 34.5604C88.6163 34.4312 88.7581 34.3285 88.9164 34.2589C89.0746 34.1893 89.2457 34.1544 89.4183 34.1567C89.5953 34.1475 89.7717 34.1835 89.9312 34.2615C90.0907 34.3395 90.2282 34.4569 90.331 34.6028V34.2306ZM88.9173 36.167C89.0751 36.3224 89.2867 36.4094 89.507 36.4094C89.7273 36.4094 89.9389 36.3224 90.0967 36.167C90.2472 36.001 90.3307 35.7839 90.3307 35.5587C90.3307 35.3335 90.2472 35.1165 90.0967 34.9504C89.9384 34.796 89.727 34.7097 89.507 34.7097C89.287 34.7097 89.0756 34.796 88.9173 34.9504C88.7668 35.1165 88.6833 35.3335 88.6833 35.5587C88.6833 35.7839 88.7668 36.001 88.9173 36.167Z" fill="#1B3775"/>
<path d="M94.0011 34.6767C94.1365 34.3482 94.4073 34.1826 94.804 34.1826V34.8039C94.6036 34.7858 94.4035 34.8417 94.2407 34.9613C94.1568 35.0323 94.0912 35.1228 94.0494 35.225C94.0077 35.3273 93.9911 35.4382 94.0011 35.5484V36.8868H93.4324V34.2305H93.9957L94.0011 34.6767Z" fill="#1B3775"/>
<path d="M99.0632 34.2317H99.6156V36.7662C99.626 36.9411 99.5961 37.1161 99.5282 37.2773C99.4603 37.4386 99.3563 37.5817 99.2243 37.6954C98.9566 37.9141 98.6205 38.0291 98.2765 38.0197C97.6752 38.0197 97.2632 37.8053 97.0402 37.3765L97.5263 37.0905C97.6617 37.3642 97.9154 37.5011 98.2873 37.5011C98.4954 37.5127 98.6999 37.4432 98.8587 37.3067C98.9288 37.2367 98.9834 37.1524 99.0189 37.0595C99.0544 36.9665 99.0699 36.867 99.0645 36.7675V36.4432C98.965 36.5922 98.8293 36.7129 98.6705 36.7939C98.5117 36.8749 98.335 36.9134 98.1573 36.9058C97.9824 36.9089 97.8089 36.8749 97.6479 36.8058C97.4869 36.7367 97.3421 36.6342 97.223 36.5048C96.9787 36.2423 96.8427 35.8955 96.8427 35.5352C96.8427 35.1748 96.9787 34.8281 97.223 34.5656C97.342 34.436 97.4867 34.3333 97.6477 34.2642C97.8088 34.1951 97.9824 34.1612 98.1573 34.1646C98.3351 34.1566 98.5119 34.1949 98.6708 34.2759C98.8297 34.3569 98.9653 34.4779 99.0645 34.6272L99.0632 34.2317ZM97.6414 36.123C97.8011 36.2768 98.0132 36.3626 98.2338 36.3626C98.4544 36.3626 98.6665 36.2768 98.8262 36.123C98.9782 35.9631 99.0631 35.75 99.0631 35.5283C99.0631 35.3066 98.9782 35.0936 98.8262 34.9337C98.6665 34.7799 98.4544 34.694 98.2338 34.694C98.0132 34.694 97.8011 34.7799 97.6414 34.9337C97.4894 35.0936 97.4045 35.3066 97.4045 35.5283C97.4045 35.75 97.4894 35.9631 97.6414 36.123Z" fill="#1B3775"/>
<path d="M102.606 35.8051C102.638 35.9919 102.741 36.1586 102.893 36.2704C103.052 36.3806 103.241 36.4372 103.434 36.4319C103.566 36.4404 103.697 36.4147 103.815 36.3572C103.934 36.2997 104.036 36.2123 104.111 36.1034L104.574 36.3771C104.45 36.5655 104.28 36.7178 104.08 36.8191C103.879 36.9204 103.656 36.9671 103.433 36.9546C103.244 36.963 103.055 36.9322 102.878 36.8642C102.701 36.7962 102.54 36.6924 102.404 36.5591C102.275 36.4281 102.174 36.2717 102.107 36.0997C102.04 35.9276 102.008 35.7436 102.014 35.5588C102.009 35.375 102.04 35.1921 102.107 35.0209C102.173 34.8498 102.273 34.6938 102.4 34.5625C102.528 34.4295 102.683 34.3252 102.853 34.2561C103.024 34.187 103.207 34.1548 103.391 34.1615C103.569 34.1558 103.746 34.1895 103.91 34.2605C104.074 34.3314 104.22 34.4378 104.339 34.5721C104.583 34.8425 104.715 35.1979 104.707 35.5642C104.706 35.6445 104.698 35.7245 104.685 35.8037L102.606 35.8051ZM102.606 35.3384H104.132C104.107 35.1482 104.014 34.9741 103.869 34.8499C103.732 34.7396 103.561 34.681 103.386 34.6843C103.197 34.6748 103.012 34.7365 102.866 34.8575C102.721 34.9784 102.625 35.1499 102.597 35.3384H102.606Z" fill="#1B3775"/>
<path d="M108.455 34.7868H107.808V36.0623C107.804 36.1044 107.808 36.147 107.821 36.1875C107.833 36.2279 107.854 36.2654 107.881 36.2976C107.941 36.3503 108.018 36.3791 108.098 36.3784C108.192 36.3784 108.311 36.3784 108.455 36.3784V36.8943C108.023 36.9477 107.714 36.9094 107.526 36.7807C107.338 36.6521 107.244 36.4126 107.244 36.0664V34.7909H106.765V34.2435H107.244V33.6619L107.808 33.4922V34.2353H108.455V34.7868Z" fill="#1B3775"/>
<path d="M47.415 18.9953V20.669C47.415 23.7782 46.4319 26.2977 44.4658 28.2273C42.5011 30.1432 39.9582 31.1203 36.8384 31.1203C33.5164 31.1203 30.7632 30.0255 28.5786 27.8359C26.4053 25.6572 25.3018 22.979 25.3018 19.8397C25.3018 16.6647 26.385 13.9879 28.5515 11.7846C30.718 9.58128 33.4018 8.49195 36.6068 8.49195C38.5286 8.46984 40.4239 8.9452 42.1125 9.87278C43.7046 10.7316 45.0428 12.0019 45.9905 13.5541L42.3576 15.6698C41.8005 14.7369 40.9948 13.9813 40.0326 13.4898C38.9671 12.9201 37.777 12.6303 36.5716 12.6468C34.5207 12.6468 32.8331 13.3269 31.5088 14.6872C30.1832 16.0475 29.5197 17.765 29.5197 19.8273C29.5197 21.8897 30.1967 23.573 31.5386 24.9127C32.8805 26.2525 34.6529 26.9204 36.8804 26.9204C38.5251 26.9204 39.8819 26.5531 40.9507 25.8187C42.0139 25.0999 42.7929 24.0258 43.151 22.7847H36.6353V18.9953H47.415Z" fill="#1B3775"/>
<path d="M60.5548 15.1406H64.5182V30.6883H60.5548V28.9489C59.5934 30.3954 58.0661 31.1303 55.9713 31.1303C54.295 31.1303 52.9062 30.5615 51.8049 29.4238C50.7054 28.2797 50.1597 26.7141 50.1597 24.6956V15.1406H54.123V24.1879C54.123 25.2238 54.402 26.0121 54.9571 26.5636C55.5123 27.1151 56.2489 27.3847 57.1683 27.3847C58.1933 27.3847 59.0166 27.0617 59.6246 26.4268C60.2326 25.7918 60.544 24.8188 60.544 23.5337L60.5548 15.1447V15.1406Z" fill="#1B3775"/>
<path d="M72.116 17.8161C72.4455 16.877 73.0924 16.0856 73.9427 15.5814C74.8077 15.081 75.7896 14.8239 76.7862 14.8369V19.3174C75.6495 19.1598 74.4948 19.4243 73.5364 20.0619C72.5886 20.7106 72.1038 21.7684 72.1038 23.2683V30.687H68.1418V15.1393H72.1052L72.116 17.8161Z" fill="#1B3775"/>
<path d="M89.2611 15.1406H93.2245V30.6883H89.2611V28.9489C88.2997 30.3954 86.7724 31.1303 84.6776 31.1303C83.0013 31.1303 81.6125 30.5615 80.5112 29.4238C79.4117 28.2797 78.866 26.7141 78.866 24.6956V15.1406H82.8293V24.1879C82.8293 25.2238 83.1001 26.0121 83.6634 26.5636C84.2267 27.1151 84.9552 27.3847 85.8746 27.3847C86.8996 27.3847 87.7229 27.0617 88.3309 26.4268C88.9389 25.7918 89.2503 24.8188 89.2503 23.5337L89.2611 15.1447V15.1406Z" fill="#1B3775"/>
<path d="M96.8427 30.6876V7.99219H100.806V30.6876H96.8427Z" fill="#1B3775"/>
<path d="M104.452 30.6876V7.99219H108.415V30.6876H104.452Z" fill="#1B3775"/>
<path d="M122.075 15.1406H126.316L120.707 30.7088C119.907 32.934 118.848 34.5407 117.524 35.5465C116.199 36.5524 114.565 37.004 112.599 36.8959V33.1708C113.667 33.1927 114.511 32.9655 115.142 32.4865C115.773 32.0076 116.263 31.2453 116.631 30.1874L110.33 15.1475H114.663L118.668 25.5988L122.075 15.1406Z" fill="#1B3775"/>
<defs>
<linearGradient id="paint0_linear_116_837" x1="17.3958" y1="37.129" x2="10.8861" y2="28.187" gradientUnits="userSpaceOnUse">
<stop offset="0.33" stop-color="#005EFF"/>
<stop offset="0.88"/>
</linearGradient>
</defs>
</svg>
