<svg width="18" height="14" viewBox="0 0 18 14" fill="none" xmlns="http://www.w3.org/2000/svg">
<path fill-rule="evenodd" clip-rule="evenodd" d="M9 7.30299C6.511 7.30299 4.5 5.06089 4.5 2.30469C4.5 5.06089 2.481 7.30299 0 7.30299C2.481 7.30299 4.5 9.53629 4.5 12.2925C4.5 9.53629 6.511 7.30299 9 7.30299Z" fill="black"/>
<path fill-rule="evenodd" clip-rule="evenodd" d="M18 10.5774C16.345 10.5774 15.01 9.4602 15.01 8.0938C15.01 9.4602 13.665 10.5774 12.019 10.5774C13.665 10.5774 15.01 11.6866 15.01 13.061C15.01 11.6866 16.345 10.5774 18 10.5774ZM16.277 3.0221C14.265 3.0221 12.639 1.6718 12.639 0C12.639 1.6718 11.013 3.0221 9 3.0221C11.013 3.0221 12.639 4.3724 12.639 6.0442C12.639 4.3724 14.265 3.0221 16.277 3.0221Z" fill="black"/>
</svg>
