<svg width="199" height="200" viewBox="0 0 199 200" fill="none" xmlns="http://www.w3.org/2000/svg">
<circle cx="99.0493" cy="99.0493" r="99.0493" fill="url(#paint0_linear_2_1338)"/>
<circle cx="185.603" cy="46.2437" r="4.92828" stroke="#AFE910" stroke-width="2"/>
<circle cx="121.395" cy="194.072" r="4.92828" stroke="#AFE910" stroke-width="2"/>
<g filter="url(#filter0_f_2_1338)">
<path d="M27.3672 106.017L29.0476 110.558L33.5889 112.238L29.0476 113.919L27.3672 118.46L25.6868 113.919L21.1455 112.238L25.6868 110.558L27.3672 106.017Z" fill="#AFE910"/>
</g>
<path d="M185.438 133.891L187.936 140.641L194.686 143.139L187.936 145.637L185.438 152.387L182.94 145.637L176.19 143.139L182.94 140.641L185.438 133.891Z" fill="#AFE910"/>
<path d="M121.261 116.336L83.8885 66.8362L48.091 91.8376C44.7141 94.1917 43.9998 98.8835 46.5 102.147L69.5857 132.262L121.261 116.336Z" fill="#3D3D3D"/>
<path d="M121.261 116.336L83.8887 66.8362L113.014 47.4845C116.472 45.1954 121.115 46.1207 123.436 49.5463L146.409 83.5905L121.261 116.336Z" fill="#3D3D3D"/>
<path d="M146.408 83.5902L146.392 83.5578V83.5902H146.408ZM107.689 74.791C108.955 72.372 111.244 70.6349 113.923 70.0667L134.362 65.732L122.251 47.7765C120.433 45.0977 117.186 43.7665 114.02 44.3996L67.5239 53.8158L96.3405 96.4968L107.689 74.791Z" fill="url(#paint1_linear_2_1338)"/>
<path d="M77.7031 85.8957L96.2918 96.5782L96.3405 96.497L67.5239 53.8159L44.7466 91.4805C43.042 94.3053 43.2368 97.8769 45.2499 100.507L53.0101 110.637L70.0403 87.5192C71.8099 85.1002 75.1055 84.4021 77.7031 85.8957ZM96.3567 96.6269L96.3892 96.5944L96.3405 96.6106L96.3567 96.6269ZM69.5857 132.262L70.852 130.557L69.5857 132.246V132.262ZM149.022 62.6151L134.362 65.7322L146.392 83.5579L151.912 65.7809C152.48 63.9626 150.873 62.2255 149.022 62.6151Z" fill="url(#paint2_linear_2_1338)"/>
<path d="M96.3892 96.5943L146.392 83.5903L96.3892 96.5781V96.5943Z" fill="#FE506B"/>
<path d="M113.923 70.0667C111.244 70.6349 108.971 72.3721 107.689 74.791L96.3242 96.4968L96.3729 96.578L146.376 83.5902V83.5578L134.346 65.7158L113.923 70.0667Z" fill="#CAC134"/>
<path d="M113.923 70.0667C111.244 70.6349 108.971 72.3721 107.689 74.791L96.3242 96.4968L96.3729 96.578L146.376 83.5902V83.5578L134.346 65.7158L113.923 70.0667Z" fill="url(#paint3_linear_2_1338)"/>
<path d="M96.3407 96.4968L96.292 96.578L96.3407 96.6105L96.3894 96.5942V96.578L96.3407 96.4968Z" fill="#FFBA3B"/>
<path d="M96.3407 96.4968L96.292 96.578L96.3407 96.6105L96.3894 96.5942V96.578L96.3407 96.4968Z" fill="#FE506B"/>
<path d="M49.1626 115.816C47.6041 117.927 48.286 120.93 50.6075 122.148L69.5697 132.262V132.246L52.994 110.621L49.1626 115.816Z" fill="url(#paint4_linear_2_1338)"/>
<path d="M96.4217 96.6592L96.3568 96.6267L70.8521 130.557L96.4217 96.6592Z" fill="#FE506B"/>
<path d="M96.2754 96.6269L96.2916 96.5945L77.7029 85.912C75.1053 84.4184 71.8097 85.1165 70.0401 87.5193L52.9937 110.621L69.5693 132.246L70.8518 130.557L96.3566 96.6107L96.3241 96.5945L96.2754 96.6269Z" fill="#FFBA3B"/>
<path d="M96.2754 96.6269L96.2916 96.5945L77.7029 85.912C75.1053 84.4184 71.8097 85.1165 70.0401 87.5193L52.9937 110.621L69.5693 132.246L70.8518 130.557L96.3566 96.6107L96.3241 96.5945L96.2754 96.6269Z" fill="url(#paint5_linear_2_1338)"/>
<path d="M96.3403 96.6106L96.2916 96.5781L96.2754 96.6268L96.3403 96.6106Z" fill="#FFBA3B"/>
<path d="M96.3403 96.6106L96.2916 96.5781L96.2754 96.6268L96.3403 96.6106Z" fill="#FE506B"/>
<path d="M96.3403 96.6106L96.2916 96.5781L96.2754 96.6268L96.3403 96.6106Z" fill="#FE506B"/>
<path d="M113.013 138.35L72.3778 151.955C70.04 152.75 67.6698 150.867 67.9133 148.415L69.5855 132.262L121.261 116.336L118.988 131.71C118.29 134.795 116.033 137.311 113.013 138.35Z" fill="url(#paint6_linear_2_1338)"/>
<path d="M154.656 82.1942L137.496 101.903C136.327 103.364 134.979 104.663 133.486 105.783L121.229 116.368L146.376 83.6067L153.227 80.4084C154.364 79.8727 155.435 81.2202 154.656 82.1942Z" fill="url(#paint7_linear_2_1338)"/>
<path d="M99.4412 136.629L101.828 135.72C102.688 135.379 103.679 135.558 104.393 136.158L108.062 139.275C109.458 140.461 109.198 142.685 107.559 143.496L105.351 144.6C104.442 145.055 103.338 144.925 102.558 144.259L98.7107 140.964C97.2333 139.681 97.6554 137.327 99.4412 136.629ZM117.738 164.017L119.524 163.011C120.173 162.637 120.985 162.54 121.65 162.718L125.06 163.709C126.358 164.082 126.472 165.397 125.271 166.209L123.647 167.297C122.982 167.751 122.072 167.897 121.342 167.686L117.754 166.615C116.407 166.209 116.39 164.78 117.738 164.017Z" fill="#AFE910"/>
<path d="M29.647 162.261L32.1449 169.012L38.8952 171.509L32.1449 174.007L29.647 180.757L27.1492 174.007L20.3989 171.509L27.1492 169.012L29.647 162.261Z" fill="#AFE910"/>
<path d="M165.239 109.506C166.886 109.506 168.221 110.841 168.222 112.487C168.222 114.134 166.886 115.47 165.239 115.47C163.593 115.469 162.258 114.134 162.258 112.487C162.258 110.841 163.593 109.506 165.239 109.506Z" stroke="#AFE910" stroke-width="2"/>
<g filter="url(#filter1_d_2_1338)">
<path d="M151.176 104.698C150.102 102.4 148.565 100.337 146.61 98.5676C144.662 96.8046 142.394 95.421 139.87 94.4552C137.263 93.4576 134.495 92.9517 131.643 92.9517C128.791 92.9517 126.022 93.4576 123.416 94.4552C120.892 95.421 118.624 96.8058 116.676 98.5676C114.72 100.337 113.184 102.4 112.109 104.698C110.999 107.057 110.425 109.632 110.427 112.239C110.427 117.649 112.904 122.767 117.257 126.417C115.871 128.233 113.87 129.879 110.895 131.664C110.714 131.772 110.574 131.937 110.496 132.133C110.417 132.329 110.406 132.545 110.462 132.748C110.518 132.951 110.639 133.13 110.807 133.258C110.975 133.386 111.18 133.455 111.391 133.455C114.327 133.455 117.027 133.163 119.414 132.587C121.45 132.096 123.267 131.397 124.824 130.507C127.033 131.186 129.332 131.529 131.643 131.526C134.495 131.526 137.263 131.02 139.87 130.023C142.393 129.058 144.662 127.672 146.609 125.91C148.565 124.141 150.101 122.078 151.176 119.779C152.284 117.42 152.858 114.845 152.858 112.239C152.858 109.632 152.284 107.058 151.176 104.698H151.176Z" fill="url(#paint8_linear_2_1338)"/>
</g>
<path d="M129.418 115.367C129.331 114.673 129.383 114.067 129.574 113.547C129.782 113.027 130.068 112.559 130.432 112.143C130.813 111.727 131.229 111.345 131.68 110.999C132.148 110.652 132.581 110.314 132.98 109.985C133.396 109.655 133.734 109.317 133.994 108.971C134.254 108.624 134.384 108.243 134.384 107.827C134.384 107.307 134.254 106.865 133.994 106.501C133.734 106.137 133.352 105.859 132.85 105.669C132.364 105.478 131.775 105.383 131.082 105.383C130.284 105.383 129.556 105.556 128.898 105.903C128.239 106.249 127.589 106.761 126.948 107.437L124.816 105.461C125.648 104.507 126.627 103.745 127.754 103.173C128.898 102.583 130.154 102.289 131.524 102.289C132.789 102.289 133.907 102.479 134.878 102.861C135.866 103.242 136.637 103.823 137.192 104.603C137.764 105.365 138.05 106.327 138.05 107.489C138.05 108.13 137.911 108.693 137.634 109.179C137.374 109.647 137.027 110.071 136.594 110.453C136.178 110.817 135.736 111.172 135.268 111.519C134.8 111.848 134.366 112.195 133.968 112.559C133.569 112.923 133.257 113.33 133.032 113.781C132.806 114.231 132.72 114.76 132.772 115.367H129.418ZM131.108 122.283C130.449 122.283 129.903 122.066 129.47 121.633C129.036 121.199 128.82 120.653 128.82 119.995C128.82 119.319 129.036 118.764 129.47 118.331C129.903 117.897 130.449 117.681 131.108 117.681C131.766 117.681 132.312 117.897 132.746 118.331C133.179 118.764 133.396 119.319 133.396 119.995C133.396 120.653 133.179 121.199 132.746 121.633C132.312 122.066 131.766 122.283 131.108 122.283Z" fill="#3D3D3D"/>
<defs>
<filter id="filter0_f_2_1338" x="17.1455" y="102.017" width="20.4434" height="20.4434" filterUnits="userSpaceOnUse" color-interpolation-filters="sRGB">
<feFlood flood-opacity="0" result="BackgroundImageFix"/>
<feBlend mode="normal" in="SourceGraphic" in2="BackgroundImageFix" result="shape"/>
<feGaussianBlur stdDeviation="2" result="effect1_foregroundBlur_2_1338"/>
</filter>
<filter id="filter1_d_2_1338" x="90.4268" y="82.9517" width="82.4316" height="80.5032" filterUnits="userSpaceOnUse" color-interpolation-filters="sRGB">
<feFlood flood-opacity="0" result="BackgroundImageFix"/>
<feColorMatrix in="SourceAlpha" type="matrix" values="0 0 0 0 0 0 0 0 0 0 0 0 0 0 0 0 0 0 127 0" result="hardAlpha"/>
<feOffset dy="10"/>
<feGaussianBlur stdDeviation="10"/>
<feComposite in2="hardAlpha" operator="out"/>
<feColorMatrix type="matrix" values="0 0 0 0 0.686275 0 0 0 0 0.913725 0 0 0 0 0.0627451 0 0 0 0.39 0"/>
<feBlend mode="normal" in2="BackgroundImageFix" result="effect1_dropShadow_2_1338"/>
<feBlend mode="normal" in="SourceGraphic" in2="effect1_dropShadow_2_1338" result="shape"/>
</filter>
<linearGradient id="paint0_linear_2_1338" x1="99.0493" y1="0" x2="99.0493" y2="198.099" gradientUnits="userSpaceOnUse">
<stop stop-color="white" stop-opacity="0"/>
<stop offset="1" stop-color="#C9C9C9"/>
</linearGradient>
<linearGradient id="paint1_linear_2_1338" x1="106.966" y1="44.2439" x2="106.966" y2="96.4968" gradientUnits="userSpaceOnUse">
<stop stop-color="#C8C8C8"/>
<stop offset="1" stop-color="#505050"/>
</linearGradient>
<linearGradient id="paint2_linear_2_1338" x1="97.8099" y1="53.8159" x2="97.8099" y2="132.262" gradientUnits="userSpaceOnUse">
<stop stop-color="#C5C5C5"/>
<stop offset="1" stop-color="#454545"/>
</linearGradient>
<linearGradient id="paint3_linear_2_1338" x1="121.35" y1="65.7158" x2="121.35" y2="96.578" gradientUnits="userSpaceOnUse">
<stop stop-color="#999999"/>
<stop offset="1" stop-color="#696969"/>
</linearGradient>
<linearGradient id="paint4_linear_2_1338" x1="58.946" y1="110.621" x2="58.946" y2="132.262" gradientUnits="userSpaceOnUse">
<stop stop-color="#C2C2C2"/>
<stop offset="1" stop-color="#434343"/>
</linearGradient>
<linearGradient id="paint5_linear_2_1338" x1="74.6751" y1="85.1282" x2="74.6751" y2="132.246" gradientUnits="userSpaceOnUse">
<stop stop-color="#BCBCBC"/>
<stop offset="1" stop-color="#414141"/>
</linearGradient>
<linearGradient id="paint6_linear_2_1338" x1="94.5783" y1="116.336" x2="94.5783" y2="152.139" gradientUnits="userSpaceOnUse">
<stop stop-color="#565656"/>
<stop offset="1" stop-color="#5E5E5E" stop-opacity="0"/>
</linearGradient>
<linearGradient id="paint7_linear_2_1338" x1="138.075" y1="80.2866" x2="138.075" y2="116.368" gradientUnits="userSpaceOnUse">
<stop stop-color="#D8D8D8"/>
<stop offset="1" stop-color="#3B3B3B"/>
</linearGradient>
<linearGradient id="paint8_linear_2_1338" x1="114.471" y1="104.026" x2="131.643" y2="133.455" gradientUnits="userSpaceOnUse">
<stop stop-color="#B5E62D"/>
<stop offset="1" stop-color="#D4FF5D"/>
</linearGradient>
</defs>
</svg>
