<svg width="428" height="173" viewBox="0 0 428 173" fill="none" xmlns="http://www.w3.org/2000/svg">
<path d="M132.227 119.491C132.227 119.479 132.227 119.479 132.215 119.479C131.942 119.17 131.645 118.873 131.337 118.6C131.337 118.589 131.337 118.589 131.324 118.589C131.051 118.281 130.755 117.984 130.446 117.711C130.446 117.699 130.446 117.699 130.434 117.699C130.161 117.39 129.864 117.094 129.556 116.821C129.556 116.808 129.556 116.808 129.543 116.808C129.27 116.5 128.974 116.203 128.665 115.93C128.665 115.919 128.665 115.919 128.653 115.919C128.38 115.61 128.084 115.314 127.775 115.041C127.775 115.029 127.775 115.029 127.763 115.029C127.49 114.72 127.193 114.424 126.884 114.151C126.884 114.138 126.884 114.138 126.872 114.138C126.599 113.83 126.303 113.533 125.994 113.26C125.994 113.248 125.994 113.248 125.982 113.248C125.709 112.939 125.412 112.643 125.104 112.37C125.104 112.358 125.104 112.358 125.091 112.358C124.818 112.049 124.522 111.752 124.213 111.479C124.213 111.467 124.213 111.467 124.202 111.467C123.3 110.482 122.256 109.639 121.081 108.963V21.0477C121.081 20.5846 120.855 20.3475 120.855 19.8844C120.855 19.1841 120.855 18.947 120.618 18.4839C120.618 18.2467 120.392 17.7836 120.392 17.5465C120.155 16.8463 120.155 16.6091 119.918 16.146C119.681 15.9089 119.455 15.4458 119.455 15.2086C118.98 14.5084 118.754 14.2712 118.517 14.0453C118.28 13.8081 118.054 13.345 117.817 13.1079L116.88 12.1705C116.88 12.0284 116.702 11.8852 116.5 11.7901C116.382 11.6716 116.227 11.5172 116.037 11.327L115.99 11.2801C115.99 11.138 115.812 10.9948 115.61 10.9008C115.491 10.7823 115.337 10.6279 115.147 10.4377L115.1 10.3896C115.1 10.2476 114.922 10.1044 114.72 10.0093C114.601 9.89074 114.447 9.73637 114.256 9.54621L114.21 9.49923C114.21 9.35717 114.032 9.21398 113.83 9.1189C113.712 9.00033 113.557 8.84596 113.367 8.65579L113.32 8.60881C113.32 8.46675 113.142 8.32357 112.941 8.22849C112.822 8.10992 112.668 7.95555 112.478 7.76538L112.431 7.71728C112.431 7.57522 112.253 7.43204 112.051 7.33696C111.932 7.21839 111.778 7.06402 111.587 6.87386L111.541 6.82576C111.541 6.68369 111.363 6.54051 111.161 6.44542C111.043 6.32685 110.888 6.17248 110.698 5.98232L110.651 5.93534C110.651 5.79327 110.473 5.6501 110.272 5.55613C110.153 5.43756 109.999 5.28319 109.809 5.09303L109.762 5.04605C109.762 4.90398 109.584 4.7608 109.382 4.66572C109.263 4.54715 109.109 4.39278 108.918 4.20262L108.872 4.15452C108.872 4.01245 108.694 3.86927 108.492 3.77419L107.982 3.2641C107.982 3.03814 107.519 2.801 107.282 2.801C107.282 2.56386 107.056 2.56385 107.056 2.56385C106.582 2.33789 106.343 2.10075 105.881 1.8636C105.644 1.62646 105.181 1.4005 104.718 0.926211C104.481 0.926211 104.018 0.700248 103.781 0.700248C103.318 0.463103 102.606 0.463108 102.38 0.225963C101.917 0.225963 101.68 0.225959 101.206 0H99.8052C99.5792 0 99.5792 0 99.3421 0C99.1049 0 98.879 0 98.879 0H97.2413C97.0042 0.225959 96.5411 0.225963 96.3039 0.225963C95.6037 0.463108 95.1406 0.463103 94.9035 0.700248C94.4403 0.700248 94.2032 0.926207 93.9661 1.4005C93.2658 1.4005 93.0398 1.62646 92.5656 1.8636C92.3396 2.10075 91.8653 2.33789 91.6282 2.56385C91.4022 2.801 91.1651 3.03814 90.4648 3.2641C90.24 3.73839 90.0017 3.96435 89.7646 4.2015C89.5274 4.43864 89.5274 4.6646 89.3015 4.6646L2.87998 112.116C-1.30921 117.397 -0.917697 124.767 4.04333 129.301C4.31627 129.621 4.61271 129.919 4.93375 130.192C5.20669 130.511 5.50312 130.809 5.82416 131.082C6.0971 131.402 6.39353 131.699 6.71457 131.972C6.98751 132.292 7.28394 132.59 7.60499 132.863C7.87793 133.183 8.17435 133.48 8.49539 133.753C8.76834 134.073 9.06476 134.371 9.3858 134.644C9.65874 134.964 9.95518 135.261 10.2762 135.534C10.5492 135.854 10.8456 136.151 11.1666 136.424C11.4396 136.744 11.736 137.042 12.057 137.315C12.5906 137.92 13.2081 138.489 13.8849 139.001C16.2227 141.101 19.0237 141.802 21.8247 141.802H86.5038V150.655C86.5038 154.525 88.0945 157.918 90.6818 160.244L90.7176 160.28C90.9905 160.576 91.2758 160.862 91.5722 161.134C91.5845 161.147 91.5957 161.147 91.5957 161.158C91.8687 161.467 92.1651 161.752 92.4626 162.025L92.4984 162.061C92.7714 162.357 93.0566 162.642 93.3531 162.915C93.3654 162.928 93.3765 162.928 93.3765 162.939C93.6495 163.248 93.9459 163.532 94.2435 163.805L94.2793 163.84C94.5522 164.137 94.8374 164.422 95.1339 164.695C95.1462 164.707 95.1574 164.707 95.1574 164.718C95.4303 165.027 95.7267 165.312 96.0243 165.584L96.0601 165.62C96.333 165.917 96.6183 166.202 96.9147 166.475C96.927 166.487 96.9382 166.487 96.9382 166.498C97.2111 166.807 97.5076 167.092 97.804 167.365L97.8398 167.401C98.1127 167.697 98.398 167.983 98.6944 168.256C98.7067 168.267 98.7179 168.267 98.7179 168.279C101.045 170.831 104.415 172.409 108.247 172.409C115.487 172.409 121.088 166.796 121.088 159.556V141.802H123.426C130.665 141.802 136.505 136.2 136.505 128.961C136.499 125.246 134.849 121.852 132.227 119.491ZM86.5005 69.4678V107.22H56.0832L86.5005 69.4678Z" fill="#686868"/>
<path opacity="0.1" d="M132.227 119.491C132.227 119.479 132.227 119.479 132.215 119.479C131.942 119.17 131.645 118.873 131.337 118.6C131.337 118.589 131.337 118.589 131.324 118.589C131.051 118.281 130.755 117.984 130.446 117.711C130.446 117.699 130.446 117.699 130.434 117.699C130.161 117.39 129.864 117.094 129.556 116.821C129.556 116.808 129.556 116.808 129.543 116.808C129.27 116.5 128.974 116.203 128.665 115.93C128.665 115.919 128.665 115.919 128.653 115.919C128.38 115.61 128.084 115.314 127.775 115.041C127.775 115.029 127.775 115.029 127.763 115.029C127.49 114.72 127.193 114.424 126.884 114.151C126.884 114.138 126.884 114.138 126.872 114.138C126.599 113.83 126.303 113.533 125.994 113.26C125.994 113.248 125.994 113.248 125.982 113.248C125.709 112.939 125.412 112.643 125.104 112.37C125.104 112.358 125.104 112.358 125.091 112.358C124.818 112.049 124.522 111.752 124.213 111.479C124.213 111.467 124.213 111.467 124.202 111.467C123.3 110.482 122.256 109.639 121.081 108.963V21.0477C121.081 20.5846 120.855 20.3475 120.855 19.8844C120.855 19.1841 120.855 18.947 120.618 18.4839C120.618 18.2467 120.392 17.7836 120.392 17.5465C120.155 16.8463 120.155 16.6091 119.918 16.146C119.681 15.9089 119.455 15.4458 119.455 15.2086C118.98 14.5084 118.754 14.2712 118.517 14.0453C118.28 13.8081 118.054 13.345 117.817 13.1079L116.88 12.1705C116.88 12.0284 116.702 11.8852 116.5 11.7901C116.382 11.6716 116.227 11.5172 116.037 11.327L115.99 11.2801C115.99 11.138 115.812 10.9948 115.61 10.9008C115.491 10.7823 115.337 10.6279 115.147 10.4377L115.1 10.3896C115.1 10.2476 114.922 10.1044 114.72 10.0093C114.601 9.89074 114.447 9.73637 114.256 9.54621L114.21 9.49923C114.21 9.35717 114.032 9.21398 113.83 9.1189C113.712 9.00033 113.557 8.84596 113.367 8.65579L113.32 8.60881C113.32 8.46675 113.142 8.32357 112.941 8.22849C112.822 8.10992 112.668 7.95555 112.478 7.76538L112.431 7.71728C112.431 7.57522 112.253 7.43204 112.051 7.33696C111.932 7.21839 111.778 7.06402 111.587 6.87386L111.541 6.82576C111.541 6.68369 111.363 6.54051 111.161 6.44542C111.043 6.32685 110.888 6.17248 110.698 5.98232L110.651 5.93534C110.651 5.79327 110.473 5.6501 110.272 5.55613C110.153 5.43756 109.999 5.28319 109.809 5.09303L109.762 5.04605C109.762 4.90398 109.584 4.7608 109.382 4.66572C109.263 4.54715 109.109 4.39278 108.918 4.20262L108.872 4.15452C108.872 4.01245 108.694 3.86927 108.492 3.77419L107.982 3.2641C107.982 3.03814 107.519 2.801 107.282 2.801C107.282 2.56386 107.056 2.56385 107.056 2.56385C106.582 2.33789 106.343 2.10075 105.881 1.8636C105.644 1.62646 105.181 1.4005 104.718 0.926211C104.481 0.926211 104.018 0.700248 103.781 0.700248C103.318 0.463103 102.606 0.463108 102.38 0.225963C101.917 0.225963 101.68 0.225959 101.206 0H99.8052C99.5792 0 99.5792 0 99.3421 0C99.1049 0 98.879 0 98.879 0H97.2413C97.0042 0.225959 96.5411 0.225963 96.3039 0.225963C95.6037 0.463108 95.1406 0.463103 94.9035 0.700248C94.4403 0.700248 94.2032 0.926207 93.9661 1.4005C93.2658 1.4005 93.0398 1.62646 92.5656 1.8636C92.3396 2.10075 91.8653 2.33789 91.6282 2.56385C91.4022 2.801 91.1651 3.03814 90.4648 3.2641C90.24 3.73839 90.0017 3.96435 89.7646 4.2015C89.5274 4.43864 89.5274 4.6646 89.3015 4.6646L2.87998 112.116C-1.30921 117.397 -0.917697 124.767 4.04333 129.301C4.31627 129.621 4.61271 129.919 4.93375 130.192C5.20669 130.511 5.50312 130.809 5.82416 131.082C6.0971 131.402 6.39353 131.699 6.71457 131.972C6.98751 132.292 7.28394 132.59 7.60499 132.863C7.87793 133.183 8.17435 133.48 8.49539 133.753C8.76834 134.073 9.06476 134.371 9.3858 134.644C9.65874 134.964 9.95518 135.261 10.2762 135.534C10.5492 135.854 10.8456 136.151 11.1666 136.424C11.4396 136.744 11.736 137.042 12.057 137.315C12.5906 137.92 13.2081 138.489 13.8849 139.001C16.2227 141.101 19.0237 141.802 21.8247 141.802H86.5038V150.655C86.5038 154.525 88.0945 157.918 90.6818 160.244L90.7176 160.28C90.9905 160.576 91.2758 160.862 91.5722 161.134C91.5845 161.147 91.5957 161.147 91.5957 161.158C91.8687 161.467 92.1651 161.752 92.4626 162.025L92.4984 162.061C92.7714 162.357 93.0566 162.642 93.3531 162.915C93.3654 162.928 93.3765 162.928 93.3765 162.939C93.6495 163.248 93.9459 163.532 94.2435 163.805L94.2793 163.84C94.5522 164.137 94.8374 164.422 95.1339 164.695C95.1462 164.707 95.1574 164.707 95.1574 164.718C95.4303 165.027 95.7267 165.312 96.0243 165.584L96.0601 165.62C96.333 165.917 96.6183 166.202 96.9147 166.475C96.927 166.487 96.9382 166.487 96.9382 166.498C97.2111 166.807 97.5076 167.092 97.804 167.365L97.8398 167.401C98.1127 167.697 98.398 167.983 98.6944 168.256C98.7067 168.267 98.7179 168.267 98.7179 168.279C101.045 170.831 104.415 172.409 108.247 172.409C115.487 172.409 121.088 166.796 121.088 159.556V141.802H123.426C130.665 141.802 136.505 136.2 136.505 128.961C136.499 125.246 134.849 121.852 132.227 119.491ZM86.5005 69.4678V107.22H56.0832L86.5005 69.4678Z" fill="black"/>
<path d="M127.602 120.059C127.602 127.3 121.763 132.905 114.521 132.905H112.187V150.657C112.187 157.898 106.582 163.504 99.3419 163.504C92.1001 163.504 86.4947 157.898 86.4947 150.657V132.905H13.3858H13.152H12.9182C10.115 132.905 7.31288 132.205 4.9761 130.102C-0.863034 125.664 -1.56328 117.723 2.87536 112.117L89.2979 4.67341C89.5317 4.67341 89.5317 4.43962 89.7655 4.20695C89.9993 3.97316 90.2331 3.73937 90.4669 3.27179C91.1649 3.038 91.3987 2.80533 91.6325 2.57154C91.8663 2.33775 92.3339 2.10397 92.5676 1.87018C93.0352 1.63639 93.269 1.4026 93.967 1.4026C94.2008 0.93614 94.4346 0.702352 94.9022 0.702352C95.136 0.468562 95.6036 0.468555 96.3049 0.234765C96.5387 0.234765 97.004 0.234766 97.2367 0.000976562C97.7043 0.000976562 98.4057 0.000976562 98.8732 0.000976562C98.8732 0.000976562 99.107 0.000976562 99.3408 0.000976562C99.5746 0.000976562 99.5746 0.000976562 99.8062 0.000976562C100.274 0.000976562 100.975 0.000976562 101.209 0.000976562C101.676 0.234766 101.91 0.234765 102.378 0.234765C102.609 0.468555 103.311 0.468562 103.778 0.702352C104.012 0.702352 104.48 0.93614 104.714 0.93614C105.181 1.4026 105.646 1.63639 105.88 1.87018C106.348 2.10397 106.582 2.33775 107.049 2.57154C107.049 2.57154 107.283 2.57154 107.283 2.80533C107.517 2.80533 107.984 3.038 107.984 3.27179C108.452 3.73937 108.683 3.97316 108.917 4.20695C109.151 4.43962 109.385 4.9072 109.619 5.14099C109.852 5.37477 110.086 5.60856 110.554 6.30881C110.554 6.5426 110.788 7.01019 111.021 7.24397C111.255 7.71043 111.255 7.94422 111.489 8.64559C111.489 8.87826 111.719 9.34584 111.719 9.57963C111.953 10.0472 111.953 10.2799 111.953 10.9812C111.953 11.4488 112.187 11.6826 112.187 12.1491C112.187 12.3829 112.187 12.6166 112.187 12.8504V107.214H114.521C121.764 107.213 127.602 113.052 127.602 120.059ZM86.4947 49.5196L40.0132 107.213H86.4947V49.5196Z" fill="#BEED3B"/>
<path d="M264.236 34.8251C261.578 30.7779 258.516 27.0284 255.098 23.705C254.967 23.5629 254.838 23.432 254.695 23.3135C254.659 23.2777 254.623 23.2307 254.576 23.1949C254.47 23.0763 254.362 22.9578 254.244 22.8504C253.947 22.5304 253.626 22.2329 253.317 21.9242C253.294 21.9007 253.258 21.8649 253.235 21.8526C253.128 21.7463 253.021 21.6389 252.915 21.5326C252.879 21.4968 252.843 21.4499 252.796 21.4141C252.689 21.2955 252.583 21.1769 252.464 21.0695C252.168 20.7496 251.847 20.4521 251.538 20.1445C251.514 20.121 251.479 20.0852 251.455 20.0729C251.348 19.9666 251.241 19.8592 251.135 19.7529C251.099 19.7171 251.064 19.6702 251.017 19.6344C250.91 19.5158 250.803 19.3972 250.684 19.2898C250.388 18.9699 250.067 18.6724 249.759 18.3636C249.736 18.3401 249.7 18.3043 249.676 18.292C249.569 18.1858 249.463 18.0784 249.355 17.9721C249.32 17.9363 249.284 17.8893 249.237 17.8535C249.129 17.735 249.023 17.6164 248.905 17.509C248.608 17.1891 248.287 16.8915 247.978 16.5828C247.955 16.5593 247.919 16.5235 247.896 16.5112C247.788 16.3926 247.694 16.2864 247.576 16.1913C247.54 16.1555 247.504 16.1085 247.457 16.0727C238.081 6.40011 225.846 0.00390625 212.127 0.00390625C193.672 0.00390625 178.494 10.9819 168.679 25.9232C158.401 40.8767 153.038 60.269 152.8 81.7496C153.038 103.004 158.402 122.622 168.679 137.576C171.326 141.528 174.352 145.243 177.722 148.542C177.876 148.696 178.031 148.838 178.185 148.993C178.209 149.005 178.232 149.028 178.244 149.052C178.517 149.337 178.802 149.61 179.075 149.883C179.217 150.037 179.361 150.179 179.503 150.323C179.657 150.477 179.811 150.619 179.966 150.773C179.989 150.785 180.013 150.809 180.025 150.833C180.298 151.118 180.583 151.391 180.856 151.664C180.998 151.818 181.141 151.96 181.284 152.103C181.438 152.258 181.592 152.4 181.747 152.554C181.77 152.566 181.794 152.59 181.806 152.613C182.079 152.899 182.364 153.172 182.637 153.445C182.779 153.599 182.922 153.741 183.064 153.884C183.219 154.039 183.373 154.181 183.527 154.335C183.551 154.347 183.574 154.371 183.587 154.394C183.86 154.68 184.145 154.952 184.418 155.225C184.56 155.38 184.703 155.522 184.845 155.665C185 155.819 185.154 155.961 185.308 156.116C185.332 156.128 185.355 156.152 185.368 156.175C185.641 156.46 185.926 156.733 186.199 157.006C195.432 166.227 207.335 172.411 221.031 172.411C239.01 172.411 254.427 161.195 264.242 146.479C274.282 131.525 279.896 111.908 279.896 90.6526C279.89 69.1708 274.277 49.7786 264.236 34.8251ZM233.844 123.098C227.067 133.138 219.365 137.576 212.126 137.576C208.138 137.576 203.938 136.235 199.808 133.339C199.475 132.911 199.154 132.461 198.835 131.997C192.295 122.183 187.619 107.242 187.619 90.6504C187.619 73.8332 192.295 59.1179 198.835 49.0773C205.848 39.2626 213.788 34.5991 221.028 34.824C224.872 34.7054 228.849 35.9638 232.753 38.6574C233.121 39.1563 233.489 39.6541 233.845 40.1765C240.384 50.2171 245.06 64.9324 245.06 81.7496C245.059 98.3408 240.383 113.283 233.844 123.098Z" fill="#686868"/>
<path opacity="0.1" d="M264.236 34.8251C261.578 30.7779 258.516 27.0284 255.098 23.705C254.967 23.5629 254.838 23.432 254.695 23.3135C254.659 23.2777 254.623 23.2307 254.576 23.1949C254.47 23.0763 254.362 22.9578 254.244 22.8504C253.947 22.5304 253.626 22.2329 253.317 21.9242C253.294 21.9007 253.258 21.8649 253.235 21.8526C253.128 21.7463 253.021 21.6389 252.915 21.5326C252.879 21.4968 252.843 21.4499 252.796 21.4141C252.689 21.2955 252.583 21.1769 252.464 21.0695C252.168 20.7496 251.847 20.4521 251.538 20.1445C251.514 20.121 251.479 20.0852 251.455 20.0729C251.348 19.9666 251.241 19.8592 251.135 19.7529C251.099 19.7171 251.064 19.6702 251.017 19.6344C250.91 19.5158 250.803 19.3972 250.684 19.2898C250.388 18.9699 250.067 18.6724 249.759 18.3636C249.736 18.3401 249.7 18.3043 249.676 18.292C249.569 18.1858 249.463 18.0784 249.355 17.9721C249.32 17.9363 249.284 17.8893 249.237 17.8535C249.129 17.735 249.023 17.6164 248.905 17.509C248.608 17.1891 248.287 16.8915 247.978 16.5828C247.955 16.5593 247.919 16.5235 247.896 16.5112C247.788 16.3926 247.694 16.2864 247.576 16.1913C247.54 16.1555 247.504 16.1085 247.457 16.0727C238.081 6.40011 225.846 0.00390625 212.127 0.00390625C193.672 0.00390625 178.494 10.9819 168.679 25.9232C158.401 40.8767 153.038 60.269 152.8 81.7496C153.038 103.004 158.402 122.622 168.679 137.576C171.326 141.528 174.352 145.243 177.722 148.542C177.876 148.696 178.031 148.838 178.185 148.993C178.209 149.005 178.232 149.028 178.244 149.052C178.517 149.337 178.802 149.61 179.075 149.883C179.217 150.037 179.361 150.179 179.503 150.323C179.657 150.477 179.811 150.619 179.966 150.773C179.989 150.785 180.013 150.809 180.025 150.833C180.298 151.118 180.583 151.391 180.856 151.664C180.998 151.818 181.141 151.96 181.284 152.103C181.438 152.258 181.592 152.4 181.747 152.554C181.77 152.566 181.794 152.59 181.806 152.613C182.079 152.899 182.364 153.172 182.637 153.445C182.779 153.599 182.922 153.741 183.064 153.884C183.219 154.039 183.373 154.181 183.527 154.335C183.551 154.347 183.574 154.371 183.587 154.394C183.86 154.68 184.145 154.952 184.418 155.225C184.56 155.38 184.703 155.522 184.845 155.665C185 155.819 185.154 155.961 185.308 156.116C185.332 156.128 185.355 156.152 185.368 156.175C185.641 156.46 185.926 156.733 186.199 157.006C195.432 166.227 207.335 172.411 221.031 172.411C239.01 172.411 254.427 161.195 264.242 146.479C274.282 131.525 279.896 111.908 279.896 90.6526C279.89 69.1708 274.277 49.7786 264.236 34.8251ZM233.844 123.098C227.067 133.138 219.365 137.576 212.126 137.576C208.138 137.576 203.938 136.235 199.808 133.339C199.475 132.911 199.154 132.461 198.835 131.997C192.295 122.183 187.619 107.242 187.619 90.6504C187.619 73.8332 192.295 59.1179 198.835 49.0773C205.848 39.2626 213.788 34.5991 221.028 34.824C224.872 34.7054 228.849 35.9638 232.753 38.6574C233.121 39.1563 233.489 39.6541 233.845 40.1765C240.384 50.2171 245.06 64.9324 245.06 81.7496C245.059 98.3408 240.383 113.283 233.844 123.098Z" fill="black"/>
<path d="M152.797 81.7532C153.031 60.2636 158.402 40.877 168.681 25.9291C178.489 10.98 193.672 0.00195312 212.125 0.00195312C230.112 0.00195312 245.525 10.98 255.339 25.9291C265.38 40.8782 270.986 60.2648 270.986 81.7532C270.986 103.008 265.38 122.628 255.339 137.576C245.525 152.293 230.112 163.503 212.125 163.503C193.672 163.503 178.489 152.293 168.681 137.576C158.402 122.628 153.031 103.008 152.797 81.7532ZM245.056 81.7532C245.056 64.9361 240.386 50.2208 233.846 40.1757C227.071 30.3666 219.367 25.6942 212.124 25.9279C204.882 25.6942 196.941 30.3655 189.936 40.1757C183.395 50.2208 178.722 64.935 178.722 81.7532C178.722 98.3377 183.395 113.286 189.936 123.096C196.941 133.139 204.882 137.577 212.124 137.577C219.365 137.577 227.071 133.14 233.846 123.096C240.386 113.286 245.056 98.3377 245.056 81.7532Z" fill="#BEED3B"/>
<path d="M423.368 119.491C423.368 119.479 423.368 119.479 423.356 119.479C423.071 119.17 422.774 118.873 422.478 118.6C422.478 118.589 422.478 118.589 422.465 118.589C422.18 118.281 421.884 117.984 421.587 117.711C421.587 117.699 421.587 117.699 421.575 117.699C421.291 117.39 420.993 117.094 420.697 116.821C420.697 116.808 420.697 116.808 420.685 116.808C420.399 116.5 420.103 116.203 419.806 115.93C419.806 115.919 419.806 115.919 419.794 115.919C419.509 115.61 419.213 115.314 418.916 115.041C418.916 115.029 418.916 115.029 418.904 115.029C418.62 114.72 418.322 114.424 418.026 114.151C418.026 114.138 418.026 114.138 418.013 114.138C417.728 113.83 417.432 113.533 417.135 113.26C417.135 113.248 417.135 113.248 417.124 113.248C416.839 112.939 416.542 112.643 416.246 112.37C416.246 112.358 416.246 112.358 416.234 112.358C415.948 112.049 415.652 111.752 415.356 111.479C415.356 111.467 415.356 111.467 415.343 111.467C414.442 110.482 413.386 109.628 412.21 108.963V21.0477C412.21 20.5846 411.984 20.3475 411.984 19.8844C411.984 19.1841 411.984 18.947 411.747 18.4839C411.747 18.2467 411.521 17.7836 411.521 17.5465C411.284 16.8463 411.284 16.6091 411.047 16.146C410.821 15.9089 410.584 15.4458 410.584 15.2086C410.12 14.5084 409.883 14.2712 409.646 14.0453C409.409 13.8081 409.183 13.345 408.946 13.1079L408.009 12.1705C408.009 12.0284 407.831 11.8852 407.628 11.7901C407.51 11.6716 407.355 11.5172 407.165 11.327L407.118 11.2801C407.118 11.138 406.94 10.9948 406.738 10.9008C406.619 10.7823 406.465 10.6279 406.275 10.4377L406.228 10.3896C406.228 10.2476 406.05 10.1044 405.848 10.0093C405.73 9.89074 405.576 9.73637 405.385 9.54621L405.338 9.49923C405.338 9.35717 405.161 9.21398 404.958 9.1189C404.84 9.00033 404.685 8.84596 404.495 8.65579L404.448 8.60881C404.448 8.46675 404.27 8.32357 404.069 8.22849C403.95 8.10992 403.796 7.95555 403.606 7.76538L403.559 7.71728C403.559 7.57522 403.381 7.43204 403.179 7.33696C403.061 7.21839 402.907 7.06402 402.716 6.87386L402.669 6.82576C402.669 6.68369 402.492 6.54051 402.29 6.44542C402.172 6.32685 402.017 6.17248 401.827 5.98232L401.779 5.93534C401.779 5.79327 401.601 5.6501 401.399 5.55613C401.28 5.43756 401.126 5.28319 400.936 5.09303L400.889 5.04605C400.889 4.90398 400.711 4.7608 400.509 4.66572C400.391 4.54715 400.236 4.39278 400.046 4.20262L399.999 4.15452C399.999 4.01245 399.821 3.86927 399.619 3.77419L399.109 3.2641C399.109 3.03814 398.646 2.801 398.409 2.801C398.409 2.56386 398.171 2.56385 398.171 2.56385C397.708 2.33789 397.471 2.10075 397.008 1.8636C396.771 1.62646 396.308 1.4005 395.845 0.926211C395.608 0.926211 395.145 0.700248 394.907 0.700248C394.444 0.463103 393.744 0.463108 393.507 0.225963C393.033 0.225963 392.807 0.225959 392.332 0H390.932C390.706 0 390.706 0 390.469 0C390.243 0 390.006 0 390.006 0H388.368C388.131 0.225959 387.668 0.225963 387.431 0.225963C386.73 0.463108 386.267 0.463103 386.03 0.700248C385.567 0.700248 385.33 0.926207 385.093 1.4005C384.405 1.4005 384.166 1.62646 383.692 1.8636C383.466 2.10075 382.992 2.33789 382.766 2.56385C382.529 2.801 382.292 3.03814 381.591 3.2641C381.354 3.73839 381.128 3.96435 380.891 4.2015C380.654 4.43864 380.654 4.6646 380.428 4.6646L294.007 112.116C289.817 117.397 290.209 124.767 295.17 129.301C295.443 129.621 295.739 129.919 296.06 130.192C296.333 130.511 296.63 130.809 296.951 131.082C297.224 131.402 297.52 131.699 297.841 131.972C298.114 132.292 298.411 132.59 298.732 132.863C299.005 133.183 299.301 133.48 299.622 133.753C299.895 134.073 300.191 134.371 300.512 134.644C300.785 134.964 301.082 135.261 301.403 135.534C301.676 135.854 301.972 136.151 302.293 136.424C302.566 136.744 302.863 137.042 303.184 137.315C303.717 137.92 304.335 138.489 305.012 139.001C307.349 141.101 310.15 141.802 312.951 141.802H377.63V150.655C377.63 154.512 379.221 157.918 381.808 160.244C381.821 160.256 381.832 160.256 381.832 160.268C382.105 160.576 382.401 160.862 382.698 161.134L382.734 161.17C383.006 161.467 383.292 161.752 383.588 162.025C383.6 162.037 383.612 162.037 383.612 162.048C383.885 162.357 384.181 162.641 384.479 162.914L384.514 162.95C384.787 163.246 385.073 163.532 385.369 163.805C385.381 163.817 385.393 163.817 385.393 163.828C385.665 164.137 385.962 164.422 386.258 164.695L386.294 164.731C386.567 165.027 386.852 165.312 387.149 165.585C387.161 165.597 387.172 165.597 387.172 165.609C387.445 165.918 387.742 166.202 388.039 166.475L388.075 166.511C388.348 166.807 388.633 167.092 388.93 167.365C388.942 167.377 388.953 167.377 388.953 167.389C389.226 167.697 389.522 167.983 389.819 168.254L389.855 168.29C392.18 170.842 395.539 172.408 399.373 172.408C406.612 172.408 412.213 166.795 412.213 159.555V141.8H414.551C421.802 141.8 427.641 136.198 427.641 128.96C427.64 125.246 425.99 121.852 423.368 119.491ZM377.629 69.4678V107.22H347.212L377.629 69.4678Z" fill="#686868"/>
<path opacity="0.1" d="M423.368 119.491C423.368 119.479 423.368 119.479 423.356 119.479C423.071 119.17 422.774 118.873 422.478 118.6C422.478 118.589 422.478 118.589 422.465 118.589C422.18 118.281 421.884 117.984 421.587 117.711C421.587 117.699 421.587 117.699 421.575 117.699C421.291 117.39 420.993 117.094 420.697 116.821C420.697 116.808 420.697 116.808 420.685 116.808C420.399 116.5 420.103 116.203 419.806 115.93C419.806 115.919 419.806 115.919 419.794 115.919C419.509 115.61 419.213 115.314 418.916 115.041C418.916 115.029 418.916 115.029 418.904 115.029C418.62 114.72 418.322 114.424 418.026 114.151C418.026 114.138 418.026 114.138 418.013 114.138C417.728 113.83 417.432 113.533 417.135 113.26C417.135 113.248 417.135 113.248 417.124 113.248C416.839 112.939 416.542 112.643 416.246 112.37C416.246 112.358 416.246 112.358 416.234 112.358C415.948 112.049 415.652 111.752 415.356 111.479C415.356 111.467 415.356 111.467 415.343 111.467C414.442 110.482 413.386 109.628 412.21 108.963V21.0477C412.21 20.5846 411.984 20.3475 411.984 19.8844C411.984 19.1841 411.984 18.947 411.747 18.4839C411.747 18.2467 411.521 17.7836 411.521 17.5465C411.284 16.8463 411.284 16.6091 411.047 16.146C410.821 15.9089 410.584 15.4458 410.584 15.2086C410.12 14.5084 409.883 14.2712 409.646 14.0453C409.409 13.8081 409.183 13.345 408.946 13.1079L408.009 12.1705C408.009 12.0284 407.831 11.8852 407.628 11.7901C407.51 11.6716 407.355 11.5172 407.165 11.327L407.118 11.2801C407.118 11.138 406.94 10.9948 406.738 10.9008C406.619 10.7823 406.465 10.6279 406.275 10.4377L406.228 10.3896C406.228 10.2476 406.05 10.1044 405.848 10.0093C405.73 9.89074 405.576 9.73637 405.385 9.54621L405.338 9.49923C405.338 9.35717 405.161 9.21398 404.958 9.1189C404.84 9.00033 404.685 8.84596 404.495 8.65579L404.448 8.60881C404.448 8.46675 404.27 8.32357 404.069 8.22849C403.95 8.10992 403.796 7.95555 403.606 7.76538L403.559 7.71728C403.559 7.57522 403.381 7.43204 403.179 7.33696C403.061 7.21839 402.907 7.06402 402.716 6.87386L402.669 6.82576C402.669 6.68369 402.492 6.54051 402.29 6.44542C402.172 6.32685 402.017 6.17248 401.827 5.98232L401.779 5.93534C401.779 5.79327 401.601 5.6501 401.399 5.55613C401.28 5.43756 401.126 5.28319 400.936 5.09303L400.889 5.04605C400.889 4.90398 400.711 4.7608 400.509 4.66572C400.391 4.54715 400.236 4.39278 400.046 4.20262L399.999 4.15452C399.999 4.01245 399.821 3.86927 399.619 3.77419L399.109 3.2641C399.109 3.03814 398.646 2.801 398.409 2.801C398.409 2.56386 398.171 2.56385 398.171 2.56385C397.708 2.33789 397.471 2.10075 397.008 1.8636C396.771 1.62646 396.308 1.4005 395.845 0.926211C395.608 0.926211 395.145 0.700248 394.907 0.700248C394.444 0.463103 393.744 0.463108 393.507 0.225963C393.033 0.225963 392.807 0.225959 392.332 0H390.932C390.706 0 390.706 0 390.469 0C390.243 0 390.006 0 390.006 0H388.368C388.131 0.225959 387.668 0.225963 387.431 0.225963C386.73 0.463108 386.267 0.463103 386.03 0.700248C385.567 0.700248 385.33 0.926207 385.093 1.4005C384.405 1.4005 384.166 1.62646 383.692 1.8636C383.466 2.10075 382.992 2.33789 382.766 2.56385C382.529 2.801 382.292 3.03814 381.591 3.2641C381.354 3.73839 381.128 3.96435 380.891 4.2015C380.654 4.43864 380.654 4.6646 380.428 4.6646L294.007 112.116C289.817 117.397 290.209 124.767 295.17 129.301C295.443 129.621 295.739 129.919 296.06 130.192C296.333 130.511 296.63 130.809 296.951 131.082C297.224 131.402 297.52 131.699 297.841 131.972C298.114 132.292 298.411 132.59 298.732 132.863C299.005 133.183 299.301 133.48 299.622 133.753C299.895 134.073 300.191 134.371 300.512 134.644C300.785 134.964 301.082 135.261 301.403 135.534C301.676 135.854 301.972 136.151 302.293 136.424C302.566 136.744 302.863 137.042 303.184 137.315C303.717 137.92 304.335 138.489 305.012 139.001C307.349 141.101 310.15 141.802 312.951 141.802H377.63V150.655C377.63 154.512 379.221 157.918 381.808 160.244C381.821 160.256 381.832 160.256 381.832 160.268C382.105 160.576 382.401 160.862 382.698 161.134L382.734 161.17C383.006 161.467 383.292 161.752 383.588 162.025C383.6 162.037 383.612 162.037 383.612 162.048C383.885 162.357 384.181 162.641 384.479 162.914L384.514 162.95C384.787 163.246 385.073 163.532 385.369 163.805C385.381 163.817 385.393 163.817 385.393 163.828C385.665 164.137 385.962 164.422 386.258 164.695L386.294 164.731C386.567 165.027 386.852 165.312 387.149 165.585C387.161 165.597 387.172 165.597 387.172 165.609C387.445 165.918 387.742 166.202 388.039 166.475L388.075 166.511C388.348 166.807 388.633 167.092 388.93 167.365C388.942 167.377 388.953 167.377 388.953 167.389C389.226 167.697 389.522 167.983 389.819 168.254L389.855 168.29C392.18 170.842 395.539 172.408 399.373 172.408C406.612 172.408 412.213 166.795 412.213 159.555V141.8H414.551C421.802 141.8 427.641 136.198 427.641 128.96C427.64 125.246 425.99 121.852 423.368 119.491ZM377.629 69.4678V107.22H347.212L377.629 69.4678Z" fill="black"/>
<path d="M418.735 120.059C418.735 127.3 412.896 132.905 405.654 132.905H403.316V150.657C403.316 157.898 397.711 163.504 390.474 163.504C383.232 163.504 377.627 157.898 377.627 150.657V132.905H304.517H304.283H304.05C301.244 132.905 298.444 132.205 296.106 130.102C290.267 125.664 289.566 117.723 294.008 112.117L380.427 4.67341C380.661 4.67341 380.661 4.43962 380.895 4.20695C381.128 3.97316 381.362 3.73937 381.596 3.27179C382.297 3.038 382.531 2.80533 382.765 2.57154C382.999 2.33775 383.466 2.10397 383.7 1.87018C384.168 1.63639 384.401 1.4026 385.097 1.4026C385.331 0.93614 385.565 0.702352 386.032 0.702352C386.266 0.468562 386.734 0.468555 387.435 0.234765C387.669 0.234765 388.136 0.234766 388.37 0.000976562C388.838 0.000976562 389.539 0.000976562 390.007 0.000976562C390.007 0.000976562 390.241 0.000976562 390.474 0.000976562C390.708 0.000976562 390.708 0.000976562 390.936 0.000976562C391.404 0.000976562 392.105 0.000976562 392.339 0.000976562C392.807 0.234766 393.04 0.234765 393.508 0.234765C393.742 0.468555 394.443 0.468562 394.911 0.702352C395.145 0.702352 395.612 0.93614 395.846 0.93614C396.313 1.4026 396.775 1.63639 397.009 1.87018C397.477 2.10397 397.711 2.33775 398.178 2.57154C398.178 2.57154 398.412 2.57154 398.412 2.80533C398.646 2.80533 399.113 3.038 399.113 3.27179C399.581 3.73937 399.815 3.97316 400.049 4.20695C400.282 4.43962 400.516 4.9072 400.75 5.14099C400.984 5.37477 401.217 5.60856 401.685 6.30881C401.685 6.5426 401.919 7.01019 402.153 7.24397C402.386 7.71043 402.386 7.94422 402.62 8.64559C402.62 8.87826 402.848 9.34584 402.848 9.57963C403.082 10.0472 403.082 10.2799 403.082 10.9812C403.082 11.4488 403.316 11.6826 403.316 12.1491C403.316 12.3829 403.316 12.6166 403.316 12.8504V107.214H405.654C412.895 107.213 418.735 113.052 418.735 120.059ZM377.626 49.5196L331.14 107.213H377.626V49.5196Z" fill="#BEED3B"/>
</svg>
