<svg width="74" height="30" viewBox="0 0 74 30" fill="none" xmlns="http://www.w3.org/2000/svg">
<rect x="0.5" y="0.5" width="73" height="29" rx="4.5" fill="white"/>
<rect x="0.5" y="0.5" width="73" height="29" rx="4.5" stroke="#E5E6E8"/>
<path d="M60.9633 10.0417C60.5274 9.18786 59.3424 8.57469 57.9507 8.57469H57.92C57.0154 8.57469 56.2008 8.83331 55.6196 9.24854C55.0363 8.83331 54.2218 8.57469 53.3172 8.57469H53.2885C52.4924 8.57469 51.7658 8.77475 51.2071 9.10574V8.93741C51.1866 8.76975 50.9861 8.63801 50.7384 8.63801H48.6038C48.3418 8.63801 48.131 8.7829 48.131 8.9628V16.9259C48.131 17.1059 48.3418 17.2507 48.6038 17.2507H50.7384C50.9779 17.2507 51.1723 17.1286 51.203 16.9707V11.2541C51.203 11.2341 51.203 11.2156 51.2071 11.1969C51.2398 10.9417 51.512 10.732 51.9439 10.7057H52.3368C52.5169 10.7168 52.6684 10.7602 52.7871 10.8257C52.9733 10.9271 53.0777 11.083 53.0777 11.2541L53.0859 16.9425C53.0859 17.1225 53.2967 17.2681 53.5587 17.2681H55.6933C55.945 17.2681 56.1497 17.1302 56.162 16.9584V11.2466C56.1599 11.0589 56.2868 10.8893 56.5099 10.7886C56.6184 10.7403 56.7493 10.7079 56.9008 10.6982H57.2958C57.7583 10.7258 58.0367 10.9665 58.0367 11.2466L58.0448 16.9274C58.0448 17.1074 58.2557 17.2522 58.5156 17.2522H60.6522C60.9122 17.2522 61.125 17.1073 61.125 16.9274V10.8177C61.125 10.401 61.0554 10.2237 60.9633 10.0417ZM46.5038 8.6588H45.2815V7.29586C45.2815 7.1324 45.0881 7 44.8505 7C44.8229 7 44.7952 7.00276 44.769 7.00619C43.4142 7.26137 43.6864 8.54916 41.2143 8.6588H40.9738C40.9365 8.6588 40.9034 8.66222 40.8702 8.66708C40.6588 8.69947 40.5 8.82844 40.5 8.98295V10.4495C40.5 10.6281 40.7114 10.7736 40.9726 10.7736H42.2623L42.2597 16.9917C42.2597 17.169 42.4697 17.3125 42.7277 17.3125H44.8394C45.0963 17.3125 45.3049 17.169 45.3049 16.9917L45.3063 10.7736H46.5023C46.7639 10.7736 46.9747 10.6281 46.9747 10.4495V8.98308C46.9767 8.80436 46.7639 8.6588 46.5038 8.6588Z" fill="#54C1F0"/>
<path d="M38.6526 8.87526H36.5139C36.2532 8.87526 36.0419 9.01773 36.0419 9.19255V12.1604C36.037 12.3441 35.8156 12.4913 35.5408 12.4913H34.6457C34.368 12.4913 34.1437 12.3414 34.1437 12.155L34.1356 9.19255C34.1356 9.01773 33.9232 8.87526 33.663 8.87526H31.5238C31.2623 8.87526 31.051 9.01773 31.051 9.19255V12.4454C31.051 13.6809 32.3639 14.5619 34.2059 14.5619C34.2059 14.5619 35.5882 14.5619 35.6304 14.5673C35.8798 14.5863 36.0741 14.7267 36.0741 14.8996C36.0741 15.0704 35.8837 15.2101 35.6373 15.231C35.625 15.2323 35.614 15.2344 35.6011 15.2358L32.4733 15.2432C32.2116 15.2432 32.0005 15.3857 32.0005 15.5605V16.9952C32.0005 17.1708 32.2118 17.3125 32.4733 17.3125H35.9702C37.8132 17.3125 39.125 16.4321 39.125 15.196V9.19267C39.1254 9.01773 38.9141 8.87526 38.6526 8.87526ZM18.1384 8.875H13.4636C13.2072 8.875 13 9.01464 13 9.18624V10.5926L13.0008 10.6007C13.0008 10.6074 13 10.6142 13 10.6203V16.9853C13 17.1582 13.193 17.2993 13.4324 17.3032H15.6115C15.8722 17.3032 16.0843 17.1614 16.0843 16.986L16.0923 14.8046H18.1388C19.8509 14.8046 21.0443 14.0074 21.0443 12.8535V10.8288C21.0441 9.67497 19.8509 8.875 18.1384 8.875ZM17.9505 12.391C17.9505 12.5767 17.7261 12.7279 17.4494 12.7279L16.0923 12.7285V10.9537H17.4494C17.7261 10.9537 17.9505 11.1035 17.9505 11.2899V12.391ZM26.4846 8.88312H23.5171C23.2543 8.88312 23.042 9.01684 23.042 9.18082V9.73913C23.042 9.74248 23.043 9.74662 23.043 9.74995C23.043 9.75394 23.042 9.75807 23.042 9.76206V10.527C23.042 10.7005 23.2674 10.8422 23.5451 10.8422H26.371C26.5942 10.8658 26.7715 10.9752 26.7965 11.146V11.331C26.7715 11.4937 26.5965 11.6124 26.3831 11.626H24.9838C23.1223 11.626 21.7966 12.4557 21.7966 13.621V15.2899C21.7966 16.4484 22.9365 17.2727 24.7844 17.2727H28.6627C29.3588 17.2727 29.9232 16.919 29.9232 16.4834V11.0375C29.9232 9.71698 28.9092 8.88312 26.4846 8.88312ZM26.8248 15.0991C26.8248 15.1174 26.8207 15.1349 26.8166 15.1518C26.8116 15.1676 26.8049 15.1832 26.7965 15.1984C26.7301 15.324 26.543 15.4151 26.3208 15.4151H25.4304C25.1529 15.4151 24.9264 15.2733 24.9264 15.0991V14.8283C24.9264 14.825 24.9254 14.8216 24.9254 14.8181L24.9264 14.0978V13.8723L24.9272 13.8703C24.9283 13.6968 25.1527 13.5563 25.4302 13.5563H26.3204C26.5993 13.5563 26.8246 13.6974 26.8246 13.8723L26.8248 15.0991Z" fill="#233266"/>
<path d="M61.125 18.25H13V20.125H61.125V18.25Z" fill="#54C1F0"/>
<path d="M61.125 20.125H13V22H61.125V20.125Z" fill="#233266"/>
</svg>
