<svg width="74" height="30" viewBox="0 0 74 30" fill="none" xmlns="http://www.w3.org/2000/svg">
<rect x="0.5" y="0.5" width="73" height="29" rx="4.5" fill="white"/>
<rect x="0.5" y="0.5" width="73" height="29" rx="4.5" stroke="#E5E6E8"/>
<mask id="mask0_1_2805" style="mask-type:luminance" maskUnits="userSpaceOnUse" x="9" y="6" width="56" height="16">
<path d="M64.9728 6.99976H9V21.9998H64.9728V6.99976Z" fill="white"/>
</mask>
<g mask="url(#mask0_1_2805)">
<path d="M47.4366 18.7853V16.062C47.4366 15.3918 47.1821 15.0566 46.545 15.0566C46.2897 15.0566 45.9931 15.0986 45.8237 15.1403V19.1204C45.8237 19.2461 45.6956 19.3718 45.5684 19.3718H44.5917C44.4645 19.3718 44.3372 19.2461 44.3372 19.1204V14.4701C44.3372 14.3024 44.4645 14.1769 44.5917 14.1349C45.2288 13.9255 45.8658 13.7998 46.545 13.7998C48.0737 13.7998 48.9222 14.5958 48.9222 16.0622V19.1623C48.9222 19.2881 48.795 19.4138 48.6678 19.4138H48.0737C47.6911 19.4135 47.4366 19.1204 47.4366 18.7853ZM51.2582 17.1513L51.2152 17.5285C51.2152 18.0313 51.5548 18.3244 52.1067 18.3244C52.5314 18.3244 52.9132 18.1988 53.3387 17.9893C53.3809 17.9893 53.423 17.9473 53.466 17.9473C53.5502 17.9473 53.5932 17.9893 53.6362 18.0311C53.6783 18.073 53.7635 18.1988 53.7635 18.1988C53.8477 18.3244 53.9328 18.4919 53.9328 18.6175C53.9328 18.827 53.8056 19.0364 53.6362 19.1204C53.1694 19.3718 52.6174 19.4975 52.0225 19.4975C51.3433 19.4975 50.7905 19.3298 50.3666 18.9947C49.9419 18.6175 49.6874 18.115 49.6874 17.4865V15.8526C49.6874 14.5538 50.536 13.7579 51.9803 13.7579C53.3809 13.7579 54.1882 14.5121 54.1882 15.8526V16.858C54.1882 16.9837 54.0609 17.1093 53.9328 17.1093H51.2582V17.1513ZM51.2152 16.2297H52.8289V15.8108C52.8289 15.308 52.5323 14.9729 52.0225 14.9729C51.5126 14.9729 51.2152 15.266 51.2152 15.8108V16.2297ZM62.0428 17.1513L61.9998 17.5285C61.9998 18.0313 62.3403 18.3244 62.8922 18.3244C63.3161 18.3244 63.6987 18.1988 64.1234 17.9893C64.1655 17.9893 64.2076 17.9473 64.2506 17.9473C64.3357 17.9473 64.3779 17.9893 64.4209 18.0311C64.463 18.073 64.5481 18.1988 64.5481 18.1988C64.6332 18.3244 64.7183 18.4919 64.7183 18.6175C64.7183 18.827 64.5902 19.0364 64.4209 19.1204C63.954 19.3718 63.4021 19.4975 62.8071 19.4975C62.1279 19.4975 61.576 19.3298 61.1512 18.9947C60.7274 18.6175 60.472 18.115 60.472 17.4865V15.8526C60.472 14.5538 61.3215 13.7579 62.765 13.7579C64.1664 13.7579 64.9728 14.5121 64.9728 15.8526V16.858C64.9728 16.9837 64.8456 17.1093 64.7183 17.1093H62.0428V17.1513ZM61.9998 16.2297H63.6136V15.8108C63.6136 15.308 63.3161 14.9729 62.8071 14.9729C62.2973 14.9729 61.9998 15.266 61.9998 15.8108V16.2297ZM37.0337 19.4135H37.6286C37.7559 19.4135 37.8831 19.2878 37.8831 19.1622V16.062C37.8831 14.6375 37.1188 13.7996 35.8447 13.7996C35.4629 13.7996 35.0382 13.8833 34.7837 13.9673V12.4171C34.7837 12.0819 34.4863 11.7886 34.1458 11.7886H33.5517C33.4245 11.7886 33.2972 11.9143 33.2972 12.04V19.1622C33.2972 19.2878 33.4245 19.4135 33.5517 19.4135H34.5293C34.6556 19.4135 34.7837 19.2878 34.7837 19.1622V15.2241C34.9952 15.1403 35.2927 15.0983 35.5051 15.0983C36.1421 15.0983 36.3966 15.3915 36.3966 16.1038V18.827C36.4396 19.1204 36.6941 19.4135 37.0337 19.4135ZM43.4448 15.8943V17.4445C43.4448 18.7433 42.5541 19.5393 41.0676 19.5393C39.6241 19.5393 38.6896 18.7433 38.6896 17.4445V15.8943C38.6896 14.5956 39.582 13.7996 41.0676 13.7996C42.5541 13.7996 43.4448 14.5958 43.4448 15.8943ZM41.9592 15.8943C41.9592 15.3915 41.6626 15.0564 41.1097 15.0564C40.5578 15.0564 40.2612 15.3495 40.2612 15.8943V17.4445C40.2612 17.9473 40.5578 18.2405 41.1097 18.2405C41.6626 18.2405 41.9592 17.9473 41.9592 17.4445V15.8943ZM32.4908 15.1823C32.4908 16.5231 31.472 17.4447 30.1127 17.4447C29.7731 17.4447 29.4757 17.4028 29.1791 17.277V19.1623C29.1791 19.2881 29.0518 19.4138 28.9246 19.4138H27.9471C27.8207 19.4138 27.6926 19.2881 27.6926 19.1623V12.501C27.6926 12.3334 27.8207 12.2079 27.9471 12.1659C28.5841 11.9565 29.2212 11.8308 29.9004 11.8308C31.429 11.8308 32.4899 12.7524 32.4899 14.1769L32.4908 15.1823ZM30.9622 14.093C30.9622 13.4227 30.4953 13.0876 29.8583 13.0876C29.4765 13.0876 29.2212 13.2133 29.2212 13.2133V15.9783C29.4765 16.1039 29.6038 16.1459 29.9004 16.1459C30.5375 16.1459 31.0043 15.7688 31.0043 15.1406V14.0932L30.9622 14.093ZM59.9201 15.1823C59.9201 16.5231 58.9004 17.4447 57.542 17.4447C57.2024 17.4447 56.905 17.4028 56.6075 17.277V19.1623C56.6075 19.2881 56.4811 19.4138 56.353 19.4138H55.3763C55.2491 19.4138 55.1219 19.2881 55.1219 19.1623V12.501C55.1219 12.3334 55.2491 12.2079 55.3763 12.1659C56.0134 11.9565 56.6505 11.8308 57.3297 11.8308C58.8574 11.8308 59.9192 12.7524 59.9192 14.1769L59.9201 15.1823ZM58.3915 14.093C58.3915 13.4227 57.9246 13.0876 57.2876 13.0876C56.905 13.0876 56.6505 13.2133 56.6505 13.2133V15.9783C56.905 16.1039 57.0331 16.1459 57.3297 16.1459C57.9668 16.1459 58.4336 15.7688 58.4336 15.1406V14.0932L58.3915 14.093Z" fill="#5F259F"/>
<path d="M16.6001 21.9995C20.7974 21.9995 24.2003 18.642 24.2003 14.5003C24.2003 10.3585 20.7974 7.00098 16.6001 7.00098C12.4029 7.00098 9 10.3585 9 14.5003C9 18.642 12.4029 21.9995 16.6001 21.9995Z" fill="#5F259F"/>
<path d="M20.0495 12.5423C20.0495 12.2492 19.795 11.9978 19.4975 11.9978H18.4787L16.1436 9.35849C15.9313 9.10708 15.5917 9.02335 15.2521 9.10708L14.4456 9.35849C14.3184 9.40046 14.2754 9.56792 14.3605 9.65165L16.908 12.0398H13.0434C12.9162 12.0398 12.8319 12.1235 12.8319 12.2492V12.6681C12.8319 12.9612 13.0864 13.2126 13.3839 13.2126H13.978V15.2237C13.978 16.7319 14.7844 17.6118 16.1428 17.6118C16.5684 17.6118 16.908 17.5697 17.3327 17.4023V18.7431C17.3327 19.1202 17.6293 19.4133 18.0119 19.4133H18.606C18.7332 19.4133 18.8604 19.2876 18.8604 19.1619V13.1708H19.8371C19.9652 13.1708 20.0495 13.0871 20.0495 12.9614V12.5423ZM17.3327 16.1453C17.0782 16.271 16.7377 16.313 16.4833 16.313C15.8041 16.313 15.4644 15.9779 15.4644 15.2237V13.2126H17.3327V16.1453Z" fill="white"/>
</g>
</svg>
