<svg width="25" height="25" viewBox="0 0 25 25" fill="none" xmlns="http://www.w3.org/2000/svg">
<path d="M12.4975 10.3975C7.0898 10.3975 2.2323 10.5448 2.2323 10.5448C2.14817 10.5464 2.06762 10.579 2.00605 10.6364C1.94449 10.6937 1.90624 10.7718 1.89864 10.8556C1.81394 11.7763 1.51711 14.8454 1.53994 16.1992C1.57898 18.2741 1.77417 19.7928 1.97377 20.905C2.32068 22.7464 3.98306 24.341 5.79496 24.6231C6.89462 24.8035 10.4595 25.0179 12.4975 24.9987C14.5355 25.0179 18.1004 24.8035 19.2001 24.6231C21.012 24.341 22.6743 22.7464 23.0213 20.905C23.2216 19.7928 23.4168 18.2741 23.4558 16.1992C23.4779 14.8454 23.1325 11.7763 23.0478 10.8556C23.0402 10.7718 23.0019 10.6937 22.9404 10.6364C22.8788 10.579 22.7982 10.5464 22.7141 10.5448C22.7141 10.5448 17.9052 10.3975 12.4975 10.3975Z" fill="url(#paint0_linear_1_2664)"/>
<path d="M15.3806 15.3642C13.8913 17.6895 12.3262 20.0346 10.9054 22.3106C10.8608 22.3828 10.8013 22.4446 10.7308 22.4919C10.6603 22.5392 10.5806 22.5709 10.4969 22.5848C10.4132 22.5988 10.3275 22.5947 10.2455 22.5728C10.1635 22.5509 10.0871 22.5117 10.0215 22.4579C9.87679 22.3489 9.77732 22.1903 9.74213 22.0126C9.70694 21.8349 9.73849 21.6504 9.83075 21.4945C11.2574 19.2333 12.8285 16.8911 14.3237 14.5584C14.3831 14.4704 14.4624 14.3975 14.5551 14.3457C14.6479 14.2939 14.7515 14.2646 14.8577 14.2601C15.3696 14.2623 15.6789 14.9024 15.3806 15.3642ZM11.1381 17.9053C10.8499 18.2074 10.4764 18.4144 10.0674 18.4984C9.65838 18.5825 9.23348 18.5396 8.84951 18.3756C8.46554 18.2115 8.14082 17.9342 7.9188 17.5805C7.69677 17.2269 7.58803 16.8139 7.60713 16.3968C7.62366 15.8153 7.86808 15.2635 8.28769 14.8604C8.71783 14.4288 9.20985 14.1975 9.76078 14.1806C10.0279 14.1683 10.2944 14.2163 10.5404 14.321C10.7865 14.4257 11.0059 14.5844 11.1823 14.7853C11.3768 14.9917 11.5282 15.2348 11.6277 15.5004C11.7272 15.7659 11.7729 16.0486 11.762 16.332C11.7556 16.9605 11.5476 17.485 11.1381 17.9053ZM10.4274 16.3475C10.4412 16.1289 10.3715 15.9133 10.2322 15.7443C10.1688 15.6685 10.0887 15.6085 9.99825 15.569C9.90775 15.5295 9.80931 15.5116 9.71069 15.5167C9.60797 15.5177 9.50661 15.5403 9.41321 15.583C9.3198 15.6258 9.23646 15.6878 9.1686 15.7649C9.0169 15.93 8.93278 16.1461 8.9329 16.3703C8.91502 16.596 8.98524 16.8199 9.12883 16.9949C9.198 17.0692 9.28201 17.1281 9.37541 17.1677C9.46881 17.2074 9.5695 17.227 9.67097 17.2253C9.77244 17.2236 9.87241 17.2005 9.96439 17.1577C10.0564 17.1148 10.1383 17.0531 10.2049 16.9765C10.3521 16.8003 10.431 16.5771 10.4274 16.3475ZM17.3892 20.8721C17.3959 21.4611 17.1701 22.029 16.7609 22.4527C16.575 22.6571 16.3482 22.82 16.0951 22.9308C15.8421 23.0416 15.5685 23.0978 15.2922 23.0957C14.728 23.0957 14.2478 22.8806 13.8457 22.452C13.4438 22.027 13.2235 21.4621 13.2314 20.8772C13.2229 20.5889 13.2727 20.3018 13.3777 20.0331C13.4828 19.7644 13.6409 19.5197 13.8427 19.3136C14.2552 18.8849 14.7457 18.6661 15.3121 18.6661C15.5894 18.6636 15.8641 18.72 16.118 18.8314C16.372 18.9429 16.5994 19.107 16.7852 19.3128C16.9856 19.5187 17.1423 19.763 17.2461 20.0309C17.3499 20.2988 17.3985 20.5849 17.3892 20.8721ZM16.0509 20.8802C16.0607 20.6567 15.9866 20.4376 15.8432 20.2659C15.7761 20.1903 15.6938 20.1297 15.6016 20.0882C15.5094 20.0467 15.4095 20.0253 15.3084 20.0253C15.2073 20.0253 15.1074 20.0467 15.0152 20.0882C14.9231 20.1297 14.8407 20.1903 14.7737 20.2659C14.6256 20.4357 14.5484 20.6558 14.5579 20.8809C14.5465 21.1134 14.6215 21.342 14.7685 21.5225C14.8348 21.6004 14.9177 21.6626 15.0111 21.7043C15.1045 21.746 15.2062 21.7661 15.3084 21.7633C15.4098 21.7648 15.5102 21.7432 15.602 21.7C15.6938 21.6569 15.7745 21.5934 15.838 21.5144C15.9834 21.3357 16.059 21.1104 16.0509 20.8802Z" fill="url(#paint1_linear_1_2664)"/>
<path d="M23.811 11.3138C23.9163 11.3201 24.022 11.3112 24.1248 11.2873C24.6403 11.1599 24.9968 10.74 24.9946 10.2134C24.9882 9.68811 24.9495 9.16369 24.879 8.64311C24.8154 8.11212 24.722 7.58515 24.5991 7.06469C24.5107 6.74871 24.3377 6.46282 24.0989 6.23779C23.8602 6.01275 23.5645 5.85708 23.2439 5.78753C23.0582 5.75364 20.6144 5.49733 18.1006 5.36843C18.4548 5.03584 18.7256 4.6245 18.8912 4.16774C19.0568 3.71097 19.1125 3.22162 19.0538 2.73932C18.995 2.25703 18.8235 1.79535 18.5531 1.39169C18.2827 0.988025 17.921 0.653731 17.4973 0.415883C17.0737 0.178036 16.6 0.0433242 16.1145 0.0226603C15.6291 0.00199634 15.1457 0.0959614 14.7033 0.296944C14.261 0.497926 13.8722 0.800273 13.5685 1.17949C13.2647 1.55872 13.0546 2.00415 12.9551 2.47971L12.4866 5.11801L12.0263 2.49738V2.47971C11.9288 2.00142 11.7197 1.55294 11.416 1.1708C11.1123 0.788652 10.7226 0.483658 10.2787 0.280664C9.83482 0.0776692 9.34924 -0.0175829 8.86154 0.00266821C8.37384 0.0229193 7.89782 0.1581 7.47227 0.397198C7.04672 0.636295 6.68368 0.972545 6.41272 1.37855C6.14176 1.78456 5.97055 2.24883 5.91304 2.73355C5.85552 3.21827 5.91334 3.70972 6.08177 4.16786C6.2502 4.626 6.52448 5.03787 6.88227 5.3699C4.37802 5.4988 1.94742 5.75364 1.75813 5.78753C1.43622 5.85592 1.13915 6.01108 0.899099 6.2362C0.659047 6.46132 0.485157 6.74783 0.39626 7.06469C0.273045 7.58512 0.179355 8.1121 0.115637 8.64311C0.045454 9.16373 0.0068377 9.68813 0 10.2134C0 10.7423 0.358697 11.1628 0.875014 11.288C0.973429 11.3111 1.07457 11.3202 1.17552 11.3153C2.05348 11.2844 7.84935 11.0877 13.2313 11.0877C18.5322 11.0877 23.0251 11.2785 23.811 11.3138ZM15.9926 1.38815C16.417 1.38837 16.8263 1.54592 17.1413 1.83035C17.4563 2.11477 17.6547 2.50588 17.6981 2.92807C17.7415 3.35026 17.6269 3.77355 17.3763 4.11614C17.1258 4.45873 16.7572 4.69628 16.3417 4.78288L13.8735 5.21965L14.3096 2.74854C14.3923 2.36353 14.6044 2.0185 14.9107 1.77095C15.2169 1.5234 15.5988 1.38829 15.9926 1.38815ZM8.98289 1.38815C9.37625 1.38869 9.75754 1.52401 10.0632 1.77155C10.3689 2.01909 10.5806 2.3639 10.6629 2.74854L11.1049 5.21965L8.63671 4.78288C8.22123 4.69628 7.8526 4.45873 7.60207 4.11614C7.35154 3.77355 7.23691 3.35026 7.28033 2.92807C7.32375 2.50588 7.52213 2.11477 7.83714 1.83035C8.15215 1.54592 8.56142 1.38837 8.98584 1.38815H8.98289Z" fill="url(#paint2_linear_1_2664)"/>
<path d="M13.2195 5.24536C11.0489 5.24536 6.8749 5.36984 6.8749 5.36984C4.37065 5.49873 1.94006 5.75358 1.75076 5.78746C1.4302 5.85706 1.13468 6.01275 0.896014 6.23779C0.657346 6.46284 0.484563 6.7487 0.39626 7.06462C0.273045 7.58505 0.179355 8.11203 0.115637 8.64304C0.045454 9.16366 0.0068377 9.68806 0 10.2134C0 10.7422 0.358697 11.1628 0.875014 11.288C0.973429 11.311 1.07457 11.3202 1.17552 11.3152C2.05348 11.2843 7.84935 11.0876 13.2313 11.0876C18.5344 11.0876 23.0273 11.2784 23.8117 11.3137C23.917 11.3201 24.0227 11.3111 24.1255 11.2872C24.6411 11.1598 24.9976 10.74 24.9954 10.2134C24.9889 9.68804 24.9503 9.16362 24.8797 8.64304C24.8162 8.11206 24.7227 7.58508 24.5998 7.06462C24.5114 6.74864 24.3385 6.46276 24.0997 6.23772C23.8609 6.01268 23.5653 5.85701 23.2446 5.78746C23.059 5.75358 20.6151 5.49726 18.1013 5.36836C18.1013 5.36836 15.3901 5.24536 13.2195 5.24536Z" fill="url(#paint3_linear_1_2664)"/>
<defs>
<linearGradient id="paint0_linear_1_2664" x1="20.5774" y1="24.433" x2="4.39332" y2="8.2497" gradientUnits="userSpaceOnUse">
<stop stop-color="#6F2EFE"/>
<stop offset="0.52" stop-color="#6F2EFE"/>
<stop offset="1" stop-color="#AE90FF"/>
</linearGradient>
<linearGradient id="paint1_linear_1_2664" x1="16.7057" y1="22.5094" x2="8.6729" y2="14.4767" gradientUnits="userSpaceOnUse">
<stop stop-color="#E0DCFF"/>
<stop offset="0.57" stop-color="white"/>
<stop offset="1" stop-color="white"/>
</linearGradient>
<linearGradient id="paint2_linear_1_2664" x1="12.5264" y1="8.92741" x2="6.1634" y2="2.56441" gradientUnits="userSpaceOnUse">
<stop stop-color="#FE7838"/>
<stop offset="0.54" stop-color="#FE7636"/>
<stop offset="1" stop-color="#FFAD8A"/>
</linearGradient>
<linearGradient id="paint3_linear_1_2664" x1="12.5264" y1="8.92734" x2="6.1634" y2="2.56434" gradientUnits="userSpaceOnUse">
<stop stop-color="#FE7838"/>
<stop offset="0.54" stop-color="#FE7636"/>
<stop offset="1" stop-color="#FFAD8A"/>
</linearGradient>
</defs>
</svg>
