<svg width="147" height="158" viewBox="0 0 147 158" fill="none" xmlns="http://www.w3.org/2000/svg">
<path d="M21.2859 67.1753C26.1496 70.9158 36.6503 80.1577 42.6219 74.8532C45.9845 71.8662 41.8526 67.6548 37.703 68.2031C34.1423 68.6736 28.696 73.2772 30.7636 77.3263C35.2332 86.0795 44.7663 91.1947 53.2452 95.7202C65.6243 102.327 81.6796 105.982 94.9656 104.065C100.127 103.32 119.84 97.7785 111.266 88.7689C97.6697 74.4822 76.8829 87.8268 73.2357 101.379C71.7074 107.058 74.7575 114.718 78.5694 119.65C82.7803 125.098 93.7342 129.529 99.6312 126.092C104.481 123.264 98.1488 119.949 94.3753 121.22C88.842 123.084 89.6829 129.361 93.4426 133.272C99.5955 139.674 107.925 141.727 116.231 142.211C118.682 142.353 124.4 141.901 126.5 140.793C128.409 139.785 127.382 140.575 126.095 141.254C124.89 141.891 124.593 143.456 123.575 144.36C123.217 144.678 124.95 142.22 125.61 141.634C128.747 138.848 121.734 136.661 119.517 135.109" stroke="#1C1C1C" stroke-width="3" stroke-linecap="round"/>
<path d="M9.81971 -40.2149C12.9846 -43.9284 19.3321 -43.9284 22.4971 -40.2149L31.846 -29.2437C34.0351 -26.6753 37.9465 -25.7564 41.3066 -27.0213L55.6597 -32.424C60.5179 -34.2528 66.0162 -31.4698 66.6386 -26.8666L68.4787 -13.2666C68.9095 -10.0828 71.7729 -7.57258 75.4038 -7.19488L90.9157 -5.58158C96.166 -5.03553 99.3398 -0.215275 97.2544 4.04422L91.0915 16.6288C89.6497 19.5749 90.6976 23.004 93.627 24.923L106.14 33.1201C110.376 35.8946 110.376 41.4605 106.14 44.235L93.627 52.4321C90.6976 54.3511 89.6497 57.7802 91.0915 60.7263L97.2544 73.3109C99.3398 77.5704 96.166 82.3906 90.9157 82.9367L75.4038 84.55C71.7729 84.9277 68.9095 87.4379 68.4787 90.6217L66.6386 104.222C66.0162 108.825 60.5179 111.608 55.6597 109.779L41.3066 104.376C37.9465 103.111 34.0351 104.03 31.846 106.599L22.4971 117.57C19.3321 121.284 12.9846 121.284 9.81971 117.57L0.470406 106.599C-1.71834 104.03 -5.62944 103.111 -8.98967 104.376L-23.3431 109.779C-28.2014 111.608 -33.6992 108.825 -34.322 104.222L-36.162 90.6217C-36.5928 87.4379 -39.4559 84.9277 -43.0872 84.55L-58.5989 82.9367C-63.849 82.3906 -67.0232 77.5704 -64.9374 73.3109L-58.7753 60.7263C-57.3326 57.7802 -58.3806 54.3511 -61.31 52.4321L-73.8234 44.235C-78.0588 41.4605 -78.0589 35.8946 -73.8235 33.1201L-61.31 24.923C-58.3806 23.004 -57.3326 19.5749 -58.7753 16.6288L-64.9374 4.04422C-67.0232 -0.215275 -63.849 -5.03553 -58.5989 -5.58158L-43.0872 -7.19488C-39.4559 -7.57258 -36.5928 -10.0828 -36.162 -13.2666L-34.322 -26.8666C-33.6992 -31.4698 -28.2014 -34.2528 -23.3431 -32.424L-8.98967 -27.0213C-5.62944 -25.7564 -1.71834 -26.6753 0.470406 -29.2437L9.81971 -40.2149Z" fill="#FE7636"/>
<path d="M9.8196 -27.8819C12.9845 -31.5954 19.332 -31.5954 22.497 -27.8819L29.0722 -20.1661C31.2604 -17.5977 35.1718 -16.6789 38.5319 -17.9437L48.6264 -21.7433C53.4846 -23.5721 58.9828 -20.7891 59.6053 -16.1859L60.8994 -6.62143C61.3302 -3.4376 64.1936 -0.927299 67.8245 -0.549603L78.7331 0.584953C83.9834 1.13099 87.1581 5.95125 85.0718 10.2107L80.7384 19.0611C79.2957 22.0072 80.3437 25.4363 83.273 27.3553L92.0734 33.1202C96.3092 35.8946 96.3092 41.4605 92.0734 44.2351L83.273 49.9999C80.3437 51.9189 79.2957 55.348 80.7384 58.2941L85.0718 67.1445C87.1581 71.4039 83.9834 76.2242 78.7331 76.7702L67.8245 77.9048C64.1936 78.2825 61.3302 80.7928 60.8994 83.9766L59.6053 93.5412C58.9828 98.1443 53.4846 100.927 48.6264 99.0985L38.5319 95.2989C35.1718 94.0341 31.2604 94.9529 29.0722 97.5213L22.497 105.237C19.332 108.951 12.9845 108.951 9.8196 105.237L3.24448 97.5213C1.05574 94.9529 -2.85537 94.0341 -6.2156 95.2989L-16.31 99.0985C-21.1682 100.927 -26.666 98.1443 -27.2888 93.5412L-28.5828 83.9766C-29.0136 80.7928 -31.8768 78.2825 -35.5081 77.9048L-46.4171 76.7702C-51.6672 76.2242 -54.8414 71.4039 -52.7556 67.1445L-48.4219 58.2941C-46.9793 55.348 -48.0272 51.9189 -50.9567 49.9999L-59.757 44.2351C-63.9924 41.4605 -63.9924 35.8946 -59.757 33.1202L-50.9567 27.3553C-48.0272 25.4363 -46.9793 22.0072 -48.4219 19.0611L-52.7556 10.2107C-54.8414 5.95125 -51.6672 1.13099 -46.4171 0.584953L-35.5081 -0.549603C-31.8768 -0.927299 -29.0136 -3.4376 -28.5828 -6.62143L-27.2888 -16.1859C-26.666 -20.7891 -21.1682 -23.5721 -16.31 -21.7433L-6.2156 -17.9437C-2.85537 -16.6789 1.05574 -17.5977 3.24448 -20.1661L9.8196 -27.8819Z" fill="url(#paint0_linear_1_2428)"/>
<path d="M51.2672 18.4936L47.2054 20.0914L25.5649 28.6008L14.9327 32.7838C14.227 33.063 13.6265 33.4701 13.1396 33.9615C11.8899 35.2258 11.4339 37.0324 12.1641 38.585L14.4219 43.3465L18.1016 51.113L25.5756 66.8704C26.08 67.9287 27.8692 67.5072 27.9405 66.3131L28.1087 63.5489L28.1164 63.5457L28.5347 56.4656L29.0217 48.3129L29.3323 43.0964C29.3414 41.9167 29.8907 40.7527 30.8513 39.888L32.86 38.0651L49.9644 22.5777L52.4977 20.2875C53.4856 19.3911 52.5319 17.9975 51.2672 18.4936Z" fill="white"/>
<path d="M12.6641 33.4237C11.3814 34.7169 10.9098 36.5626 11.6534 38.1466L13.9527 43.0047L21.0335 40.9674L12.6641 33.4237Z" fill="#E4E4E4"/>
<path d="M25.0253 28.2569L14.2724 32.4882C13.559 32.7706 12.9516 33.1819 12.4587 33.678L20.7136 41.1301L25.0253 28.2569Z" fill="white"/>
<path d="M14.3465 42.9318L18.0275 50.7207L21.2925 40.94L14.3465 42.9318Z" fill="#E5E5E5"/>
<path d="M51.2557 18.8281L47.1717 20.4373L25.4129 29.0077L21.1346 41.8305L32.7249 38.4995L49.9391 22.9297L52.4887 20.6274C53.483 19.7261 52.5273 18.3284 51.2557 18.8281Z" fill="#D8D8D8"/>
<path d="M28.5398 66.2271L29.6372 48.2183L29.9525 42.9994C29.9626 41.8191 30.513 40.6543 31.4743 39.7885L33.4846 37.9636L21.9576 41.2773L18.7202 51.0282L26.1797 66.7878C26.6754 67.8496 28.4674 67.4217 28.5398 66.2271Z" fill="white"/>
<path d="M19.7663 52.4307L29.5874 56.1724L29.164 63.399L25.8227 65.1576L19.7663 52.4307Z" fill="url(#paint1_linear_1_2428)"/>
<defs>
<linearGradient id="paint0_linear_1_2428" x1="-5.67565" y1="5.17711" x2="54.9971" y2="90.5368" gradientUnits="userSpaceOnUse">
<stop stop-color="#AC8DFF"/>
<stop offset="1" stop-color="#6F2EFE"/>
</linearGradient>
<linearGradient id="paint1_linear_1_2428" x1="26.6427" y1="62.9449" x2="22.9099" y2="48.7752" gradientUnits="userSpaceOnUse">
<stop offset="0.3334" stop-color="#CACACA"/>
<stop offset="0.8783" stop-color="#8B8B8B"/>
</linearGradient>
</defs>
</svg>
