<svg width="26" height="26" viewBox="0 0 26 26" fill="none" xmlns="http://www.w3.org/2000/svg">
<circle cx="13" cy="13" r="13" fill="#E2FE97"/>
<path d="M16.2177 6.2422L15.4413 6.97572L11.2923 10.8803L9.25552 12.7986C9.1194 12.9246 9.02361 13.0784 8.96564 13.2397C8.81187 13.6581 8.90766 14.1446 9.25552 14.4723L10.3243 15.473L12.0661 17.1039L15.6027 20.4136C15.8396 20.6354 16.2152 20.3834 16.0967 20.0784L15.8245 19.3751L15.827 19.3726L15.1288 17.5753L14.3272 15.5033L13.813 14.1774C13.6819 13.8825 13.6819 13.5472 13.8104 13.2523L14.0802 12.6322L16.3715 7.36391L16.7118 6.58249C16.8403 6.28253 16.4597 6.01281 16.2177 6.2422Z" fill="#606060"/>
<path d="M8.96564 13.2422C8.81187 13.6606 8.90766 14.1471 9.25552 14.4748L10.3243 15.4755L11.7309 14.4118L8.96564 13.2422Z" fill="#353535"/>
<path d="M11.2923 10.8789L9.25558 12.7972C9.11946 12.9232 9.02367 13.077 8.9657 13.2383L11.7309 14.4079L11.2923 10.8789Z" fill="#3B3A3A"/>
<path d="M10.3243 15.4739L12.0661 17.1048L11.7308 14.4102L10.3243 15.4739Z" fill="#565151"/>
<path d="M16.2177 6.24211L15.4413 6.97563L11.2922 10.8802L11.7308 14.4092L14.0776 12.6371L16.3689 7.36886L16.7092 6.58744C16.8403 6.28244 16.4597 6.01272 16.2177 6.24211Z" fill="black"/>
<path d="M16.0969 20.0809L14.3248 15.5059L13.8106 14.18C13.6795 13.885 13.6795 13.5498 13.8081 13.2549L14.0778 12.6348L11.731 14.4068L12.0663 17.1015L15.6028 20.4111C15.8398 20.638 16.2154 20.3834 16.0969 20.0809Z" fill="#686868"/>
<path d="M12.4546 17.457L15.1291 17.5805L15.8273 19.3778L15.2526 20.0786L12.4546 17.457Z" fill="url(#paint0_linear_336_16904)"/>
<defs>
<linearGradient id="paint0_linear_336_16904" x1="15.1973" y1="19.4711" x2="12.8718" y2="16.2421" gradientUnits="userSpaceOnUse">
<stop offset="0.3334" stop-color="#3F3E3E"/>
<stop offset="0.8783"/>
</linearGradient>
</defs>
</svg>
