<svg width="73" height="30" viewBox="0 0 73 30" fill="none" xmlns="http://www.w3.org/2000/svg">
<g clip-path="url(#clip0_476_306)">
<path fill-rule="evenodd" clip-rule="evenodd" d="M72.9962 15.4964C72.9962 10.371 70.4819 6.32666 65.6763 6.32666C60.8505 6.32666 57.9307 10.371 57.9307 15.4564C57.9307 21.4828 61.3777 24.5261 66.3252 24.5261C68.7381 24.5261 70.563 23.9855 71.9418 23.2247V19.2204C70.563 19.9011 68.9814 20.3216 66.974 20.3216C65.0072 20.3216 63.2634 19.6409 63.0404 17.2783H72.9557C72.9557 17.0181 72.9962 15.977 72.9962 15.4964ZM62.9795 13.5944C62.9795 11.332 64.3786 10.391 65.6561 10.391C66.8929 10.391 68.2109 11.332 68.2109 13.5944H62.9795Z" fill="#635BFF"/>
<path fill-rule="evenodd" clip-rule="evenodd" d="M50.104 6.32666C48.1168 6.32666 46.8394 7.24764 46.1297 7.88833L45.8661 6.647H41.4053V29.9919L46.4744 28.9308L46.4947 23.2647C47.2247 23.7853 48.2993 24.5261 50.0837 24.5261C53.7132 24.5261 57.0183 21.643 57.0183 15.2962C56.998 9.49003 53.6524 6.32666 50.104 6.32666ZM48.8874 20.1214C47.691 20.1214 46.9813 19.7009 46.4947 19.1804L46.4744 11.7524C47.0016 11.1718 47.7316 10.7714 48.8874 10.7714C50.7325 10.7714 52.01 12.8136 52.01 15.4364C52.01 18.1192 50.7528 20.1214 48.8874 20.1214Z" fill="#635BFF"/>
<path fill-rule="evenodd" clip-rule="evenodd" d="M34.4297 5.14549L39.5191 4.06434V0L34.4297 1.06113V5.14549Z" fill="#635BFF"/>
<path d="M39.5191 6.66699H34.4297V24.1857H39.5191V6.66699Z" fill="#635BFF"/>
<path fill-rule="evenodd" clip-rule="evenodd" d="M28.9757 8.14874L28.6512 6.66716H24.2715V24.1858H29.3406V12.3132C30.537 10.7715 32.5646 11.0518 33.1932 11.2721V6.66716C32.5444 6.4269 30.172 5.98643 28.9757 8.14874Z" fill="#635BFF"/>
<path fill-rule="evenodd" clip-rule="evenodd" d="M18.8369 2.32251L13.8894 3.36362L13.8691 19.4007C13.8691 22.3639 16.1198 24.5462 19.1208 24.5462C20.7835 24.5462 22.0001 24.2459 22.6692 23.8855V19.8212C22.0204 20.0815 18.8166 21.0024 18.8166 18.0393V10.9317H22.6692V6.66715H18.8166L18.8369 2.32251Z" fill="#635BFF"/>
<path fill-rule="evenodd" clip-rule="evenodd" d="M5.12999 11.7524C5.12999 10.9716 5.77885 10.6713 6.85351 10.6713C8.39454 10.6713 10.3411 11.1318 11.8821 11.9527V7.24764C10.1992 6.58694 8.53647 6.32666 6.85351 6.32666C2.73735 6.32666 0 8.44892 0 11.9927C0 17.5186 7.70513 16.6377 7.70513 19.0202C7.70513 19.9412 6.89406 20.2415 5.75857 20.2415C4.07561 20.2415 1.92628 19.5608 0.223043 18.6398V23.4049C2.10877 24.2057 4.01478 24.5461 5.75857 24.5461C9.97611 24.5461 12.8757 22.4839 12.8757 18.9001C12.8554 12.9337 5.12999 13.9948 5.12999 11.7524Z" fill="#635BFF"/>
</g>
<defs>
<clipPath id="clip0_476_306">
<rect width="73" height="30" fill="white"/>
</clipPath>
</defs>
</svg>
