<svg width="218" height="224" viewBox="0 0 218 224" fill="none" xmlns="http://www.w3.org/2000/svg">
<circle cx="108.693" cy="108.693" r="108.693" fill="url(#paint0_linear_416_3053)"/>
<circle cx="203.946" cy="70.4098" r="4.50546" stroke="#DE350B" stroke-width="4"/>
<circle cx="198.806" cy="136.82" r="3.18885" stroke="#DE350B" stroke-width="4"/>
<g filter="url(#filter0_f_416_3053)">
<circle cx="135.672" cy="195.49" r="6.50546" fill="#DE350B"/>
</g>
<g filter="url(#filter1_f_416_3053)">
<path d="M72.5762 195.539L75.8795 204.466L84.8065 207.769L75.8795 211.073L72.5762 220L69.2729 211.073L60.3459 207.769L69.2729 204.466L72.5762 195.539Z" fill="#DE350B"/>
</g>
<path d="M150.835 22.4087C153.065 23.0065 153.812 25.7948 152.179 27.4278L149.494 30.1136C147.861 31.7466 145.072 30.9994 144.475 28.7687L143.491 25.0999C142.894 22.8692 144.935 20.828 147.166 21.4257L150.835 22.4087Z" fill="#DE350B"/>
<g filter="url(#filter2_f_416_3053)">
<path d="M27.7306 51.3438L29.6906 56.6406L34.9874 58.6006L29.6906 60.5606L27.7306 65.8574L25.7706 60.5606L20.4738 58.6006L25.7706 56.6406L27.7306 51.3438Z" fill="#DE350B"/>
</g>
<circle cx="20.527" cy="122.4" r="3.51519" stroke="#DE350B" stroke-width="4"/>
<path d="M10.4132 142.01L13.1542 149.417L20.5617 152.158L13.1542 154.899L10.4132 162.307L7.67215 154.899L0.264648 152.158L7.67215 149.417L10.4132 142.01Z" fill="#DE350B"/>
<rect x="43.9601" y="89.5762" width="129.994" height="38.2336" rx="14" fill="url(#paint1_linear_416_3053)" fill-opacity="0.5"/>
<circle cx="60.0729" cy="108.419" r="5.18885" fill="white"/>
<rect x="70.1774" y="103.777" width="69.9129" height="9.8315" rx="4.91575" fill="url(#paint2_linear_416_3053)"/>
<rect x="43.9601" y="137.094" width="129.994" height="38.2336" rx="14" fill="url(#paint3_linear_416_3053)"/>
<circle cx="60.0729" cy="155.939" r="5.18885" fill="white"/>
<rect x="70.1774" y="151.295" width="69.9129" height="9.8315" rx="4.91575" fill="url(#paint4_linear_416_3053)"/>
<rect x="43.9601" y="42.0586" width="129.994" height="38.2336" rx="14" fill="url(#paint5_linear_416_3053)" fill-opacity="0.5"/>
<circle cx="60.0729" cy="60.9017" r="5.18885" fill="white"/>
<rect x="70.1774" y="56.2598" width="69.9129" height="9.8315" rx="4.91575" fill="url(#paint6_linear_416_3053)"/>
<g filter="url(#filter3_f_416_3053)">
<circle cx="160.908" cy="131.489" r="20.8175" fill="#DE350B"/>
</g>
<circle cx="161" cy="127" r="28" fill="#DE350B"/>
<g filter="url(#filter4_d_416_3053)">
<path d="M148.648 114.912C150.256 113.304 152.864 113.304 154.473 114.912L172.557 132.996C173.952 134.392 173.952 136.655 172.557 138.051V138.051C170.882 139.726 168.166 139.726 166.491 138.051L148.648 120.208C147.185 118.746 147.185 116.375 148.648 114.912V114.912Z" fill="url(#paint7_linear_416_3053)"/>
</g>
<rect x="151.718" y="112.158" width="33.0443" height="7.51376" rx="3.82005" transform="rotate(45 151.718 112.158)" fill="url(#paint8_linear_416_3053)"/>
<g filter="url(#filter5_d_416_3053)">
<path d="M148.912 138.438C147.304 136.829 147.304 134.221 148.912 132.613L166.996 114.529C168.392 113.133 170.655 113.133 172.051 114.529V114.529C173.726 116.204 173.726 118.92 172.051 120.595L154.208 138.438C152.746 139.9 150.375 139.9 148.912 138.438V138.438Z" fill="url(#paint9_linear_416_3053)"/>
</g>
<rect x="146.158" y="135.367" width="33.0443" height="7.51376" rx="3.82005" transform="rotate(-45 146.158 135.367)" fill="url(#paint10_linear_416_3053)"/>
<defs>
<filter id="filter0_f_416_3053" x="125.167" y="184.984" width="21.011" height="21.0117" filterUnits="userSpaceOnUse" color-interpolation-filters="sRGB">
<feFlood flood-opacity="0" result="BackgroundImageFix"/>
<feBlend mode="normal" in="SourceGraphic" in2="BackgroundImageFix" result="shape"/>
<feGaussianBlur stdDeviation="2" result="effect1_foregroundBlur_416_3053"/>
</filter>
<filter id="filter1_f_416_3053" x="56.3459" y="191.539" width="32.4606" height="32.4609" filterUnits="userSpaceOnUse" color-interpolation-filters="sRGB">
<feFlood flood-opacity="0" result="BackgroundImageFix"/>
<feBlend mode="normal" in="SourceGraphic" in2="BackgroundImageFix" result="shape"/>
<feGaussianBlur stdDeviation="2" result="effect1_foregroundBlur_416_3053"/>
</filter>
<filter id="filter2_f_416_3053" x="16.4738" y="47.3438" width="22.5137" height="22.5137" filterUnits="userSpaceOnUse" color-interpolation-filters="sRGB">
<feFlood flood-opacity="0" result="BackgroundImageFix"/>
<feBlend mode="normal" in="SourceGraphic" in2="BackgroundImageFix" result="shape"/>
<feGaussianBlur stdDeviation="2" result="effect1_foregroundBlur_416_3053"/>
</filter>
<filter id="filter3_f_416_3053" x="110.09" y="80.6719" width="101.635" height="101.635" filterUnits="userSpaceOnUse" color-interpolation-filters="sRGB">
<feFlood flood-opacity="0" result="BackgroundImageFix"/>
<feBlend mode="normal" in="SourceGraphic" in2="BackgroundImageFix" result="shape"/>
<feGaussianBlur stdDeviation="15" result="effect1_foregroundBlur_416_3053"/>
</filter>
<filter id="filter4_d_416_3053" x="137.551" y="107.707" width="46.0524" height="45.5996" filterUnits="userSpaceOnUse" color-interpolation-filters="sRGB">
<feFlood flood-opacity="0" result="BackgroundImageFix"/>
<feColorMatrix in="SourceAlpha" type="matrix" values="0 0 0 0 0 0 0 0 0 0 0 0 0 0 0 0 0 0 127 0" result="hardAlpha"/>
<feOffset dy="4"/>
<feGaussianBlur stdDeviation="5"/>
<feComposite in2="hardAlpha" operator="out"/>
<feColorMatrix type="matrix" values="0 0 0 0 0.8125 0 0 0 0 0.176108 0 0 0 0 0 0 0 0 1 0"/>
<feBlend mode="normal" in2="BackgroundImageFix" result="effect1_dropShadow_416_3053"/>
<feBlend mode="normal" in="SourceGraphic" in2="effect1_dropShadow_416_3053" result="shape"/>
</filter>
<filter id="filter5_d_416_3053" x="142.706" y="112.482" width="35.6012" height="36.0527" filterUnits="userSpaceOnUse" color-interpolation-filters="sRGB">
<feFlood flood-opacity="0" result="BackgroundImageFix"/>
<feColorMatrix in="SourceAlpha" type="matrix" values="0 0 0 0 0 0 0 0 0 0 0 0 0 0 0 0 0 0 127 0" result="hardAlpha"/>
<feOffset dy="4"/>
<feGaussianBlur stdDeviation="2.5"/>
<feComposite in2="hardAlpha" operator="out"/>
<feColorMatrix type="matrix" values="0 0 0 0 0.8125 0 0 0 0 0.176108 0 0 0 0 0 0 0 0 0.5 0"/>
<feBlend mode="normal" in2="BackgroundImageFix" result="effect1_dropShadow_416_3053"/>
<feBlend mode="normal" in="SourceGraphic" in2="effect1_dropShadow_416_3053" result="shape"/>
</filter>
<linearGradient id="paint0_linear_416_3053" x1="108.693" y1="0" x2="108.693" y2="217.385" gradientUnits="userSpaceOnUse">
<stop stop-color="white" stop-opacity="0"/>
<stop offset="1" stop-color="#C9C9C9"/>
</linearGradient>
<linearGradient id="paint1_linear_416_3053" x1="108.957" y1="89.5762" x2="108.957" y2="127.81" gradientUnits="userSpaceOnUse">
<stop stop-color="#C4C4C4"/>
<stop offset="1" stop-color="#585858"/>
</linearGradient>
<linearGradient id="paint2_linear_416_3053" x1="70.1774" y1="109.512" x2="140.09" y2="109.785" gradientUnits="userSpaceOnUse">
<stop stop-color="white"/>
<stop offset="1" stop-color="white" stop-opacity="0"/>
</linearGradient>
<linearGradient id="paint3_linear_416_3053" x1="108.957" y1="137.094" x2="108.957" y2="175.327" gradientUnits="userSpaceOnUse">
<stop stop-color="#C4C4C4"/>
<stop offset="1" stop-color="#585858"/>
</linearGradient>
<linearGradient id="paint4_linear_416_3053" x1="70.9967" y1="155.664" x2="140.09" y2="156.211" gradientUnits="userSpaceOnUse">
<stop stop-color="white"/>
<stop offset="1" stop-color="white" stop-opacity="0"/>
</linearGradient>
<linearGradient id="paint5_linear_416_3053" x1="108.957" y1="42.0586" x2="108.957" y2="80.2922" gradientUnits="userSpaceOnUse">
<stop stop-color="#C4C4C4"/>
<stop offset="1" stop-color="#585858"/>
</linearGradient>
<linearGradient id="paint6_linear_416_3053" x1="70.1774" y1="61.1755" x2="125.343" y2="61.1755" gradientUnits="userSpaceOnUse">
<stop stop-color="white"/>
<stop offset="1" stop-color="white" stop-opacity="0"/>
</linearGradient>
<linearGradient id="paint7_linear_416_3053" x1="163.322" y1="123.762" x2="157.762" y2="129.322" gradientUnits="userSpaceOnUse">
<stop stop-color="white"/>
<stop offset="1" stop-color="#D99B99"/>
</linearGradient>
<linearGradient id="paint8_linear_416_3053" x1="168.24" y1="112.158" x2="168.24" y2="119.672" gradientUnits="userSpaceOnUse">
<stop stop-color="white"/>
<stop offset="1" stop-color="#FFDDDD"/>
</linearGradient>
<linearGradient id="paint9_linear_416_3053" x1="157.762" y1="123.764" x2="163.322" y2="129.324" gradientUnits="userSpaceOnUse">
<stop stop-color="white"/>
<stop offset="1" stop-color="#D99B99"/>
</linearGradient>
<linearGradient id="paint10_linear_416_3053" x1="162.68" y1="135.367" x2="162.68" y2="142.881" gradientUnits="userSpaceOnUse">
<stop stop-color="white"/>
<stop offset="1" stop-color="#FFDDDD"/>
</linearGradient>
</defs>
</svg>
