<svg width="257" height="39" viewBox="0 0 257 39" fill="none" xmlns="http://www.w3.org/2000/svg">
<g clip-path="url(#clip0_2_240)">
<path d="M31.9135 32.2464L30.8635 34.9971C30.3938 36.1954 29.1504 36.9035 27.8794 36.7128L24.9229 36.2498C24.5361 36.1954 24.1493 36.3043 23.8453 36.5494L21.5244 38.4014C20.5297 39.2184 19.0652 39.2184 18.0705 38.4014L15.7495 36.5494C15.4456 36.3043 15.0588 36.1954 14.6719 36.2771L11.7155 36.7401C10.4444 36.9307 9.17342 36.2226 8.7037 35.0243L7.65373 32.2736C7.51558 31.9195 7.23927 31.62 6.85244 31.4838L4.06174 30.4489C2.84599 29.9859 2.12759 28.7603 2.321 27.5075L2.79073 24.5934C2.84599 24.2121 2.76309 23.8309 2.51442 23.5313L0.607898 21.2436C-0.221024 20.2631 -0.221024 18.8197 0.607898 17.8392L2.48679 15.5515C2.73546 15.2519 2.81836 14.8707 2.76309 14.4894L2.321 11.5208C2.09996 10.268 2.84599 9.01521 4.06174 8.55222L6.85244 7.49007C7.21164 7.3539 7.51558 7.08155 7.65373 6.70026L8.73133 3.94957C9.20105 2.75124 10.4444 2.04314 11.7431 2.23378L14.6443 2.75124C15.0311 2.80571 15.418 2.72401 15.7219 2.47889L18.0429 0.62694C19.0376 -0.1901 20.502 -0.1901 21.4967 0.62694L23.8177 2.47889C24.1217 2.72401 24.5085 2.80571 24.8953 2.75124L27.8518 2.28825C29.1228 2.07038 30.3938 2.80571 30.8359 4.00403L31.8859 6.75473C32.024 7.10878 32.328 7.40836 32.6872 7.54454L35.4779 8.60669C36.6936 9.06968 37.412 10.2952 37.2186 11.5753L36.7765 14.4349C36.7213 14.8162 36.8318 15.1975 37.0805 15.4971L38.9594 17.7848C39.7883 18.7652 39.7883 20.2086 38.9594 21.1891L37.0805 23.4768C36.8318 23.7764 36.7213 24.1577 36.7765 24.5389L37.2463 27.4531C37.4397 28.7059 36.7213 29.9586 35.5055 30.3944L32.7148 31.4293C32.3556 31.5927 32.0517 31.8923 31.9135 32.2464Z" fill="#58CC02"/>
<path d="M27.4374 16.8855C29.1505 20.6439 27.4651 25.0831 23.6244 26.7716C20.7784 28.0244 17.4627 27.4525 15.2246 25.3282C12.4892 26.3087 9.39455 25.4916 7.5433 23.2584C7.23936 22.8771 7.29462 22.3324 7.68145 22.0056C7.76434 21.9511 7.84723 21.8966 7.93013 21.8694L11.605 20.4804L9.72612 17.8659C8.92483 16.7221 9.20114 15.1425 10.3616 14.3527C10.6379 14.162 10.9695 14.0258 11.3011 13.9441C13.401 13.5084 14.7549 13.0726 15.3628 12.6641C15.9707 12.2556 16.8272 11.1662 17.9325 9.39595C18.6785 8.22486 20.2534 7.84358 21.4692 8.57891C21.7731 8.76955 22.0218 8.98743 22.2152 9.28701L24.0665 11.9015L26.5809 8.98743C26.9124 8.60615 27.4651 8.57891 27.8519 8.90573C27.9348 8.9602 27.99 9.0419 28.0453 9.1236C29.5097 11.5747 29.2887 14.6795 27.4374 16.8855ZM20.8337 29.2772L18.8719 29.0049C18.1811 28.896 17.5456 29.3862 17.4351 30.067C17.3246 30.7479 17.8219 31.3743 18.5127 31.4832L20.4745 31.7556C21.1652 31.8373 21.8008 31.3743 21.9113 30.6934C21.9942 30.0126 21.5244 29.3862 20.8337 29.2772ZM31.1952 20.5622C30.5044 20.426 29.8413 20.8345 29.7031 21.5154L29.2887 23.449C29.1229 24.1299 29.5374 24.7835 30.2281 24.9469C30.9189 25.1103 31.582 24.7018 31.7478 24.0209C31.7478 23.9937 31.7478 23.9665 31.7754 23.9392L32.1899 22.0328C32.3281 21.3792 31.886 20.7256 31.1952 20.5622Z" fill="white"/>
<path d="M132.766 21.9782C132.766 18.465 135.529 15.9594 139.176 15.9594C142.823 15.9594 145.586 18.4377 145.586 21.9782C145.586 25.5188 142.823 27.9971 139.176 27.9971C135.529 27.9971 132.766 25.4915 132.766 21.9782ZM141.994 21.9782C141.994 20.3442 140.917 19.1186 139.231 19.1186C137.546 19.1186 136.468 20.3169 136.468 21.9782C136.468 23.6396 137.546 24.8379 139.231 24.8379C140.917 24.8379 141.994 23.6668 141.994 21.9782ZM130.362 19.2003C130.61 19.6633 130.721 20.1808 130.693 20.7255C130.693 22.0055 130.003 23.1766 128.897 24.0753C130.417 24.7834 131.329 26.4992 131.329 28.106C131.329 31.1291 128.814 33.1444 124.974 33.1444C121.133 33.1444 118.619 31.1563 118.619 28.106C118.591 26.4175 119.531 24.8651 121.05 24.0753C119.917 23.1766 119.254 22.0055 119.254 20.7255C119.254 18.0837 121.382 16.1228 124.78 16.1228C126.77 16.1228 127.378 16.4496 128.511 16.4496C129.284 16.4769 130.058 16.2862 130.721 15.8777C130.942 15.7415 131.218 15.6598 131.495 15.6326C131.937 15.6326 132.185 16.0683 132.185 16.613C132.241 17.7841 131.495 18.8463 130.362 19.2003ZM127.765 27.9971C127.765 26.6626 126.687 25.7094 125.001 25.7094C123.316 25.7094 122.238 26.6081 122.238 27.9971C122.238 29.2771 123.399 30.2848 125.001 30.2848C126.604 30.2848 127.765 29.2771 127.765 27.9971ZM122.763 20.9161C122.819 22.1144 123.869 23.0676 125.084 22.9859C126.217 22.9315 127.129 22.0327 127.184 20.9161C127.184 19.7178 126.272 18.8735 124.974 18.8735C123.675 18.8735 122.763 19.6633 122.763 20.9161ZM116.961 22.2234V26.4175C116.961 27.2345 116.657 27.5613 115.745 27.5613H114.529C113.618 27.5613 113.314 27.2345 113.314 26.4175V22.3323C113.314 21.2974 113.148 20.5621 112.761 20.0991C112.319 19.5816 111.628 19.282 110.937 19.3365C110.219 19.3093 109.528 19.5816 109.031 20.0991C108.616 20.5621 108.34 21.2974 108.34 22.3323V26.4175C108.34 27.2618 107.953 27.5613 107.124 27.5613H105.936C105.107 27.5613 104.72 27.2618 104.72 26.4175V16.9671C104.72 16.4224 104.997 16.2045 105.411 16.2045C106.019 16.2045 106.903 16.722 107.539 17.6752C108.534 16.613 109.943 15.9866 111.435 15.9866C113.203 15.9866 114.612 16.5858 115.552 17.5935C116.491 18.6012 116.961 19.9901 116.961 22.2234ZM98.1167 12.7457C98.1444 11.6836 99.0286 10.8393 100.106 10.8393H100.161C101.239 10.812 102.123 11.6291 102.151 12.6912C102.178 13.7534 101.35 14.6249 100.272 14.6521C100.161 14.6521 100.051 14.6521 99.9404 14.6249C98.9457 14.5977 98.1167 13.7534 98.1167 12.7457ZM98.3654 26.4175V17.5935C98.3654 16.7764 98.6694 16.4224 99.5812 16.4224H100.797C101.709 16.4224 102.013 16.7492 102.013 17.5935V26.4175C102.013 27.2345 101.709 27.5613 100.797 27.5613H99.5812C98.697 27.5613 98.3654 27.2345 98.3654 26.4175ZM91.9827 26.4175V15.333C91.9827 12.5551 93.5577 10.9755 94.9116 10.9755C95.326 10.9755 95.6023 11.2478 95.6023 11.738V26.4175C95.6023 27.2618 95.2708 27.5613 94.3866 27.5613H93.1708C92.3696 27.5613 91.9827 27.2618 91.9827 26.4175ZM77.0898 21.9782C77.0898 18.465 79.8528 15.9594 83.5001 15.9594C87.1474 15.9594 89.9104 18.4377 89.9104 21.9782C89.9104 25.5188 87.1474 27.9971 83.5001 27.9971C79.8528 27.9971 77.0898 25.4915 77.0898 21.9782ZM86.2632 21.9782C86.2632 20.3442 85.1856 19.1186 83.5001 19.1186C81.8146 19.1186 80.737 20.3169 80.737 21.9782C80.737 23.6396 81.8146 24.8379 83.5001 24.8379C85.1856 24.8379 86.2632 23.6668 86.2632 21.9782ZM75.2385 17.5935V26.9894C75.2385 27.5341 74.9622 27.752 74.5477 27.752C73.9399 27.752 73.0557 27.2345 72.4478 26.3086C71.4807 27.3707 70.0716 27.9699 68.6071 27.9426C67.2256 27.9699 65.8993 27.5069 64.877 26.6081C63.7994 25.6005 63.2191 24.0481 63.2191 21.8421V17.5935C63.2191 16.7764 63.5231 16.4224 64.4349 16.4224H65.6506C66.5625 16.4224 66.8664 16.7492 66.8664 17.5935V21.5697C66.8664 22.9042 67.1151 23.6123 67.5572 24.0753C67.9992 24.4838 68.5795 24.7017 69.1874 24.6745C69.8505 24.6745 70.4584 24.4294 70.9005 23.9664C71.3426 23.5034 71.5912 22.7681 71.5912 21.6242V17.5935C71.5912 16.7492 71.9781 16.4224 72.807 16.4224H74.0227C74.8517 16.3951 75.2385 16.7492 75.2385 17.5935ZM60.7324 11.7653V27.0167C60.7324 27.5613 60.4561 27.7792 60.0416 27.7792C59.4337 27.7792 58.5495 27.2618 57.9417 26.363C57.168 27.2345 55.6207 28.0243 53.8523 28.0243C50.2603 28.0243 47.8564 25.4643 47.8564 22.0055C47.8564 18.5467 50.3432 15.9866 53.8523 15.9866C55.0404 15.9866 56.1733 16.3134 57.168 16.9671V15.3602C57.168 12.5823 58.7982 11.0027 60.0969 11.0027C60.4837 10.9755 60.7324 11.2478 60.7324 11.7653ZM57.1404 21.9782C57.1404 20.2625 55.897 19.1186 54.3497 19.1186C52.8023 19.0914 51.5313 20.3169 51.5313 21.8421C51.5313 21.8965 51.5313 21.951 51.5313 21.9782C51.5313 23.694 52.7747 24.8379 54.3497 24.8379C55.9246 24.8379 57.1404 23.7485 57.1404 21.9782ZM151.499 24.6472C151.223 23.7757 151.112 22.8498 151.14 21.9238C151.112 20.9978 151.223 20.0718 151.472 19.2003C152.08 17.3484 153.655 16.3134 155.727 16.3134C157.854 16.3134 159.402 17.3484 160.01 19.1731C160.286 20.0174 160.396 20.8889 160.369 21.7876C160.396 22.1689 160.092 22.4957 159.706 22.4957C159.678 22.4957 159.65 22.4957 159.623 22.4957H153.24C153.185 22.4957 153.102 22.5229 153.102 22.6046V22.6319C153.102 23.0676 153.157 23.5034 153.295 23.9391C153.71 25.1647 154.704 25.7911 156.058 25.7911C157.025 25.7911 157.937 25.4643 158.683 24.8651C158.877 24.7017 159.098 24.5928 159.346 24.5928C159.789 24.5928 160.12 24.9196 160.148 25.3553V25.3826C160.148 25.6277 160.037 25.8728 159.844 26.0634C158.794 27.0439 157.385 27.5613 155.92 27.5341C153.627 27.5613 152.107 26.5264 151.499 24.6472ZM158.269 21.025C158.324 21.025 158.407 20.9978 158.407 20.9161V20.8889C158.407 20.4803 158.379 20.0718 158.241 19.6905C157.882 18.6012 156.97 18.002 155.727 18.002C154.483 18.002 153.599 18.6012 153.24 19.6905C153.13 20.0718 153.074 20.4803 153.074 20.8889C153.074 20.9433 153.102 21.025 153.185 21.025H153.212H158.269ZM162.911 17.4845C162.883 16.9671 163.27 16.5041 163.795 16.4769C164.32 16.4496 164.79 16.8309 164.817 17.3484C164.817 17.4028 164.817 17.4573 164.817 17.4845V17.8114H164.845C165.37 16.9943 166.42 16.3679 167.884 16.3679C170.261 16.3679 171.67 17.9475 171.67 20.3986V26.4175C171.697 26.935 171.311 27.3979 170.786 27.4252C170.261 27.4524 169.791 27.0711 169.763 26.5537C169.763 26.4992 169.763 26.4447 169.763 26.4175V20.8072C169.763 19.0914 168.962 18.0837 167.332 18.0837C165.867 18.0837 164.845 19.1186 164.845 20.6982V26.4175C164.873 26.935 164.486 27.3979 163.961 27.4252C163.436 27.4524 162.966 27.0711 162.938 26.5537C162.938 26.4992 162.938 26.4447 162.938 26.4175L162.911 17.4845ZM181.258 17.7569V17.4845C181.23 16.9671 181.617 16.5041 182.142 16.4769C182.667 16.4496 183.137 16.8309 183.164 17.3484C183.164 17.4028 183.164 17.4573 183.164 17.4845V26.7988C183.164 30.0125 181.423 31.6193 178.412 31.6193C176.975 31.6193 175.621 31.0474 174.958 30.3393C174.792 30.1759 174.682 29.958 174.682 29.7401C174.654 29.2771 175.041 28.8686 175.51 28.8686C175.538 28.8686 175.538 28.8686 175.566 28.8686C175.842 28.8686 176.118 28.9776 176.339 29.1682C176.975 29.6312 177.721 29.8763 178.495 29.8763C180.235 29.8763 181.258 29.032 181.258 26.9622V25.7911H181.23C180.677 26.6898 179.766 27.2073 178.191 27.2073C176.367 27.2073 175.068 26.2269 174.543 24.5383C174.267 23.6396 174.157 22.7136 174.184 21.7876C174.157 20.8616 174.267 19.9357 174.543 19.0369C175.096 17.3484 176.395 16.3679 178.191 16.3679C179.793 16.3679 180.705 16.9671 181.23 17.7841L181.258 17.7569ZM181.009 23.7757C181.202 23.1221 181.285 22.4412 181.258 21.7604C181.285 21.0795 181.202 20.3986 181.009 19.7722C180.622 18.6556 179.876 18.0837 178.688 18.0837C177.5 18.0837 176.754 18.6556 176.367 19.7722C176.174 20.4259 176.091 21.1067 176.118 21.7604C176.091 22.4412 176.174 23.1221 176.367 23.7757C176.754 24.8924 177.5 25.4643 178.688 25.4643C179.876 25.4643 180.622 24.8924 181.009 23.7757ZM188.939 27.4252C186.977 27.4252 186.286 26.472 186.286 24.5655V12.9636C186.259 12.4461 186.646 11.9831 187.171 11.9559C187.696 11.9287 188.165 12.31 188.193 12.8274C188.193 12.8819 188.193 12.9364 188.193 12.9636V24.4294C188.193 25.3281 188.497 25.6549 189.243 25.6549C189.713 25.6277 190.099 25.9545 190.127 26.4175C190.127 26.4447 190.127 26.4992 190.127 26.5264C190.127 27.0439 189.796 27.3979 189.16 27.3979L188.939 27.4252ZM191.951 13.1815C191.951 12.5006 192.503 11.9559 193.194 11.9559C193.885 11.9559 194.437 12.5006 194.437 13.1815C194.437 13.8623 193.885 14.407 193.194 14.407C192.503 14.4343 191.951 13.8623 191.951 13.1815ZM192.227 17.4845C192.199 16.9671 192.586 16.5041 193.111 16.4769C193.636 16.4496 194.106 16.8309 194.134 17.3484C194.134 17.4028 194.134 17.4573 194.134 17.4845V26.4175C194.161 26.935 193.774 27.3979 193.249 27.4252C192.724 27.4524 192.255 27.0711 192.227 26.5537C192.227 26.4992 192.227 26.4447 192.227 26.4175V17.4845ZM196.924 26.3903C196.648 26.2269 196.482 25.9273 196.455 25.6005C196.455 25.1375 196.841 24.7562 197.339 24.7562C197.56 24.7562 197.781 24.8379 197.974 24.9741C198.858 25.4915 199.798 25.9 201.014 25.9C202.589 25.9 203.417 25.2192 203.417 24.2932C203.417 23.3945 203.003 22.9315 201.29 22.7681L200.157 22.6591C198.029 22.4412 196.897 21.3519 196.897 19.6361C196.897 17.5935 198.361 16.3679 200.931 16.3679C202.064 16.3407 203.196 16.613 204.191 17.1305C204.523 17.2667 204.744 17.5662 204.771 17.9203C204.771 18.3833 204.412 18.7373 203.942 18.7373C203.694 18.7373 203.473 18.6556 203.252 18.5467C202.506 18.1926 201.677 18.002 200.848 18.002C199.494 18.002 198.775 18.6012 198.775 19.4727C198.775 20.3442 199.273 20.7799 200.903 20.9161L202.036 21.025C204.302 21.2701 205.296 22.3323 205.296 24.0753C205.296 26.1724 203.749 27.5613 200.875 27.5613C199.494 27.5886 198.112 27.1528 196.924 26.3903ZM207.728 12.9636C207.7 12.4461 208.087 11.9831 208.612 11.9559C209.137 11.9287 209.607 12.31 209.634 12.8274C209.634 12.8819 209.634 12.9364 209.634 12.9636V17.7841H209.662C210.187 16.9671 211.237 16.3407 212.701 16.3407C215.078 16.3407 216.487 17.9203 216.487 20.3714V26.4175C216.514 26.935 216.1 27.3707 215.575 27.3979C215.05 27.4252 214.608 27.0167 214.58 26.4992C214.58 26.472 214.58 26.4447 214.58 26.3903V20.8072C214.58 19.0914 213.779 18.0837 212.149 18.0837C210.657 18.0837 209.634 19.1186 209.634 20.6982V26.4175C209.662 26.935 209.275 27.3979 208.75 27.4252C208.225 27.4524 207.755 27.0711 207.728 26.5537C207.728 26.4992 207.728 26.4447 207.728 26.4175V12.9636ZM226.627 27.4252C224.389 27.4252 223.588 26.4992 223.588 24.266V18.2199C223.588 18.1654 223.56 18.0837 223.477 18.0837H223.45H222.842C222.427 18.0837 222.068 17.7296 222.068 17.3211C222.068 16.9126 222.427 16.5586 222.842 16.5586H223.45C223.505 16.5586 223.588 16.5313 223.588 16.4496V16.4224V14.053C223.56 13.5355 223.975 13.0998 224.5 13.0725C225.025 13.0453 225.467 13.4538 225.494 13.9713C225.494 13.9985 225.494 14.0257 225.494 14.0802V16.4224C225.494 16.4769 225.522 16.5586 225.605 16.5586H225.633H227.069C227.484 16.5586 227.843 16.9126 227.843 17.3211C227.843 17.7296 227.484 18.0837 227.069 18.0837H225.633C225.577 18.0837 225.494 18.1109 225.494 18.1926V18.2199V24.1843C225.494 25.3281 225.798 25.6549 226.959 25.6549C227.429 25.6005 227.843 25.9545 227.898 26.3903C227.898 26.4447 227.898 26.472 227.898 26.5264C227.898 27.0439 227.567 27.3979 226.876 27.3979L226.627 27.4252ZM229.639 24.6472C229.363 23.7757 229.252 22.8498 229.28 21.9238C229.28 20.6438 229.39 19.8812 229.611 19.2003C230.219 17.3484 231.794 16.3134 233.867 16.3134C235.994 16.3134 237.541 17.3484 238.149 19.1731C238.426 20.0174 238.536 20.8889 238.508 21.7876C238.536 22.1689 238.232 22.4957 237.845 22.4957C237.818 22.4957 237.79 22.4957 237.762 22.4957H231.38C231.325 22.4957 231.242 22.5229 231.242 22.6046V22.6319C231.242 23.0676 231.297 23.5034 231.435 23.9391C231.849 25.1647 232.844 25.7911 234.198 25.7911C235.138 25.7911 236.077 25.4915 236.795 24.8924C236.961 24.7289 237.21 24.62 237.459 24.62C237.901 24.62 238.26 24.9468 238.26 25.3553V25.3826C238.26 25.6277 238.149 25.8728 237.956 26.0634C236.878 27.0439 235.497 27.5613 234.032 27.5341C231.794 27.5613 230.275 26.5264 229.639 24.6472ZM236.409 21.025C236.464 21.025 236.547 20.9978 236.547 20.9161V20.8889C236.574 20.4803 236.519 20.0718 236.381 19.6905C236.022 18.6012 235.11 18.002 233.867 18.002C232.623 18.002 231.739 18.6012 231.352 19.6905C231.242 20.0718 231.186 20.4803 231.186 20.8889C231.186 20.9433 231.214 21.025 231.297 21.025H231.325H236.409ZM240.885 26.3903C240.608 26.2269 240.443 25.9273 240.415 25.6005C240.415 25.1375 240.802 24.7562 241.299 24.7562C241.52 24.7562 241.741 24.8379 241.935 24.9741C242.819 25.4915 243.758 25.9 244.974 25.9C246.549 25.9 247.35 25.2192 247.35 24.2932C247.35 23.3945 246.936 22.9315 245.223 22.7681L244.09 22.6591C241.962 22.4412 240.857 21.3519 240.857 19.6361C240.857 17.5935 242.322 16.3679 244.891 16.3679C246.024 16.3407 247.157 16.613 248.152 17.1577C248.483 17.2939 248.704 17.5935 248.732 17.9475C248.732 18.4105 248.373 18.7646 247.903 18.7646C247.654 18.7646 247.433 18.6829 247.212 18.5739C246.466 18.2199 245.665 18.0292 244.836 18.002C243.482 18.002 242.764 18.6012 242.764 19.4727C242.764 20.3442 243.261 20.7799 244.891 20.9161L246.024 21.025C248.29 21.2701 249.312 22.3323 249.312 24.0753C249.312 26.1724 247.765 27.5613 244.864 27.5613C243.427 27.5886 242.045 27.1528 240.885 26.3903ZM255.308 27.4252C253.07 27.4252 252.269 26.4992 252.269 24.266V18.2199C252.269 18.1654 252.241 18.0837 252.158 18.0837H252.13H251.523C251.108 18.0837 250.749 17.7296 250.749 17.3211C250.749 16.9126 251.108 16.5586 251.523 16.5586H252.13C252.186 16.5586 252.269 16.5313 252.269 16.4496V16.4224V14.053C252.241 13.5355 252.655 13.0998 253.18 13.0725C253.705 13.0453 254.147 13.4538 254.175 13.9713C254.175 13.9985 254.175 14.0257 254.175 14.0802V16.4224C254.175 16.4769 254.203 16.5586 254.286 16.5586H254.313H255.75C256.165 16.5586 256.524 16.9126 256.524 17.3211C256.524 17.7296 256.165 18.0837 255.75 18.0837H254.313C254.258 18.0837 254.175 18.1109 254.175 18.1926V18.2199V24.1843C254.175 25.3281 254.479 25.6549 255.64 25.6549C256.109 25.6005 256.524 25.9545 256.579 26.4175C256.579 26.472 256.579 26.4992 256.579 26.5537C256.579 27.0711 256.247 27.4252 255.557 27.4252H255.308Z" fill="#001836"/>
</g>
<defs>
<clipPath id="clip0_2_240">
<rect width="256.579" height="39" fill="white"/>
</clipPath>
</defs>
</svg>
