<svg width="240" height="242" viewBox="0 0 240 242" fill="none" xmlns="http://www.w3.org/2000/svg">
<circle cx="119.509" cy="119.509" r="119.509" fill="url(#paint0_linear_428_594)"/>
<circle cx="223.94" cy="55.7973" r="5.15281" stroke="#B5E62D" stroke-width="4"/>
<circle cx="146.47" cy="234.159" r="5.15281" stroke="#B5E62D" stroke-width="4"/>
<g filter="url(#filter0_f_428_594)">
<path d="M33.0205 127.916L35.048 133.395L40.5273 135.423L35.048 137.45L33.0205 142.93L30.993 137.45L25.5137 135.423L30.993 133.395L33.0205 127.916Z" fill="#B5E62D"/>
<path d="M34.5791 133.568L34.6592 133.784L34.874 133.864L39.0859 135.423L34.874 136.981L34.6592 137.062L34.5791 137.276L33.0205 141.488L31.4619 137.276L31.3818 137.062L31.166 136.981L26.9541 135.423L31.166 133.864L31.3818 133.784L31.4619 133.568L33.0205 129.356L34.5791 133.568Z" stroke="#B5E62D"/>
</g>
<path d="M226.287 169.864L226.367 170.08L226.583 170.159L233.459 172.704L226.583 175.249L226.367 175.329L226.287 175.545L223.742 182.422L221.197 175.545L221.118 175.329L220.902 175.249L214.024 172.704L220.902 170.159L221.118 170.08L221.197 169.864L223.742 162.986L226.287 169.864Z" fill="#B5E62D" stroke="#B5E62D"/>
<g filter="url(#filter1_f_428_594)">
<path d="M68.0874 8.40723L71.7194 18.2225L81.5347 21.8545L71.7194 25.4865L68.0874 35.3018L64.4554 25.4865L54.6401 21.8545L64.4554 18.2225L68.0874 8.40723Z" fill="#B5E62D"/>
<path d="M71.2505 18.3965L71.3306 18.6113L71.5454 18.6914L80.0933 21.8545L71.5454 25.0176L71.3306 25.0977L71.2505 25.3125L68.0874 33.8604L64.9243 25.3125L64.8442 25.0977L64.6294 25.0176L56.0806 21.8545L64.6294 18.6914L64.8442 18.6113L64.9243 18.3965L68.0874 9.84766L71.2505 18.3965Z" stroke="#B5E62D"/>
</g>
<path d="M82.3805 98.3508V178.505L93.9217 171.487L105.463 178.505L117.004 171.487L128.544 178.505L140.086 171.487L151.626 178.505L163.165 171.487L174.708 178.505V80.1814C174.708 73.6597 169.432 68.3721 162.919 68.3721H70.5947" fill="url(#paint1_linear_428_594)"/>
<path d="M58.8072 127.929H82.3803V79.1302C82.3803 73.1887 77.5741 68.373 71.6436 68.373H69.5424C63.6134 68.373 58.8057 73.1887 58.8057 79.1302V127.929H58.8072Z" fill="url(#paint2_linear_428_594)"/>
<path d="M174.711 139.873C175.281 139.873 175.826 139.646 176.229 139.242C176.631 138.839 176.857 138.293 176.856 137.723V80.1808C176.856 72.4831 170.607 66.2217 162.925 66.2217H70.5946C62.9125 66.2217 56.6621 72.4846 56.6621 80.1808V114.439C56.6617 115.008 56.8874 115.555 57.2897 115.958C57.6919 116.361 58.2378 116.588 58.8073 116.589C59.3767 116.588 59.9226 116.361 60.3249 115.958C60.7271 115.555 60.9528 115.008 60.9524 114.439V80.1808C60.9524 74.854 65.2772 70.5214 70.593 70.5214C75.9089 70.5214 80.2337 74.8556 80.2337 80.1808V125.778H60.954V122.304C60.9544 121.735 60.7287 121.189 60.3264 120.785C59.9242 120.382 59.3783 120.155 58.8088 120.155C58.239 120.156 57.693 120.383 57.2906 120.786C56.8881 121.19 56.6621 121.736 56.6621 122.306V127.929C56.6617 128.499 56.8874 129.045 57.2897 129.448C57.6919 129.851 58.2378 130.078 58.8073 130.079H80.2352V178.505C80.2355 178.885 80.3368 179.259 80.5288 179.588C80.7208 179.916 80.9967 180.188 81.3281 180.375C81.6596 180.562 82.0348 180.657 82.4153 180.652C82.7958 180.646 83.1679 180.539 83.4937 180.343L93.9215 174.001L104.349 180.343C105.033 180.758 105.891 180.758 106.576 180.343L117.004 174.001L127.432 180.343C128.115 180.758 128.973 180.758 129.658 180.343L140.086 174.001L150.514 180.343C151.198 180.758 152.054 180.758 152.741 180.343L163.168 174.001L173.595 180.343C173.92 180.541 174.292 180.649 174.674 180.655C175.055 180.661 175.43 180.565 175.762 180.377C176.093 180.19 176.369 179.918 176.561 179.589C176.753 179.26 176.854 178.886 176.853 178.505V145.591C176.853 144.404 175.893 143.441 174.708 143.441C173.523 143.441 172.563 144.404 172.563 145.591V174.687L164.28 169.65C163.945 169.445 163.56 169.337 163.167 169.337C162.774 169.337 162.389 169.445 162.054 169.65L151.627 175.991L141.199 169.65C140.864 169.445 140.479 169.337 140.086 169.337C139.693 169.337 139.308 169.445 138.973 169.65L128.545 175.991L118.119 169.65C117.783 169.445 117.398 169.337 117.005 169.337C116.613 169.337 116.227 169.445 115.892 169.65L105.463 175.991L95.0349 169.65C94.6999 169.445 94.3149 169.337 93.9223 169.337C93.5297 169.337 93.1448 169.445 92.8097 169.65L84.5271 174.687V80.1808C84.5271 76.4347 83.0437 73.0303 80.6382 70.5214H162.927C168.243 70.5214 172.566 74.8556 172.566 80.1808V137.723C172.566 138.293 172.791 138.839 173.194 139.242C173.596 139.646 174.142 139.873 174.711 139.873Z" fill="#C0C0C0"/>
<rect x="95.4775" y="93.6846" width="22.8207" height="6.00546" rx="3.00273" fill="white"/>
<rect x="122.502" y="93.6846" width="35.4322" height="6.00546" rx="3.00273" fill="white"/>
<rect x="95.4775" y="108.098" width="36.6333" height="6.00546" rx="3.00273" fill="url(#paint3_linear_428_594)"/>
<rect x="95.4775" y="135.723" width="24.0218" height="6.00546" rx="3.00273" fill="url(#paint4_linear_428_594)"/>
<rect x="95.4775" y="121.91" width="59.454" height="6.00546" rx="3.00273" fill="url(#paint5_linear_428_594)"/>
<g filter="url(#filter2_f_428_594)">
<path d="M211.905 113.263C210.608 110.489 208.755 108.001 206.395 105.866C204.045 103.739 201.308 102.069 198.263 100.904C195.118 99.7003 191.778 99.0898 188.337 99.0898C184.895 99.0898 181.555 99.7003 178.41 100.904C175.365 102.069 172.629 103.74 170.278 105.866C167.919 108.001 166.065 110.489 164.768 113.263C163.429 116.109 162.736 119.216 162.738 122.361C162.738 128.889 165.728 135.064 170.98 139.467C169.307 141.658 166.893 143.644 163.303 145.798C163.085 145.929 162.916 146.128 162.821 146.364C162.727 146.6 162.713 146.861 162.781 147.106C162.849 147.351 162.995 147.568 163.197 147.722C163.4 147.876 163.647 147.959 163.902 147.959C167.445 147.959 170.701 147.607 173.582 146.912C176.038 146.319 178.231 145.476 180.11 144.403C182.775 145.222 185.548 145.636 188.337 145.632C191.778 145.632 195.118 145.022 198.263 143.818C201.308 142.655 204.045 140.982 206.395 138.856C208.754 136.721 210.608 134.233 211.905 131.459C213.241 128.612 213.934 125.506 213.934 122.361C213.934 119.216 213.241 116.11 211.905 113.263H211.905Z" fill="#6C8C16"/>
</g>
<path d="M211.905 113.263C210.608 110.489 208.755 108.001 206.395 105.866C204.045 103.739 201.308 102.069 198.263 100.904C195.118 99.7003 191.778 99.0898 188.337 99.0898C184.895 99.0898 181.555 99.7003 178.41 100.904C175.365 102.069 172.629 103.74 170.278 105.866C167.919 108.001 166.065 110.489 164.768 113.263C163.429 116.109 162.736 119.216 162.738 122.361C162.738 128.889 165.728 135.064 170.98 139.467C169.307 141.658 166.893 143.644 163.303 145.798C163.085 145.929 162.916 146.128 162.821 146.364C162.727 146.6 162.713 146.861 162.781 147.106C162.849 147.351 162.995 147.568 163.197 147.722C163.4 147.876 163.647 147.959 163.902 147.959C167.445 147.959 170.701 147.607 173.582 146.912C176.038 146.319 178.231 145.476 180.11 144.403C182.775 145.222 185.548 145.636 188.337 145.632C191.778 145.632 195.118 145.022 198.263 143.818C201.308 142.655 204.045 140.982 206.395 138.856C208.754 136.721 210.608 134.233 211.905 131.459C213.241 128.612 213.934 125.506 213.934 122.361C213.934 119.216 213.241 116.11 211.905 113.263H211.905Z" fill="#C4F244"/>
<path d="M179.509 124.478L185.134 130.312L197.509 116.312" stroke="#6B6B6B" stroke-width="4.5" stroke-linecap="round"/>
<defs>
<filter id="filter0_f_428_594" x="21.5137" y="123.916" width="23.0137" height="23.0137" filterUnits="userSpaceOnUse" color-interpolation-filters="sRGB">
<feFlood flood-opacity="0" result="BackgroundImageFix"/>
<feBlend mode="normal" in="SourceGraphic" in2="BackgroundImageFix" result="shape"/>
<feGaussianBlur stdDeviation="2" result="effect1_foregroundBlur_428_594"/>
</filter>
<filter id="filter1_f_428_594" x="50.6401" y="4.40723" width="34.8945" height="34.8945" filterUnits="userSpaceOnUse" color-interpolation-filters="sRGB">
<feFlood flood-opacity="0" result="BackgroundImageFix"/>
<feBlend mode="normal" in="SourceGraphic" in2="BackgroundImageFix" result="shape"/>
<feGaussianBlur stdDeviation="2" result="effect1_foregroundBlur_428_594"/>
</filter>
<filter id="filter2_f_428_594" x="142.738" y="79.0898" width="91.1963" height="88.8691" filterUnits="userSpaceOnUse" color-interpolation-filters="sRGB">
<feFlood flood-opacity="0" result="BackgroundImageFix"/>
<feBlend mode="normal" in="SourceGraphic" in2="BackgroundImageFix" result="shape"/>
<feGaussianBlur stdDeviation="10" result="effect1_foregroundBlur_428_594"/>
</filter>
<linearGradient id="paint0_linear_428_594" x1="119.509" y1="0" x2="119.509" y2="239.017" gradientUnits="userSpaceOnUse">
<stop stop-color="white" stop-opacity="0"/>
<stop offset="1" stop-color="#C9C9C9"/>
</linearGradient>
<linearGradient id="paint1_linear_428_594" x1="122.651" y1="68.3721" x2="122.651" y2="178.505" gradientUnits="userSpaceOnUse">
<stop stop-color="#D9D9D9"/>
<stop offset="0.808917" stop-color="#818181"/>
</linearGradient>
<linearGradient id="paint2_linear_428_594" x1="70.593" y1="68.373" x2="70.593" y2="127.929" gradientUnits="userSpaceOnUse">
<stop stop-color="#606060"/>
<stop offset="1" stop-color="#BCBCBC"/>
</linearGradient>
<linearGradient id="paint3_linear_428_594" x1="95.4775" y1="109.299" x2="134.513" y2="111.1" gradientUnits="userSpaceOnUse">
<stop stop-color="white"/>
<stop offset="1" stop-color="white" stop-opacity="0"/>
</linearGradient>
<linearGradient id="paint4_linear_428_594" x1="95.4775" y1="136.924" x2="121.106" y2="137.699" gradientUnits="userSpaceOnUse">
<stop stop-color="white"/>
<stop offset="1" stop-color="white" stop-opacity="0"/>
</linearGradient>
<linearGradient id="paint5_linear_428_594" x1="95.4775" y1="123.111" x2="158.611" y2="127.84" gradientUnits="userSpaceOnUse">
<stop stop-color="white"/>
<stop offset="1" stop-color="white" stop-opacity="0"/>
</linearGradient>
</defs>
</svg>
