<svg width="200" height="30" viewBox="0 0 200 30" fill="none" xmlns="http://www.w3.org/2000/svg">
<path d="M30.5552 10.6834L20.9395 9.28615L16.6391 0.572752C16.263 -0.189431 15.1726 -0.189799 14.7961 0.572752L10.4959 9.28615L0.880188 10.6834C0.0392335 10.8056 -0.298512 11.8425 0.31067 12.4362L7.26861 19.2186L5.62599 28.7954C5.59357 28.9844 5.61468 29.1787 5.68692 29.3563C5.75916 29.5339 5.87966 29.6878 6.03479 29.8005C6.18992 29.9132 6.37349 29.9803 6.56474 29.9941C6.756 30.0079 6.9473 29.968 7.11702 29.8787L15.7176 25.3573C25.081 30.2798 24.4379 29.9968 24.7964 29.9968C25.4297 29.9968 25.9174 29.4258 25.8093 28.7954L24.1667 19.2186L31.1247 12.4362C31.7332 11.8429 31.3968 10.8057 30.5552 10.6834Z" fill="#F7AC16"/>
<path d="M15.7177 0C15.5259 1.0186e-05 15.338 0.0536619 15.1751 0.154891C15.0123 0.256119 14.881 0.400888 14.7961 0.572834L10.4958 9.28624L0.880188 10.6834C0.0392335 10.8057 -0.298512 11.8426 0.31067 12.4363L7.26861 19.2187L5.62599 28.7955C5.59357 28.9845 5.61468 29.1788 5.68692 29.3564C5.75916 29.534 5.87966 29.6879 6.03479 29.8006C6.18992 29.9133 6.37349 29.9804 6.56474 29.9942C6.756 30.008 6.9473 29.968 7.11702 29.8788L15.7176 25.3573H15.7177V0Z" fill="#F2D422"/>
<path d="M0.880188 10.6834C0.0392335 10.8056 -0.298512 11.8425 0.31067 12.4362L7.26861 19.2186L5.62599 28.7955C5.59357 28.9845 5.61468 29.1787 5.68692 29.3564C5.75916 29.534 5.87966 29.6878 6.03479 29.8006C6.18992 29.9133 6.37349 29.9803 6.56475 29.9941C6.756 30.008 6.9473 29.968 7.11702 29.8788L15.7176 25.3573C25.0811 30.2798 24.4379 29.9969 24.7964 29.9969C25.0134 29.9969 25.2249 29.9282 25.4004 29.8006L10.4958 9.28613L0.880188 10.6834Z" fill="#F7AC16"/>
<path d="M10.9629 18.0358C3.5097 10.7706 3.83007 11.16 3.73005 10.7832C3.68935 10.6318 3.681 10.4557 3.72526 10.27L0.880188 10.6834C0.0392335 10.8056 -0.298512 11.8425 0.31067 12.4362L7.26861 19.2186L5.62599 28.7955C5.59357 28.9845 5.61468 29.1788 5.68692 29.3564C5.75916 29.534 5.87966 29.6879 6.03479 29.8006C6.18992 29.9133 6.37349 29.9804 6.56475 29.9942C6.756 30.008 6.9473 29.9681 7.11702 29.8788L9.64578 28.5494C9.51685 28.4334 9.41939 28.2867 9.36248 28.1229C9.30556 27.9591 9.29106 27.7835 9.32031 27.6126L10.9629 18.0358Z" fill="#F48B19"/>
<path d="M0.31027 12.4363L7.26821 19.2187L5.62559 28.7955C5.59317 28.9845 5.61428 29.1788 5.68652 29.3564C5.75876 29.534 5.87926 29.6879 6.03439 29.8006C6.18952 29.9133 6.37309 29.9804 6.56435 29.9942C6.7556 30.008 6.9469 29.968 7.11662 29.8788L15.7172 25.3573C25.0807 30.2798 24.4375 29.9969 24.796 29.9969C25.4293 29.9969 25.917 29.4259 25.8089 28.7955L24.1663 19.2187L0.0501311 11.3828C-0.0700229 11.8135 0.0502539 12.1829 0.31027 12.4363Z" fill="#F2D422"/>
<path d="M0.31027 12.4363L7.26821 19.2187L5.62559 28.7955C5.59317 28.9845 5.61428 29.1788 5.68652 29.3564C5.75876 29.534 5.87926 29.6879 6.03439 29.8006C6.18952 29.9133 6.37309 29.9804 6.56435 29.9942C6.7556 30.008 6.9469 29.968 7.11662 29.8788L9.64538 28.5494C9.51645 28.4334 9.41899 28.2867 9.36208 28.1228C9.30517 27.959 9.29066 27.7835 9.31991 27.6126L10.9625 18.0357L6.18105 13.3749L0.0501311 11.3828C-0.0700229 11.8135 0.0502539 12.1829 0.31027 12.4363Z" fill="#EFB616"/>
<path d="M5.62626 28.7954C5.59384 28.9844 5.61494 29.1787 5.68719 29.3563C5.75943 29.534 5.87993 29.6878 6.03506 29.8005C6.19019 29.9132 6.37376 29.9803 6.56501 29.9941C6.75626 30.0079 6.94757 29.968 7.11729 29.8787L15.7179 25.3573C25.0813 30.2798 24.4382 29.9969 24.7966 29.9969C25.43 29.9969 25.9177 29.4259 25.8095 28.7954L24.167 19.2186L31.125 12.4362C31.2623 12.3023 31.3594 12.1328 31.4053 11.9466C31.4512 11.7605 31.4442 11.5652 31.385 11.3828L7.26888 19.2186L5.62626 28.7954Z" fill="#F7AC16"/>
<path d="M5.62626 28.7953C5.59384 28.9843 5.61494 29.1786 5.68719 29.3562C5.75943 29.5338 5.87993 29.6877 6.03506 29.8004C6.19019 29.9131 6.37376 29.9802 6.56501 29.994C6.75626 30.0078 6.94757 29.9678 7.11729 29.8786L9.64605 28.5492C9.51712 28.4332 9.41965 28.2865 9.36274 28.1227C9.30583 27.9588 9.29133 27.7833 9.32058 27.6124L10.9632 18.0355L10.9498 18.0225L7.26888 19.2185L5.62626 28.7953Z" fill="#F48B19"/>
<path d="M7.11739 29.8787L15.7179 25.3572C25.0814 30.2797 24.4382 29.9968 24.7967 29.9968C25.43 29.9968 25.9177 29.4258 25.8096 28.7954L24.167 19.2186L31.125 12.4362C31.7335 11.8429 31.3971 10.8057 30.5555 10.6833L20.9398 9.28613L6.03514 29.8005C6.19028 29.9132 6.37386 29.9803 6.56511 29.9941C6.75636 30.0079 6.94766 29.9679 7.11739 29.8787Z" fill="#F2D422"/>
<path d="M31.3851 11.3828L15.7179 16.4734L6.03514 29.8006C6.19027 29.9133 6.37383 29.9804 6.56508 29.9942C6.75632 30.008 6.94761 29.968 7.11732 29.8788L15.7179 25.3573C25.0814 30.2798 24.4382 29.9969 24.7967 29.9969C25.43 29.9969 25.9177 29.4259 25.8096 28.7955L24.167 19.2187L31.125 12.4363C31.2623 12.3024 31.3594 12.1328 31.4054 11.9466C31.4513 11.7605 31.4443 11.5652 31.3851 11.3828Z" fill="#F7AC16"/>
<path d="M24.1671 19.2185L15.7179 16.4731L6.03514 29.8004C6.19027 29.9131 6.37383 29.9801 6.56508 29.994C6.75632 30.0078 6.94761 29.9678 7.11732 29.8786L15.7179 25.3571C25.0814 30.2796 24.4382 29.9967 24.7967 29.9967C25.43 29.9967 25.9177 29.4257 25.8096 28.7953L24.1671 19.2185Z" fill="#F2D422"/>
<path d="M6.03514 29.8004C6.19027 29.9131 6.37383 29.9801 6.56508 29.994C6.75632 30.0078 6.94761 29.9678 7.11732 29.8786L15.7179 25.3571C25.0814 30.2796 24.4382 29.9967 24.7967 29.9967C25.0137 29.9967 25.2252 29.928 25.4007 29.8004L15.7179 16.4731L6.03514 29.8004Z" fill="#F7AC16"/>
<path d="M15.718 16.4733L15.7179 16.4731L6.03514 29.8004C6.19027 29.9131 6.37383 29.9801 6.56508 29.994C6.75632 30.0078 6.94761 29.9678 7.11732 29.8786L15.7179 25.3571H15.718V16.4733Z" fill="#F2D422"/>
<path d="M9.84464 24.5571L6.03514 29.8004C6.19027 29.9131 6.37383 29.9802 6.56508 29.994C6.75632 30.0078 6.94761 29.9678 7.11732 29.8786L9.64608 28.5492C9.51715 28.4332 9.41969 28.2865 9.36278 28.1227C9.30587 27.9588 9.29136 27.7833 9.32062 27.6124L9.84464 24.5571Z" fill="#EFB616"/>
<path d="M114.555 10.6834L104.94 9.28615L100.639 0.572752C100.263 -0.189431 99.1726 -0.189799 98.7961 0.572752L94.4959 9.28615L84.8802 10.6834C84.0392 10.8056 83.7015 11.8425 84.3107 12.4362L91.2686 19.2186L89.626 28.7954C89.5936 28.9844 89.6147 29.1787 89.6869 29.3563C89.7592 29.5339 89.8797 29.6878 90.0348 29.8005C90.1899 29.9132 90.3735 29.9803 90.5647 29.9941C90.756 30.0079 90.9473 29.968 91.117 29.8787L99.7176 25.3573C109.081 30.2798 108.438 29.9968 108.796 29.9968C109.43 29.9968 109.917 29.4258 109.809 28.7954L108.167 19.2186L115.125 12.4362C115.733 11.8429 115.397 10.8057 114.555 10.6834Z" fill="#F7AC16"/>
<path d="M99.7177 0C99.5259 1.0186e-05 99.338 0.0536619 99.1751 0.154891C99.0123 0.256119 98.881 0.400888 98.7961 0.572834L94.4958 9.28624L84.8802 10.6834C84.0392 10.8057 83.7015 11.8426 84.3107 12.4363L91.2686 19.2187L89.626 28.7955C89.5936 28.9845 89.6147 29.1788 89.6869 29.3564C89.7592 29.534 89.8797 29.6879 90.0348 29.8006C90.1899 29.9133 90.3735 29.9804 90.5647 29.9942C90.756 30.008 90.9473 29.968 91.117 29.8788L99.7176 25.3573H99.7177V0Z" fill="#F2D422"/>
<path d="M84.8802 10.6834C84.0392 10.8056 83.7015 11.8425 84.3107 12.4362L91.2686 19.2186L89.626 28.7955C89.5936 28.9845 89.6147 29.1787 89.6869 29.3564C89.7592 29.534 89.8797 29.6878 90.0348 29.8006C90.1899 29.9133 90.3735 29.9803 90.5647 29.9941C90.756 30.008 90.9473 29.968 91.117 29.8788L99.7176 25.3573C109.081 30.2798 108.438 29.9969 108.796 29.9969C109.013 29.9969 109.225 29.9282 109.4 29.8006L94.4958 9.28613L84.8802 10.6834Z" fill="#F7AC16"/>
<path d="M94.9629 18.0358C87.5097 10.7706 87.8301 11.16 87.7301 10.7832C87.6893 10.6318 87.681 10.4557 87.7253 10.27L84.8802 10.6834C84.0392 10.8056 83.7015 11.8425 84.3107 12.4362L91.2686 19.2186L89.626 28.7955C89.5936 28.9845 89.6147 29.1788 89.6869 29.3564C89.7592 29.534 89.8797 29.6879 90.0348 29.8006C90.1899 29.9133 90.3735 29.9804 90.5647 29.9942C90.756 30.008 90.9473 29.9681 91.117 29.8788L93.6458 28.5494C93.5169 28.4334 93.4194 28.2867 93.3625 28.1229C93.3056 27.9591 93.2911 27.7835 93.3203 27.6126L94.9629 18.0358Z" fill="#F48B19"/>
<path d="M84.3103 12.4363L91.2682 19.2187L89.6256 28.7955C89.5932 28.9845 89.6143 29.1788 89.6865 29.3564C89.7588 29.534 89.8793 29.6879 90.0344 29.8006C90.1895 29.9133 90.3731 29.9804 90.5643 29.9942C90.7556 30.008 90.9469 29.968 91.1166 29.8788L99.7172 25.3573C109.081 30.2798 108.438 29.9969 108.796 29.9969C109.429 29.9969 109.917 29.4259 109.809 28.7955L108.166 19.2187L84.0501 11.3828C83.93 11.8135 84.0503 12.1829 84.3103 12.4363Z" fill="#F2D422"/>
<path d="M84.3103 12.4363L91.2682 19.2187L89.6256 28.7955C89.5932 28.9845 89.6143 29.1788 89.6865 29.3564C89.7588 29.534 89.8793 29.6879 90.0344 29.8006C90.1895 29.9133 90.3731 29.9804 90.5643 29.9942C90.7556 30.008 90.9469 29.968 91.1166 29.8788L93.6454 28.5494C93.5164 28.4334 93.419 28.2867 93.3621 28.1228C93.3052 27.959 93.2907 27.7835 93.3199 27.6126L94.9625 18.0357L90.1811 13.3749L84.0501 11.3828C83.93 11.8135 84.0503 12.1829 84.3103 12.4363Z" fill="#EFB616"/>
<path d="M89.6263 28.7954C89.5938 28.9844 89.6149 29.1787 89.6872 29.3563C89.7594 29.534 89.8799 29.6878 90.0351 29.8005C90.1902 29.9132 90.3738 29.9803 90.565 29.9941C90.7563 30.0079 90.9476 29.968 91.1173 29.8787L99.7179 25.3573C109.081 30.2798 108.438 29.9969 108.797 29.9969C109.43 29.9969 109.918 29.4259 109.81 28.7954L108.167 19.2186L115.125 12.4362C115.262 12.3023 115.359 12.1328 115.405 11.9466C115.451 11.7605 115.444 11.5652 115.385 11.3828L91.2689 19.2186L89.6263 28.7954Z" fill="#F7AC16"/>
<path d="M89.6263 28.7953C89.5938 28.9843 89.6149 29.1786 89.6872 29.3562C89.7594 29.5338 89.8799 29.6877 90.0351 29.8004C90.1902 29.9131 90.3738 29.9802 90.565 29.994C90.7563 30.0078 90.9476 29.9678 91.1173 29.8786L93.646 28.5492C93.5171 28.4332 93.4197 28.2865 93.3627 28.1227C93.3058 27.9588 93.2913 27.7833 93.3206 27.6124L94.9632 18.0355L94.9498 18.0225L91.2689 19.2185L89.6263 28.7953Z" fill="#F48B19"/>
<path d="M91.1174 29.8787L99.7179 25.3572C109.081 30.2797 108.438 29.9968 108.797 29.9968C109.43 29.9968 109.918 29.4258 109.81 28.7954L108.167 19.2186L115.125 12.4362C115.733 11.8429 115.397 10.8057 114.555 10.6833L104.94 9.28613L90.0351 29.8005C90.1903 29.9132 90.3739 29.9803 90.5651 29.9941C90.7564 30.0079 90.9477 29.9679 91.1174 29.8787Z" fill="#F2D422"/>
<path d="M115.385 11.3828L99.7179 16.4734L90.0351 29.8006C90.1903 29.9133 90.3738 29.9804 90.5651 29.9942C90.7563 30.008 90.9476 29.968 91.1173 29.8788L99.7179 25.3573C109.081 30.2798 108.438 29.9969 108.797 29.9969C109.43 29.9969 109.918 29.4259 109.81 28.7955L108.167 19.2187L115.125 12.4363C115.262 12.3024 115.359 12.1328 115.405 11.9466C115.451 11.7605 115.444 11.5652 115.385 11.3828Z" fill="#F7AC16"/>
<path d="M108.167 19.2185L99.7179 16.4731L90.0351 29.8004C90.1903 29.9131 90.3738 29.9801 90.5651 29.994C90.7563 30.0078 90.9476 29.9678 91.1173 29.8786L99.7179 25.3571C109.081 30.2796 108.438 29.9967 108.797 29.9967C109.43 29.9967 109.918 29.4257 109.81 28.7953L108.167 19.2185Z" fill="#F2D422"/>
<path d="M90.0351 29.8004C90.1903 29.9131 90.3738 29.9801 90.5651 29.994C90.7563 30.0078 90.9476 29.9678 91.1173 29.8786L99.7179 25.3571C109.081 30.2796 108.438 29.9967 108.797 29.9967C109.014 29.9967 109.225 29.928 109.401 29.8004L99.7179 16.4731L90.0351 29.8004Z" fill="#F7AC16"/>
<path d="M99.718 16.4733L99.7179 16.4731L90.0351 29.8004C90.1903 29.9131 90.3738 29.9801 90.5651 29.994C90.7563 30.0078 90.9476 29.9678 91.1173 29.8786L99.7179 25.3571H99.718V16.4733Z" fill="#F2D422"/>
<path d="M93.8446 24.5571L90.0351 29.8004C90.1903 29.9131 90.3738 29.9802 90.5651 29.994C90.7563 30.0078 90.9476 29.9678 91.1173 29.8786L93.6461 28.5492C93.5172 28.4332 93.4197 28.2865 93.3628 28.1227C93.3059 27.9588 93.2914 27.7833 93.3206 27.6124L93.8446 24.5571Z" fill="#EFB616"/>
<path d="M72.5552 10.6834L62.9395 9.28615L58.6391 0.572752C58.263 -0.189431 57.1726 -0.189799 56.7961 0.572752L52.4959 9.28615L42.8802 10.6834C42.0392 10.8056 41.7015 11.8425 42.3107 12.4362L49.2686 19.2186L47.626 28.7954C47.5936 28.9844 47.6147 29.1787 47.6869 29.3563C47.7592 29.5339 47.8797 29.6878 48.0348 29.8005C48.1899 29.9132 48.3735 29.9803 48.5647 29.9941C48.756 30.0079 48.9473 29.968 49.117 29.8787L57.7176 25.3573C67.081 30.2798 66.4379 29.9968 66.7964 29.9968C67.4297 29.9968 67.9174 29.4258 67.8093 28.7954L66.1667 19.2186L73.1247 12.4362C73.7332 11.8429 73.3968 10.8057 72.5552 10.6834Z" fill="#F7AC16"/>
<path d="M57.7177 0C57.5259 1.0186e-05 57.338 0.0536619 57.1751 0.154891C57.0123 0.256119 56.881 0.400888 56.7961 0.572834L52.4958 9.28624L42.8802 10.6834C42.0392 10.8057 41.7015 11.8426 42.3107 12.4363L49.2686 19.2187L47.626 28.7955C47.5936 28.9845 47.6147 29.1788 47.6869 29.3564C47.7592 29.534 47.8797 29.6879 48.0348 29.8006C48.1899 29.9133 48.3735 29.9804 48.5647 29.9942C48.756 30.008 48.9473 29.968 49.117 29.8788L57.7176 25.3573H57.7177V0Z" fill="#F2D422"/>
<path d="M42.8802 10.6834C42.0392 10.8056 41.7015 11.8425 42.3107 12.4362L49.2686 19.2186L47.626 28.7955C47.5936 28.9845 47.6147 29.1787 47.6869 29.3564C47.7592 29.534 47.8797 29.6878 48.0348 29.8006C48.1899 29.9133 48.3735 29.9803 48.5647 29.9941C48.756 30.008 48.9473 29.968 49.117 29.8788L57.7176 25.3573C67.0811 30.2798 66.4379 29.9969 66.7964 29.9969C67.0134 29.9969 67.2249 29.9282 67.4004 29.8006L52.4958 9.28613L42.8802 10.6834Z" fill="#F7AC16"/>
<path d="M52.9629 18.0358C45.5097 10.7706 45.8301 11.16 45.7301 10.7832C45.6893 10.6318 45.681 10.4557 45.7253 10.27L42.8802 10.6834C42.0392 10.8056 41.7015 11.8425 42.3107 12.4362L49.2686 19.2186L47.626 28.7955C47.5936 28.9845 47.6147 29.1788 47.6869 29.3564C47.7592 29.534 47.8797 29.6879 48.0348 29.8006C48.1899 29.9133 48.3735 29.9804 48.5647 29.9942C48.756 30.008 48.9473 29.9681 49.117 29.8788L51.6458 28.5494C51.5169 28.4334 51.4194 28.2867 51.3625 28.1229C51.3056 27.9591 51.2911 27.7835 51.3203 27.6126L52.9629 18.0358Z" fill="#F48B19"/>
<path d="M42.3103 12.4363L49.2682 19.2187L47.6256 28.7955C47.5932 28.9845 47.6143 29.1788 47.6865 29.3564C47.7588 29.534 47.8793 29.6879 48.0344 29.8006C48.1895 29.9133 48.3731 29.9804 48.5643 29.9942C48.7556 30.008 48.9469 29.968 49.1166 29.8788L57.7172 25.3573C67.0807 30.2798 66.4375 29.9969 66.796 29.9969C67.4293 29.9969 67.917 29.4259 67.8089 28.7955L66.1663 19.2187L42.0501 11.3828C41.93 11.8135 42.0503 12.1829 42.3103 12.4363Z" fill="#F2D422"/>
<path d="M42.3103 12.4363L49.2682 19.2187L47.6256 28.7955C47.5932 28.9845 47.6143 29.1788 47.6865 29.3564C47.7588 29.534 47.8793 29.6879 48.0344 29.8006C48.1895 29.9133 48.3731 29.9804 48.5643 29.9942C48.7556 30.008 48.9469 29.968 49.1166 29.8788L51.6454 28.5494C51.5164 28.4334 51.419 28.2867 51.3621 28.1228C51.3052 27.959 51.2907 27.7835 51.3199 27.6126L52.9625 18.0357L48.1811 13.3749L42.0501 11.3828C41.93 11.8135 42.0503 12.1829 42.3103 12.4363Z" fill="#EFB616"/>
<path d="M47.6263 28.7954C47.5938 28.9844 47.6149 29.1787 47.6872 29.3563C47.7594 29.534 47.8799 29.6878 48.0351 29.8005C48.1902 29.9132 48.3738 29.9803 48.565 29.9941C48.7563 30.0079 48.9476 29.968 49.1173 29.8787L57.7179 25.3573C67.0813 30.2798 66.4382 29.9969 66.7966 29.9969C67.43 29.9969 67.9177 29.4259 67.8095 28.7954L66.167 19.2186L73.125 12.4362C73.2623 12.3023 73.3594 12.1328 73.4053 11.9466C73.4512 11.7605 73.4442 11.5652 73.385 11.3828L49.2689 19.2186L47.6263 28.7954Z" fill="#F7AC16"/>
<path d="M47.6263 28.7953C47.5938 28.9843 47.6149 29.1786 47.6872 29.3562C47.7594 29.5338 47.8799 29.6877 48.0351 29.8004C48.1902 29.9131 48.3738 29.9802 48.565 29.994C48.7563 30.0078 48.9476 29.9678 49.1173 29.8786L51.646 28.5492C51.5171 28.4332 51.4197 28.2865 51.3627 28.1227C51.3058 27.9588 51.2913 27.7833 51.3206 27.6124L52.9632 18.0355L52.9498 18.0225L49.2689 19.2185L47.6263 28.7953Z" fill="#F48B19"/>
<path d="M49.1174 29.8787L57.7179 25.3572C67.0814 30.2797 66.4382 29.9968 66.7967 29.9968C67.43 29.9968 67.9177 29.4258 67.8096 28.7954L66.167 19.2186L73.125 12.4362C73.7335 11.8429 73.3971 10.8057 72.5555 10.6833L62.9398 9.28613L48.0351 29.8005C48.1903 29.9132 48.3739 29.9803 48.5651 29.9941C48.7564 30.0079 48.9477 29.9679 49.1174 29.8787Z" fill="#F2D422"/>
<path d="M73.3851 11.3828L57.7179 16.4734L48.0351 29.8006C48.1903 29.9133 48.3738 29.9804 48.5651 29.9942C48.7563 30.008 48.9476 29.968 49.1173 29.8788L57.7179 25.3573C67.0814 30.2798 66.4382 29.9969 66.7967 29.9969C67.43 29.9969 67.9177 29.4259 67.8096 28.7955L66.167 19.2187L73.125 12.4363C73.2623 12.3024 73.3594 12.1328 73.4054 11.9466C73.4513 11.7605 73.4443 11.5652 73.3851 11.3828Z" fill="#F7AC16"/>
<path d="M66.1671 19.2185L57.7179 16.4731L48.0351 29.8004C48.1903 29.9131 48.3738 29.9801 48.5651 29.994C48.7563 30.0078 48.9476 29.9678 49.1173 29.8786L57.7179 25.3571C67.0814 30.2796 66.4382 29.9967 66.7967 29.9967C67.43 29.9967 67.9177 29.4257 67.8096 28.7953L66.1671 19.2185Z" fill="#F2D422"/>
<path d="M48.0351 29.8004C48.1903 29.9131 48.3738 29.9801 48.5651 29.994C48.7563 30.0078 48.9476 29.9678 49.1173 29.8786L57.7179 25.3571C67.0814 30.2796 66.4382 29.9967 66.7967 29.9967C67.0137 29.9967 67.2252 29.928 67.4007 29.8004L57.7179 16.4731L48.0351 29.8004Z" fill="#F7AC16"/>
<path d="M57.718 16.4733L57.7179 16.4731L48.0351 29.8004C48.1903 29.9131 48.3738 29.9801 48.5651 29.994C48.7563 30.0078 48.9476 29.9678 49.1173 29.8786L57.7179 25.3571H57.718V16.4733Z" fill="#F2D422"/>
<path d="M51.8446 24.5571L48.0351 29.8004C48.1903 29.9131 48.3738 29.9802 48.5651 29.994C48.7563 30.0078 48.9476 29.9678 49.1173 29.8786L51.6461 28.5492C51.5172 28.4332 51.4197 28.2865 51.3628 28.1227C51.3059 27.9588 51.2914 27.7833 51.3206 27.6124L51.8446 24.5571Z" fill="#EFB616"/>
<path d="M156.555 10.6834L146.94 9.28615L142.639 0.572752C142.263 -0.189431 141.173 -0.189799 140.796 0.572752L136.496 9.28615L126.88 10.6834C126.039 10.8056 125.701 11.8425 126.311 12.4362L133.269 19.2186L131.626 28.7954C131.594 28.9844 131.615 29.1787 131.687 29.3563C131.759 29.5339 131.88 29.6878 132.035 29.8005C132.19 29.9132 132.373 29.9803 132.565 29.9941C132.756 30.0079 132.947 29.968 133.117 29.8787L141.718 25.3573C151.081 30.2798 150.438 29.9968 150.796 29.9968C151.43 29.9968 151.917 29.4258 151.809 28.7954L150.167 19.2186L157.125 12.4362C157.733 11.8429 157.397 10.8057 156.555 10.6834Z" fill="#F7AC16"/>
<path d="M141.718 0C141.526 1.0186e-05 141.338 0.0536619 141.175 0.154891C141.012 0.256119 140.881 0.400888 140.796 0.572834L136.496 9.28624L126.88 10.6834C126.039 10.8057 125.701 11.8426 126.311 12.4363L133.269 19.2187L131.626 28.7955C131.594 28.9845 131.615 29.1788 131.687 29.3564C131.759 29.534 131.88 29.6879 132.035 29.8006C132.19 29.9133 132.373 29.9804 132.565 29.9942C132.756 30.008 132.947 29.968 133.117 29.8788L141.718 25.3573H141.718V0Z" fill="#F2D422"/>
<path d="M126.88 10.6834C126.039 10.8056 125.701 11.8425 126.311 12.4362L133.269 19.2186L131.626 28.7955C131.594 28.9845 131.615 29.1787 131.687 29.3564C131.759 29.534 131.88 29.6878 132.035 29.8006C132.19 29.9133 132.373 29.9803 132.565 29.9941C132.756 30.008 132.947 29.968 133.117 29.8788L141.718 25.3573C151.081 30.2798 150.438 29.9969 150.796 29.9969C151.013 29.9969 151.225 29.9282 151.4 29.8006L136.496 9.28613L126.88 10.6834Z" fill="#F7AC16"/>
<path d="M136.963 18.0358C129.51 10.7706 129.83 11.16 129.73 10.7832C129.689 10.6318 129.681 10.4557 129.725 10.27L126.88 10.6834C126.039 10.8056 125.701 11.8425 126.311 12.4362L133.269 19.2186L131.626 28.7955C131.594 28.9845 131.615 29.1788 131.687 29.3564C131.759 29.534 131.88 29.6879 132.035 29.8006C132.19 29.9133 132.373 29.9804 132.565 29.9942C132.756 30.008 132.947 29.9681 133.117 29.8788L135.646 28.5494C135.517 28.4334 135.419 28.2867 135.362 28.1229C135.306 27.9591 135.291 27.7835 135.32 27.6126L136.963 18.0358Z" fill="#F48B19"/>
<path d="M126.31 12.4363L133.268 19.2187L131.626 28.7955C131.593 28.9845 131.614 29.1788 131.687 29.3564C131.759 29.534 131.879 29.6879 132.034 29.8006C132.19 29.9133 132.373 29.9804 132.564 29.9942C132.756 30.008 132.947 29.968 133.117 29.8788L141.717 25.3573C151.081 30.2798 150.438 29.9969 150.796 29.9969C151.429 29.9969 151.917 29.4259 151.809 28.7955L150.166 19.2187L126.05 11.3828C125.93 11.8135 126.05 12.1829 126.31 12.4363Z" fill="#F2D422"/>
<path d="M126.31 12.4363L133.268 19.2187L131.626 28.7955C131.593 28.9845 131.614 29.1788 131.687 29.3564C131.759 29.534 131.879 29.6879 132.034 29.8006C132.19 29.9133 132.373 29.9804 132.564 29.9942C132.756 30.008 132.947 29.968 133.117 29.8788L135.645 28.5494C135.516 28.4334 135.419 28.2867 135.362 28.1228C135.305 27.959 135.291 27.7835 135.32 27.6126L136.963 18.0357L132.181 13.3749L126.05 11.3828C125.93 11.8135 126.05 12.1829 126.31 12.4363Z" fill="#EFB616"/>
<path d="M131.626 28.7954C131.594 28.9844 131.615 29.1787 131.687 29.3563C131.759 29.534 131.88 29.6878 132.035 29.8005C132.19 29.9132 132.374 29.9803 132.565 29.9941C132.756 30.0079 132.948 29.968 133.117 29.8787L141.718 25.3573C151.081 30.2798 150.438 29.9969 150.797 29.9969C151.43 29.9969 151.918 29.4259 151.81 28.7954L150.167 19.2186L157.125 12.4362C157.262 12.3023 157.359 12.1328 157.405 11.9466C157.451 11.7605 157.444 11.5652 157.385 11.3828L133.269 19.2186L131.626 28.7954Z" fill="#F7AC16"/>
<path d="M131.626 28.7953C131.594 28.9843 131.615 29.1786 131.687 29.3562C131.759 29.5338 131.88 29.6877 132.035 29.8004C132.19 29.9131 132.374 29.9802 132.565 29.994C132.756 30.0078 132.948 29.9678 133.117 29.8786L135.646 28.5492C135.517 28.4332 135.42 28.2865 135.363 28.1227C135.306 27.9588 135.291 27.7833 135.321 27.6124L136.963 18.0355L136.95 18.0225L133.269 19.2185L131.626 28.7953Z" fill="#F48B19"/>
<path d="M133.117 29.8787L141.718 25.3572C151.081 30.2797 150.438 29.9968 150.797 29.9968C151.43 29.9968 151.918 29.4258 151.81 28.7954L150.167 19.2186L157.125 12.4362C157.733 11.8429 157.397 10.8057 156.555 10.6833L146.94 9.28613L132.035 29.8005C132.19 29.9132 132.374 29.9803 132.565 29.9941C132.756 30.0079 132.948 29.9679 133.117 29.8787Z" fill="#F2D422"/>
<path d="M157.385 11.3828L141.718 16.4734L132.035 29.8006C132.19 29.9133 132.374 29.9804 132.565 29.9942C132.756 30.008 132.948 29.968 133.117 29.8788L141.718 25.3573C151.081 30.2798 150.438 29.9969 150.797 29.9969C151.43 29.9969 151.918 29.4259 151.81 28.7955L150.167 19.2187L157.125 12.4363C157.262 12.3024 157.359 12.1328 157.405 11.9466C157.451 11.7605 157.444 11.5652 157.385 11.3828Z" fill="#F7AC16"/>
<path d="M150.167 19.2185L141.718 16.4731L132.035 29.8004C132.19 29.9131 132.374 29.9801 132.565 29.994C132.756 30.0078 132.948 29.9678 133.117 29.8786L141.718 25.3571C151.081 30.2796 150.438 29.9967 150.797 29.9967C151.43 29.9967 151.918 29.4257 151.81 28.7953L150.167 19.2185Z" fill="#F2D422"/>
<path d="M132.035 29.8004C132.19 29.9131 132.374 29.9801 132.565 29.994C132.756 30.0078 132.948 29.9678 133.117 29.8786L141.718 25.3571C151.081 30.2796 150.438 29.9967 150.797 29.9967C151.014 29.9967 151.225 29.928 151.401 29.8004L141.718 16.4731L132.035 29.8004Z" fill="#F7AC16"/>
<path d="M141.718 16.4733L141.718 16.4731L132.035 29.8004C132.19 29.9131 132.374 29.9801 132.565 29.994C132.756 30.0078 132.948 29.9678 133.117 29.8786L141.718 25.3571H141.718V16.4733Z" fill="#F2D422"/>
<path d="M135.845 24.5571L132.035 29.8004C132.19 29.9131 132.374 29.9802 132.565 29.994C132.756 30.0078 132.948 29.9678 133.117 29.8786L135.646 28.5492C135.517 28.4332 135.42 28.2865 135.363 28.1227C135.306 27.9588 135.291 27.7833 135.321 27.6124L135.845 24.5571Z" fill="#EFB616"/>
<path d="M198.555 10.6834L188.94 9.28615L184.639 0.572752C184.263 -0.189431 183.173 -0.189799 182.796 0.572752L178.496 9.28615L168.88 10.6834C168.039 10.8056 167.701 11.8425 168.311 12.4362L175.269 19.2186L173.626 28.7954C173.594 28.9844 173.615 29.1787 173.687 29.3563C173.759 29.5339 173.88 29.6878 174.035 29.8005C174.19 29.9132 174.373 29.9803 174.565 29.9941C174.756 30.0079 174.947 29.968 175.117 29.8787L183.718 25.3573C193.081 30.2798 192.438 29.9968 192.796 29.9968C193.43 29.9968 193.917 29.4258 193.809 28.7954L192.167 19.2186L199.125 12.4362C199.733 11.8429 199.397 10.8057 198.555 10.6834Z" fill="#D5D5D5"/>
<path d="M183.718 0C183.526 1.0186e-05 183.338 0.0536619 183.175 0.154891C183.012 0.256119 182.881 0.400888 182.796 0.572834L178.496 9.28624L168.88 10.6834C168.039 10.8057 167.701 11.8426 168.311 12.4363L175.269 19.2187L173.626 28.7955C173.594 28.9845 173.615 29.1788 173.687 29.3564C173.759 29.534 173.88 29.6879 174.035 29.8006C174.19 29.9133 174.373 29.9804 174.565 29.9942C174.756 30.008 174.947 29.968 175.117 29.8788L183.718 25.3573H183.718V0Z" fill="#F2D422"/>
<path d="M168.88 10.6834C168.039 10.8056 167.701 11.8425 168.311 12.4362L175.269 19.2186L173.626 28.7955C173.594 28.9845 173.615 29.1787 173.687 29.3564C173.759 29.534 173.88 29.6878 174.035 29.8006C174.19 29.9133 174.373 29.9803 174.565 29.9941C174.756 30.008 174.947 29.968 175.117 29.8788L183.718 25.3573C193.081 30.2798 192.438 29.9969 192.796 29.9969C193.013 29.9969 193.225 29.9282 193.4 29.8006L178.496 9.28613L168.88 10.6834Z" fill="#F7AC16"/>
<path d="M178.963 18.0358C171.51 10.7706 171.83 11.16 171.73 10.7832C171.689 10.6318 171.681 10.4557 171.725 10.27L168.88 10.6834C168.039 10.8056 167.701 11.8425 168.311 12.4362L175.269 19.2186L173.626 28.7955C173.594 28.9845 173.615 29.1788 173.687 29.3564C173.759 29.534 173.88 29.6879 174.035 29.8006C174.19 29.9133 174.373 29.9804 174.565 29.9942C174.756 30.008 174.947 29.9681 175.117 29.8788L177.646 28.5494C177.517 28.4334 177.419 28.2867 177.362 28.1229C177.306 27.9591 177.291 27.7835 177.32 27.6126L178.963 18.0358Z" fill="#F48B19"/>
<path d="M168.31 12.4363L175.268 19.2187L173.626 28.7955C173.593 28.9845 173.614 29.1788 173.687 29.3564C173.759 29.534 173.879 29.6879 174.034 29.8006C174.19 29.9133 174.373 29.9804 174.564 29.9942C174.756 30.008 174.947 29.968 175.117 29.8788L183.717 25.3573C193.081 30.2798 192.438 29.9969 192.796 29.9969C193.429 29.9969 193.917 29.4259 193.809 28.7955L192.166 19.2187L168.05 11.3828C167.93 11.8135 168.05 12.1829 168.31 12.4363Z" fill="#F2D422"/>
<path d="M168.31 12.4363L175.268 19.2187L173.626 28.7955C173.593 28.9845 173.614 29.1788 173.687 29.3564C173.759 29.534 173.879 29.6879 174.034 29.8006C174.19 29.9133 174.373 29.9804 174.564 29.9942C174.756 30.008 174.947 29.968 175.117 29.8788L177.645 28.5494C177.516 28.4334 177.419 28.2867 177.362 28.1228C177.305 27.959 177.291 27.7835 177.32 27.6126L178.963 18.0357L174.181 13.3749L168.05 11.3828C167.93 11.8135 168.05 12.1829 168.31 12.4363Z" fill="#EFB616"/>
<path d="M173.626 28.7954C173.594 28.9844 173.615 29.1787 173.687 29.3563C173.759 29.534 173.88 29.6878 174.035 29.8005C174.19 29.9132 174.374 29.9803 174.565 29.9941C174.756 30.0079 174.948 29.968 175.117 29.8787L183.718 25.3573C193.081 30.2798 192.438 29.9969 192.797 29.9969C193.43 29.9969 193.918 29.4259 193.81 28.7954L192.167 19.2186L199.125 12.4362C199.262 12.3023 199.359 12.1328 199.405 11.9466C199.451 11.7605 199.444 11.5652 199.385 11.3828L175.269 19.2186L173.626 28.7954Z" fill="#F7AC16"/>
<path d="M173.626 28.7953C173.594 28.9843 173.615 29.1786 173.687 29.3562C173.759 29.5338 173.88 29.6877 174.035 29.8004C174.19 29.9131 174.374 29.9802 174.565 29.994C174.756 30.0078 174.948 29.9678 175.117 29.8786L177.646 28.5492C177.517 28.4332 177.42 28.2865 177.363 28.1227C177.306 27.9588 177.291 27.7833 177.321 27.6124L178.963 18.0355L178.95 18.0225L175.269 19.2185L173.626 28.7953Z" fill="#F48B19"/>
<path d="M175.117 29.8787L183.718 25.3572C193.081 30.2797 192.438 29.9968 192.797 29.9968C193.43 29.9968 193.918 29.4258 193.81 28.7954L192.167 19.2186L199.125 12.4362C199.733 11.8429 199.397 10.8057 198.555 10.6833L188.94 9.28613L174.035 29.8005C174.19 29.9132 174.374 29.9803 174.565 29.9941C174.756 30.0079 174.948 29.9679 175.117 29.8787Z" fill="#E4E4E4"/>
<path d="M199.385 11.3828L183.718 16.4734L174.035 29.8006C174.19 29.9133 174.374 29.9804 174.565 29.9942C174.756 30.008 174.948 29.968 175.117 29.8788L183.718 25.3573C193.081 30.2798 192.438 29.9969 192.797 29.9969C193.43 29.9969 193.918 29.4259 193.81 28.7955L192.167 19.2187L199.125 12.4363C199.262 12.3024 199.359 12.1328 199.405 11.9466C199.451 11.7605 199.444 11.5652 199.385 11.3828Z" fill="#ACACAC"/>
<path d="M192.167 19.2185L183.718 16.4731L174.035 29.8004C174.19 29.9131 174.374 29.9801 174.565 29.994C174.756 30.0078 174.948 29.9678 175.117 29.8786L183.718 25.3571C193.081 30.2796 192.438 29.9967 192.797 29.9967C193.43 29.9967 193.918 29.4257 193.81 28.7953L192.167 19.2185Z" fill="#686868"/>
<path d="M174.035 29.8004C174.19 29.9131 174.374 29.9801 174.565 29.994C174.756 30.0078 174.948 29.9678 175.117 29.8786L183.718 25.3571C193.081 30.2796 192.438 29.9967 192.797 29.9967C193.014 29.9967 193.225 29.928 193.401 29.8004L183.718 16.4731L174.035 29.8004Z" fill="#AFAFAF"/>
<path d="M183.718 16.4733L183.718 16.4731L174.035 29.8004C174.19 29.9131 174.374 29.9801 174.565 29.994C174.756 30.0078 174.948 29.9678 175.117 29.8786L183.718 25.3571H183.718V16.4733Z" fill="#F2D422"/>
<path d="M177.845 24.5571L174.035 29.8004C174.19 29.9131 174.374 29.9802 174.565 29.994C174.756 30.0078 174.948 29.9678 175.117 29.8786L177.646 28.5492C177.517 28.4332 177.42 28.2865 177.363 28.1227C177.306 27.9588 177.291 27.7833 177.321 27.6124L177.845 24.5571Z" fill="#EFB616"/>
</svg>
