<svg width="76" height="68" viewBox="0 0 76 68" fill="none" xmlns="http://www.w3.org/2000/svg">
<g filter="url(#filter0_d_1_2565)">
<path d="M9.93241 55.8322L11.1275 51.5325C11.2981 50.9187 11.928 50.5733 12.5344 50.7611C13.1409 50.949 13.4942 51.5988 13.3236 52.2126L12.1284 56.5124C11.9578 57.1262 11.3279 57.4715 10.7215 57.2837C10.115 57.0959 9.76174 56.446 9.93241 55.8322Z" fill="#6D28D9"/>
</g>
<g filter="url(#filter1_d_1_2565)">
<path d="M2.83344 49.594L6.43895 47.1671C6.9728 46.8077 7.6953 46.9502 8.05268 47.4852C8.41007 48.0203 8.26704 48.7453 7.73319 49.1046L4.12767 51.5315C3.59384 51.8909 2.87134 51.7485 2.51394 51.2134C2.15654 50.6784 2.29959 49.9533 2.83344 49.594Z" fill="#6D28D9"/>
</g>
<g filter="url(#filter2_d_1_2565)">
<path d="M1.24974 40.3549L5.66613 40.8775C6.29657 40.9522 6.76132 41.527 6.70418 42.1614C6.64704 42.7959 6.08964 43.2498 5.4592 43.1752L1.04281 42.6526C0.412373 42.578 -0.0523856 42.0031 0.00475168 41.3686C0.0618964 40.7342 0.619293 40.2804 1.24974 40.3549Z" fill="#6D28D9"/>
</g>
<g filter="url(#filter3_d_1_2565)">
<path d="M74.9573 15.0084L70.541 14.4858C69.9105 14.4112 69.3531 14.865 69.296 15.4995C69.2388 16.134 69.7036 16.7088 70.334 16.7834L74.7507 17.306C75.3808 17.3806 75.938 16.9267 75.9952 16.2923C76.0524 15.6578 75.5881 15.083 74.9573 15.0084Z" fill="#6D28D9"/>
</g>
<g filter="url(#filter4_d_1_2565)">
<path d="M71.9011 6.05091L68.2957 8.4778C67.7619 8.83711 67.6188 9.56214 67.9762 10.0972C68.3336 10.6322 69.0561 10.7747 69.59 10.4153L73.1955 7.98845C73.7297 7.62906 73.8723 6.90403 73.515 6.36899C73.1576 5.83395 72.4354 5.69152 71.9011 6.05091Z" fill="#6D28D9"/>
</g>
<g filter="url(#filter5_d_1_2565)">
<path d="M63.9863 1.07369L62.7911 5.37345C62.6205 5.98725 62.9738 6.63709 63.5802 6.82492C64.1867 7.01275 64.8166 6.6674 64.9872 6.0536L66.1823 1.75386C66.3529 1.14006 65.9996 0.490224 65.3932 0.302399C64.7867 0.114574 64.1569 0.459894 63.9863 1.07369Z" fill="#6D28D9"/>
</g>
<path d="M57.3877 46.5614C57.5048 46.4254 57.6219 46.2893 57.7314 46.1451C57.8409 46.0007 58.1105 45.6436 58.2886 45.3844L58.5514 45.0033C58.8065 44.6139 59.0531 44.2398 59.2707 43.8009L62.249 38.3256C62.0245 38.7404 61.7848 39.1386 61.5217 39.5275C61.4445 39.6578 61.344 39.0056 61.2589 39.1354C61.0812 39.3867 60.9031 39.6459 60.7096 39.8964L60.358 40.3124C60.1737 40.5318 59.9894 40.7512 59.7977 40.9623L59.3982 41.3836C59.1991 41.5786 58.9997 41.7814 58.7931 41.968L58.3629 42.3641C58.1484 42.5504 57.9263 42.7283 57.7041 42.9062L57.244 43.2612C57.0087 43.4385 56.7632 43.6073 56.5074 43.7677C56.36 43.8705 56.2123 43.9813 56.0573 44.0759C55.7635 44.2579 55.4704 44.4242 55.1694 44.5902C55.0472 44.6627 54.9246 44.7431 54.7948 44.8075C54.3639 45.0377 53.918 45.2513 53.4644 45.4566L53.2302 45.547C52.85 45.7088 52.4223 45.8681 52.0669 46.0074L51.5593 46.1783L50.6094 46.4761L50.0154 46.6267C49.7102 46.7056 49.4069 47.486 49.0946 47.5487L48.4393 47.6199C48.1352 47.6751 47.8868 47.7054 47.5755 47.7444L46.7834 47.9353L45.8372 48.0194L45.2426 48.05L44.139 48.0677L43.522 48.1109C43.1339 48.0906 42.7299 48.0695 42.3577 48.05L41.7715 48.0194C41.1854 47.9888 40.5934 47.9104 40.0017 47.8242C26.3517 45.8942 15.5823 34.4017 14.9105 22.4875C14.8325 19.4358 15.5409 16.4222 16.9682 13.7339L13.9975 19.2175C12.5472 21.9119 11.8268 24.9409 11.9064 28.0088C12.1254 40.0721 23.3713 51.4168 36.9976 53.3455C37.5972 53.4322 38.1899 53.4947 38.7753 53.5412L40.5179 53.6323L41.1437 53.665L42.2006 53.6413L42.8615 53.5968C43.1962 53.567 43.5227 53.5446 43.842 53.506L44.5045 53.4221L45.4481 53.2662L46.0887 53.1417C46.401 53.079 46.7062 53.0003 47.011 52.9293L47.6054 52.7708C47.935 52.6775 48.249 52.5755 48.5631 52.4734L49.0704 52.3104C49.4657 52.1652 49.8773 52.013 50.2341 51.8421L50.4683 51.7517C50.9215 51.5542 51.3599 51.3324 51.7986 51.1026C51.9205 51.0378 52.0431 50.9574 52.1729 50.8931C52.4664 50.7189 52.7673 50.553 53.0532 50.3705L53.5109 50.0707C53.7564 49.9018 54.0099 49.7334 54.2479 49.5564L54.7001 49.2009C54.9301 49.0234 55.1443 48.845 55.3589 48.6588C55.5734 48.4726 55.6561 48.3979 55.797 48.2631C55.9378 48.1284 56.2026 47.8815 56.402 47.6788L56.8011 47.2653C57.0188 47.0081 57.203 46.7887 57.3877 46.5614Z" fill="url(#paint0_linear_1_2565)"/>
<path d="M64.3713 29.4692C64.1598 17.405 52.9009 6.04358 39.2679 4.11332C25.635 2.1831 14.7041 10.4002 14.9232 22.4726C15.1423 34.545 26.3937 45.8982 40.0266 47.8285C53.6595 49.7586 64.5901 41.5494 64.3713 29.4692Z" fill="url(#paint1_linear_1_2565)"/>
<path d="M64.1779 29.471C64.394 41.4031 53.599 49.555 40.0519 47.637C26.494 45.7174 15.3333 34.4289 15.1162 22.4708C14.8998 10.5464 25.6952 2.38682 39.2423 4.30489C52.8003 6.22449 63.9684 17.5213 64.1779 29.471Z" stroke="url(#paint2_linear_1_2565)" stroke-opacity="0.6" stroke-width="0.520417"/>
<path opacity="0.3" d="M37.9195 67.2704C50.0456 67.2704 59.8758 66.0585 59.8758 64.5637C59.8758 63.0688 50.0456 61.8569 37.9195 61.8569C25.7933 61.8569 15.9631 63.0688 15.9631 64.5637C15.9631 66.0585 25.7933 67.2704 37.9195 67.2704Z" fill="url(#paint3_radial_1_2565)"/>
<path opacity="0.4" d="M39.7953 30.5393C40.5757 30.5393 41.2083 29.9067 41.2083 29.1264C41.2083 28.346 40.5757 27.7134 39.7953 27.7134C39.015 27.7134 38.3824 28.346 38.3824 29.1264C38.3824 29.9067 39.015 30.5393 39.7953 30.5393Z" fill="white"/>
<path d="M43.8272 23.6826H35.7656C32.2115 23.6826 31.1279 24.7662 31.1279 28.3202V29.9326C31.1279 33.4866 32.2115 34.5702 35.7656 34.5702H43.8272C47.3812 34.5702 48.4647 33.4866 48.4647 29.9326V28.3202C48.4647 24.7662 47.3812 23.6826 43.8272 23.6826ZM39.7964 31.7442C38.3487 31.7442 37.1785 30.5654 37.1785 29.1264C37.1785 27.6874 38.3487 26.5086 39.7964 26.5086C41.244 26.5086 42.4142 27.6874 42.4142 29.1264C42.4142 30.5654 41.244 31.7442 39.7964 31.7442Z" fill="white"/>
<path d="M35.9752 26.8788L35.1468 26.2937C33.0721 24.8286 32.1064 23.2658 34.1316 20.3981C36.1568 17.5304 37.9526 17.9178 40.0272 19.3829L40.8556 19.968C41.1178 19.6119 41.3619 19.2961 41.6195 19.0217L40.7273 18.3916C38.8155 17.0415 35.9556 15.7116 33.1403 19.6981C30.3251 23.6845 32.5349 25.9349 34.4467 27.285L35.3318 27.9101C35.5064 27.5877 35.7202 27.2399 35.9752 26.8788Z" fill="white"/>
<defs>
<filter id="filter0_d_1_2565" x="9.88947" y="50.4588" width="3.47699" height="6.87618" filterUnits="userSpaceOnUse" color-interpolation-filters="sRGB">
<feFlood flood-opacity="0" result="BackgroundImageFix"/>
<feColorMatrix in="SourceAlpha" type="matrix" values="0 0 0 0 0 0 0 0 0 0 0 0 0 0 0 0 0 0 127 0" result="hardAlpha"/>
<feOffset dy="-0.251176"/>
<feComposite in2="hardAlpha" operator="out"/>
<feColorMatrix type="matrix" values="0 0 0 0 0.235294 0 0 0 0 0.235294 0 0 0 0 0.235294 0 0 0 0.17 0"/>
<feBlend mode="normal" in2="BackgroundImageFix" result="effect1_dropShadow_1_2565"/>
<feBlend mode="normal" in="SourceGraphic" in2="effect1_dropShadow_1_2565" result="shape"/>
</filter>
<filter id="filter1_d_1_2565" x="2.3172" y="46.7176" width="5.93219" height="5.01241" filterUnits="userSpaceOnUse" color-interpolation-filters="sRGB">
<feFlood flood-opacity="0" result="BackgroundImageFix"/>
<feColorMatrix in="SourceAlpha" type="matrix" values="0 0 0 0 0 0 0 0 0 0 0 0 0 0 0 0 0 0 127 0" result="hardAlpha"/>
<feOffset dy="-0.251176"/>
<feComposite in2="hardAlpha" operator="out"/>
<feColorMatrix type="matrix" values="0 0 0 0 0.235294 0 0 0 0 0.235294 0 0 0 0 0.235294 0 0 0 0.17 0"/>
<feBlend mode="normal" in2="BackgroundImageFix" result="effect1_dropShadow_1_2565"/>
<feBlend mode="normal" in="SourceGraphic" in2="effect1_dropShadow_1_2565" result="shape"/>
</filter>
<filter id="filter2_d_1_2565" x="0" y="40.0957" width="6.70892" height="3.08736" filterUnits="userSpaceOnUse" color-interpolation-filters="sRGB">
<feFlood flood-opacity="0" result="BackgroundImageFix"/>
<feColorMatrix in="SourceAlpha" type="matrix" values="0 0 0 0 0 0 0 0 0 0 0 0 0 0 0 0 0 0 127 0" result="hardAlpha"/>
<feOffset dy="-0.251176"/>
<feComposite in2="hardAlpha" operator="out"/>
<feColorMatrix type="matrix" values="0 0 0 0 0.235294 0 0 0 0 0.235294 0 0 0 0 0.235294 0 0 0 0.17 0"/>
<feBlend mode="normal" in2="BackgroundImageFix" result="effect1_dropShadow_1_2565"/>
<feBlend mode="normal" in="SourceGraphic" in2="effect1_dropShadow_1_2565" result="shape"/>
</filter>
<filter id="filter3_d_1_2565" x="69.2912" y="14.2266" width="6.70877" height="3.08736" filterUnits="userSpaceOnUse" color-interpolation-filters="sRGB">
<feFlood flood-opacity="0" result="BackgroundImageFix"/>
<feColorMatrix in="SourceAlpha" type="matrix" values="0 0 0 0 0 0 0 0 0 0 0 0 0 0 0 0 0 0 127 0" result="hardAlpha"/>
<feOffset dy="-0.251176"/>
<feComposite in2="hardAlpha" operator="out"/>
<feColorMatrix type="matrix" values="0 0 0 0 0.235294 0 0 0 0 0.235294 0 0 0 0 0.235294 0 0 0 0.17 0"/>
<feBlend mode="normal" in2="BackgroundImageFix" result="effect1_dropShadow_1_2565"/>
<feBlend mode="normal" in="SourceGraphic" in2="effect1_dropShadow_1_2565" result="shape"/>
</filter>
<filter id="filter4_d_1_2565" x="67.7795" y="5.60136" width="5.93231" height="5.01241" filterUnits="userSpaceOnUse" color-interpolation-filters="sRGB">
<feFlood flood-opacity="0" result="BackgroundImageFix"/>
<feColorMatrix in="SourceAlpha" type="matrix" values="0 0 0 0 0 0 0 0 0 0 0 0 0 0 0 0 0 0 127 0" result="hardAlpha"/>
<feOffset dy="-0.251176"/>
<feComposite in2="hardAlpha" operator="out"/>
<feColorMatrix type="matrix" values="0 0 0 0 0.235294 0 0 0 0 0.235294 0 0 0 0 0.235294 0 0 0 0.17 0"/>
<feBlend mode="normal" in2="BackgroundImageFix" result="effect1_dropShadow_1_2565"/>
<feBlend mode="normal" in="SourceGraphic" in2="effect1_dropShadow_1_2565" result="shape"/>
</filter>
<filter id="filter5_d_1_2565" x="62.7482" y="4.47035e-05" width="3.47702" height="6.87593" filterUnits="userSpaceOnUse" color-interpolation-filters="sRGB">
<feFlood flood-opacity="0" result="BackgroundImageFix"/>
<feColorMatrix in="SourceAlpha" type="matrix" values="0 0 0 0 0 0 0 0 0 0 0 0 0 0 0 0 0 0 127 0" result="hardAlpha"/>
<feOffset dy="-0.251176"/>
<feComposite in2="hardAlpha" operator="out"/>
<feColorMatrix type="matrix" values="0 0 0 0 0.235294 0 0 0 0 0.235294 0 0 0 0 0.235294 0 0 0 0.17 0"/>
<feBlend mode="normal" in2="BackgroundImageFix" result="effect1_dropShadow_1_2565"/>
<feBlend mode="normal" in="SourceGraphic" in2="effect1_dropShadow_1_2565" result="shape"/>
</filter>
<linearGradient id="paint0_linear_1_2565" x1="10.4662" y1="26.2671" x2="58.5103" y2="49.7228" gradientUnits="userSpaceOnUse">
<stop stop-color="#A78BFA"/>
<stop offset="0.166667" stop-color="#EDE9FE"/>
<stop offset="0.333333" stop-color="#8B5CF6"/>
<stop offset="0.5" stop-color="#6D28D9"/>
<stop offset="0.666667" stop-color="#8B5CF6"/>
<stop offset="0.833333" stop-color="#EDE9FE"/>
<stop offset="1" stop-color="#A78BFA"/>
</linearGradient>
<linearGradient id="paint1_linear_1_2565" x1="22.9001" y1="6.56101" x2="60.4968" y2="41.1411" gradientUnits="userSpaceOnUse">
<stop stop-color="#F87171"/>
<stop offset="0.0001" stop-color="#A78BFA"/>
<stop offset="1" stop-color="#6D28D9"/>
</linearGradient>
<linearGradient id="paint2_linear_1_2565" x1="21.7444" y1="8.88111" x2="61.2752" y2="41.1523" gradientUnits="userSpaceOnUse">
<stop stop-color="#6D28D9"/>
<stop offset="1" stop-color="#8B5CF6"/>
</linearGradient>
<radialGradient id="paint3_radial_1_2565" cx="0" cy="0" r="1" gradientUnits="userSpaceOnUse" gradientTransform="translate(37.9195 64.5637) rotate(89.9999) scale(2.70672 21.9564)">
<stop stop-color="#2B3340" stop-opacity="0.7"/>
<stop offset="0.0001" stop-color="#2B3340" stop-opacity="0.6"/>
<stop offset="1" stop-color="#2B3340" stop-opacity="0"/>
</radialGradient>
</defs>
</svg>
