<svg width="141" height="30" viewBox="0 0 141 30" fill="none" xmlns="http://www.w3.org/2000/svg">
<g clip-path="url(#clip0_476_316)">
<path d="M9.11952 7.92548L7.94824 12.2516L14.6524 7.90085L10.2678 24.3173L14.7209 24.321L21.1982 0.0732422" fill="#3395FF"/>
<path d="M1.90387 17.4194L0.0595703 24.3209H9.18664L12.9214 10.2814L1.90387 17.4194ZM33.6081 11.3433C33.385 12.1754 32.9551 12.7866 32.3141 13.1769C31.6745 13.5664 30.7769 13.762 29.6183 13.762H25.9371L27.2296 8.92615H30.9108C32.0679 8.92615 32.8629 9.12018 33.2942 9.5157C33.7256 9.91122 33.8297 10.5157 33.6081 11.3515M37.4194 11.247C37.8879 9.50078 37.6945 8.15749 36.8378 7.21719C35.9826 6.28436 34.4819 5.81421 32.3401 5.81421H24.1248L19.1793 24.3291H23.1706L25.1637 16.8664H27.7814C28.3689 16.8664 28.8315 16.9635 29.1691 17.15C29.5075 17.3441 29.706 17.6799 29.767 18.165L30.4794 24.3291H34.7555L34.0624 18.5829C33.9211 17.2993 33.3359 16.5456 32.3074 16.3217C33.6185 15.9411 34.7169 15.3067 35.6018 14.4261C36.4806 13.552 37.1085 12.4564 37.4194 11.2545M47.1213 17.7023C46.7866 18.956 46.2735 19.9038 45.5797 20.5679C44.8851 21.2321 44.0551 21.5605 43.0869 21.5605C42.1008 21.5605 41.4322 21.2396 41.079 20.5903C40.725 19.9411 40.7131 19.0008 41.0418 17.7694C41.3705 16.5381 41.8948 15.5754 42.6161 14.8814C43.3375 14.1873 44.1808 13.8403 45.1491 13.8403C46.1159 13.8403 46.7777 14.1761 47.1124 14.8426C47.4545 15.512 47.4619 16.4694 47.1272 17.7157L47.1213 17.7023ZM48.8704 11.15L48.3707 13.0232C48.155 12.3515 47.7363 11.8142 47.1176 11.4112C46.4974 11.0157 45.7299 10.8142 44.8144 10.8142C43.6915 10.8142 42.6132 11.1053 41.5795 11.6873C40.5458 12.2694 39.6385 13.0903 38.8651 14.15C38.0916 15.2097 37.5265 16.4112 37.1621 17.762C36.8051 19.1202 36.7307 20.3067 36.9464 21.3366C37.1695 22.3739 37.638 23.165 38.3594 23.7172C39.0882 24.2769 40.0177 24.553 41.1556 24.553C42.0597 24.5576 42.9536 24.3614 43.7733 23.9784C44.5837 23.6116 45.3045 23.0717 45.8853 22.3963L45.3647 24.3485H49.2244L52.7487 11.1567H48.8816L48.8704 11.15ZM66.6181 11.15H55.3939L54.6093 14.0903H61.1402L52.5062 21.5754L51.7685 24.3366H63.3549L64.1395 21.3963H57.1415L65.9079 13.7993M76.4978 17.6799C76.1505 18.9784 75.6351 19.9545 74.9547 20.5903C74.2742 21.2321 73.4502 21.553 72.4827 21.553C70.4599 21.553 69.7951 20.262 70.4852 17.6799C70.8273 16.3963 71.3449 15.4314 72.0365 14.7814C72.7281 14.1291 73.5662 13.8038 74.5516 13.8038C75.5184 13.8038 76.1713 14.1269 76.5075 14.7776C76.8436 15.4269 76.8406 16.3948 76.4978 17.6784M78.7571 11.6463C77.8684 11.0911 76.7343 10.8135 75.351 10.8135C73.9507 10.8135 72.6545 11.0896 71.4616 11.6418C70.2738 12.1906 69.2298 13.0098 68.4126 14.0344C67.5723 15.0717 66.9676 16.2881 66.5965 17.6761C66.2322 19.059 66.1875 20.2732 66.4701 21.3127C66.7527 22.35 67.3477 23.1485 68.2401 23.7008C69.1399 24.2575 70.2852 24.5344 71.6907 24.5344C73.0739 24.5344 74.3605 24.2553 75.5429 23.7C76.7253 23.1418 77.7367 22.3493 78.5771 21.3045C79.4174 20.2642 80.0198 19.0508 80.3916 17.6627C80.7635 16.2747 80.8081 15.0627 80.5255 14.0209C80.2429 12.9836 79.6554 12.1851 78.7704 11.6291M92.5358 14.6739L93.5249 11.0844C93.1902 10.9127 92.7515 10.8232 92.2011 10.8232C91.3162 10.8232 90.4684 11.0426 89.6503 11.4873C88.9468 11.865 88.3489 12.3978 87.8432 13.065L88.3564 11.1321L87.2356 11.1366H84.4841L80.9368 24.3232H84.8507L86.6913 17.4299C86.959 16.4276 87.4409 15.6388 88.1362 15.0791C88.8279 14.5172 89.6905 14.2358 90.7316 14.2358C91.3712 14.2358 91.9661 14.3829 92.5313 14.6761M103.426 17.7433C103.091 18.9747 102.586 19.915 101.894 20.5642C101.203 21.2164 100.37 21.5418 99.4028 21.5418C98.4361 21.5418 97.7742 21.2135 97.4247 20.5567C97.0677 19.8963 97.0603 18.9448 97.3949 17.6941C97.7296 16.4441 98.2427 15.4851 98.9492 14.8209C99.6557 14.1515 100.489 13.8172 101.455 13.8172C102.407 13.8172 103.047 14.1605 103.389 14.8545C103.731 15.5485 103.738 16.5112 103.41 17.7426M106.146 11.6679C105.421 11.0859 104.496 10.7948 103.373 10.7948C102.389 10.7948 101.451 11.0187 100.561 11.4709C99.6728 11.9224 98.9514 12.5381 98.3974 13.3172L98.4108 13.2276L99.0675 11.1306H95.245L94.2708 14.7799L94.241 14.9067L90.2252 29.9396H94.1443L96.1671 22.3724C96.3679 23.0456 96.7769 23.5739 97.4016 23.956C98.0263 24.3366 98.7975 24.5254 99.7144 24.5254C100.852 24.5254 101.938 24.2493 102.968 23.697C104.002 23.1433 104.894 22.3463 105.653 21.3164C106.411 20.2866 106.974 19.0926 107.333 17.7418C107.698 16.3888 107.772 15.1821 107.564 14.1261C107.352 13.0687 106.883 12.25 106.158 11.6709M119.147 17.6896C118.812 18.9358 118.299 19.8911 117.607 20.5478C116.916 21.209 116.083 21.5381 115.116 21.5381C114.127 21.5381 113.457 21.2172 113.108 20.5679C112.751 19.9187 112.744 18.9784 113.071 17.747C113.398 16.5157 113.92 15.553 114.641 14.859C115.363 14.165 116.207 13.8187 117.175 13.8187C118.142 13.8187 118.796 14.1545 119.138 14.8187C119.48 15.4851 119.483 16.4426 119.15 17.6918L119.147 17.6896ZM120.894 11.1336L120.394 13.0067C120.178 12.3314 119.762 11.7941 119.144 11.3948C118.52 10.9963 117.754 10.7978 116.839 10.7978C115.716 10.7978 114.632 11.0888 113.597 11.6709C112.563 12.253 111.656 13.0694 110.882 14.1261C110.109 15.1829 109.544 16.3873 109.179 17.7381C108.818 19.0941 108.748 20.2829 108.963 21.3172C109.181 22.347 109.651 23.1426 110.376 23.6978C111.101 24.25 112.035 24.5291 113.173 24.5291C114.087 24.5291 114.961 24.3381 115.79 23.9545C116.599 23.586 117.318 23.0454 117.897 22.3702L117.377 24.3239H121.236L124.76 11.1373H120.9L120.894 11.1336ZM140.964 11.1381L140.966 11.1344H138.594C138.518 11.1344 138.451 11.1381 138.382 11.1396H137.151L136.519 12.0202L136.363 12.2291L136.296 12.3336L131.294 19.3247L130.261 11.1381H126.165L128.239 23.5784L123.658 29.9441H127.741L128.849 28.3672C128.88 28.3209 128.909 28.2821 128.946 28.2329L130.24 26.3896L130.277 26.3373L136.073 18.0911L140.958 11.1508L140.966 11.1463H140.964V11.1381Z" fill="#072654"/>
</g>
<defs>
<clipPath id="clip0_476_316">
<rect width="141" height="30" fill="white"/>
</clipPath>
</defs>
</svg>
