<svg width="357" height="30" viewBox="0 0 357 30" fill="none" xmlns="http://www.w3.org/2000/svg">
<rect x="0.5" y="0.5" width="73" height="29" rx="4.5" fill="white"/>
<rect x="0.5" y="0.5" width="73" height="29" rx="4.5" stroke="#E5E6E8"/>
<mask id="mask0_476_204" style="mask-type:luminance" maskUnits="userSpaceOnUse" x="12" y="10" width="51" height="10">
<path d="M62.9886 10H12V19.0454H62.9886V10Z" fill="white"/>
</mask>
<g mask="url(#mask0_476_204)">
<path d="M51.3377 18.9865H48.6807L52.3759 10.001H55.0332L51.3377 18.9865Z" fill="#66686C"/>
<path d="M49.96 10.2853C49.7758 10.1144 49.4916 10.0281 49.1057 10.0281H34.4946L33.7709 11.788H36.4294V11.787H47.0629L46.2893 13.6676H35.6556L35.6566 13.6638H32.999L30.7935 19.0249H33.4523L34.9324 15.4266H46.8856C47.2588 15.4266 47.6102 15.3408 47.9406 15.1694C48.2704 14.9977 48.4874 14.7861 48.5914 14.5335L50.0715 10.9344C50.1795 10.6732 50.1421 10.4565 49.96 10.2853Z" fill="#66686C"/>
<path d="M29.2453 18.4258C29.0985 18.7816 28.6174 19.0276 28.0688 19.0276H14.3595C13.986 19.0276 13.7083 18.942 13.5257 18.7707C13.3433 18.5992 13.3041 18.3871 13.4085 18.1345L16.7535 10.0273H19.4131L16.4253 17.2683H27.0639L30.0517 10.0273H32.7107L29.2453 18.4258Z" fill="#66686C"/>
<path d="M59.6229 10.0181L62.9869 14.5225L55.915 19.0257L59.6229 10.0181Z" fill="#27803B"/>
<path d="M57.2673 10.0181L60.629 14.5225L53.5542 19.0257L57.2673 10.0181Z" fill="#E9661C"/>
</g>
<rect x="94.5" y="0.5" width="73" height="29" rx="4.5" fill="white"/>
<rect x="94.5" y="0.5" width="73" height="29" rx="4.5" stroke="#E5E6E8"/>
<path d="M154.963 10.0417C154.527 9.18786 153.342 8.57469 151.951 8.57469H151.92C151.015 8.57469 150.201 8.83331 149.62 9.24854C149.036 8.83331 148.222 8.57469 147.317 8.57469H147.289C146.492 8.57469 145.766 8.77475 145.207 9.10574V8.93741C145.187 8.76975 144.986 8.63801 144.738 8.63801H142.604C142.342 8.63801 142.131 8.7829 142.131 8.9628V16.9259C142.131 17.1059 142.342 17.2507 142.604 17.2507H144.738C144.978 17.2507 145.172 17.1286 145.203 16.9707V11.2541C145.203 11.2341 145.203 11.2156 145.207 11.1969C145.24 10.9417 145.512 10.732 145.944 10.7057H146.337C146.517 10.7168 146.668 10.7602 146.787 10.8257C146.973 10.9271 147.078 11.083 147.078 11.2541L147.086 16.9425C147.086 17.1225 147.297 17.2681 147.559 17.2681H149.693C149.945 17.2681 150.15 17.1302 150.162 16.9584V11.2466C150.16 11.0589 150.287 10.8893 150.51 10.7886C150.618 10.7403 150.749 10.7079 150.901 10.6982H151.296C151.758 10.7258 152.037 10.9665 152.037 11.2466L152.045 16.9274C152.045 17.1074 152.256 17.2522 152.516 17.2522H154.652C154.912 17.2522 155.125 17.1073 155.125 16.9274V10.8177C155.125 10.401 155.055 10.2237 154.963 10.0417ZM140.504 8.6588H139.282V7.29586C139.282 7.1324 139.088 7 138.851 7C138.823 7 138.795 7.00276 138.769 7.00619C137.414 7.26137 137.686 8.54916 135.214 8.6588H134.974C134.937 8.6588 134.903 8.66222 134.87 8.66708C134.659 8.69947 134.5 8.82844 134.5 8.98295V10.4495C134.5 10.6281 134.711 10.7736 134.973 10.7736H136.262L136.26 16.9917C136.26 17.169 136.47 17.3125 136.728 17.3125H138.839C139.096 17.3125 139.305 17.169 139.305 16.9917L139.306 10.7736H140.502C140.764 10.7736 140.975 10.6281 140.975 10.4495V8.98308C140.977 8.80436 140.764 8.6588 140.504 8.6588Z" fill="#54C1F0"/>
<path d="M132.653 8.87526H130.514C130.253 8.87526 130.042 9.01773 130.042 9.19255V12.1604C130.037 12.3441 129.816 12.4913 129.541 12.4913H128.646C128.368 12.4913 128.144 12.3414 128.144 12.155L128.136 9.19255C128.136 9.01773 127.923 8.87526 127.663 8.87526H125.524C125.262 8.87526 125.051 9.01773 125.051 9.19255V12.4454C125.051 13.6809 126.364 14.5619 128.206 14.5619C128.206 14.5619 129.588 14.5619 129.63 14.5673C129.88 14.5863 130.074 14.7267 130.074 14.8996C130.074 15.0704 129.884 15.2101 129.637 15.231C129.625 15.2323 129.614 15.2344 129.601 15.2358L126.473 15.2432C126.212 15.2432 126 15.3857 126 15.5605V16.9952C126 17.1708 126.212 17.3125 126.473 17.3125H129.97C131.813 17.3125 133.125 16.4321 133.125 15.196V9.19267C133.125 9.01773 132.914 8.87526 132.653 8.87526ZM112.138 8.875H107.464C107.207 8.875 107 9.01464 107 9.18624V10.5926L107.001 10.6007C107.001 10.6074 107 10.6142 107 10.6203V16.9853C107 17.1582 107.193 17.2993 107.432 17.3032H109.612C109.872 17.3032 110.084 17.1614 110.084 16.986L110.092 14.8046H112.139C113.851 14.8046 115.044 14.0074 115.044 12.8535V10.8288C115.044 9.67497 113.851 8.875 112.138 8.875ZM111.951 12.391C111.951 12.5767 111.726 12.7279 111.449 12.7279L110.092 12.7285V10.9537H111.449C111.726 10.9537 111.951 11.1035 111.951 11.2899V12.391ZM120.485 8.88312H117.517C117.254 8.88312 117.042 9.01684 117.042 9.18082V9.73913C117.042 9.74248 117.043 9.74662 117.043 9.74995C117.043 9.75394 117.042 9.75807 117.042 9.76206V10.527C117.042 10.7005 117.267 10.8422 117.545 10.8422H120.371C120.594 10.8658 120.771 10.9752 120.796 11.146V11.331C120.771 11.4937 120.596 11.6124 120.383 11.626H118.984C117.122 11.626 115.797 12.4557 115.797 13.621V15.2899C115.797 16.4484 116.936 17.2727 118.784 17.2727H122.663C123.359 17.2727 123.923 16.919 123.923 16.4834V11.0375C123.923 9.71698 122.909 8.88312 120.485 8.88312ZM120.825 15.0991C120.825 15.1174 120.821 15.1349 120.817 15.1518C120.812 15.1676 120.805 15.1832 120.796 15.1984C120.73 15.324 120.543 15.4151 120.321 15.4151H119.43C119.153 15.4151 118.926 15.2733 118.926 15.0991V14.8283C118.926 14.825 118.925 14.8216 118.925 14.8181L118.926 14.0978V13.8723L118.927 13.8703C118.928 13.6968 119.153 13.5563 119.43 13.5563H120.32C120.599 13.5563 120.825 13.6974 120.825 13.8723L120.825 15.0991Z" fill="#233266"/>
<path d="M155.125 18.25H107V20.125H155.125V18.25Z" fill="#54C1F0"/>
<path d="M155.125 20.125H107V22H155.125V20.125Z" fill="#233266"/>
<rect x="189.5" y="0.5" width="73" height="29" rx="4.5" fill="white"/>
<rect x="189.5" y="0.5" width="73" height="29" rx="4.5" stroke="#E5E6E8"/>
<path d="M224.971 16.1514V20.5815H223.542V9.65991H227.33C228.289 9.65991 229.108 9.97425 229.777 10.6029C230.462 11.2316 230.804 11.9992 230.804 12.9057C230.804 13.8341 230.462 14.6016 229.777 15.223C229.115 15.8444 228.296 16.1514 227.33 16.1514H224.971ZM224.971 11.005V14.8136H227.359C227.925 14.8136 228.401 14.6236 228.772 14.2507C229.152 13.8779 229.346 13.4247 229.346 12.913C229.346 12.4086 229.152 11.9626 228.772 11.5898C228.401 11.2024 227.932 11.0123 227.359 11.0123H224.971V11.005ZM234.539 12.8618C235.595 12.8618 236.428 13.1396 237.038 13.6952C237.649 14.2507 237.954 15.011 237.954 15.976V20.5815H236.592V19.5434H236.532C235.944 20.3987 235.156 20.8226 234.174 20.8226C233.333 20.8226 232.634 20.5815 232.069 20.0917C231.503 19.6019 231.22 18.9951 231.22 18.2641C231.22 17.4892 231.518 16.8751 232.113 16.4219C232.708 15.9614 233.504 15.7347 234.494 15.7347C235.342 15.7347 236.042 15.8882 236.584 16.1953V15.8736C236.584 15.3839 236.392 14.9745 235.997 14.6309C235.602 14.2873 235.141 14.1192 234.613 14.1192C233.817 14.1192 233.185 14.4481 232.723 15.1134L231.466 14.3385C232.158 13.3516 233.185 12.8618 234.539 12.8618ZM232.694 18.286C232.694 18.6515 232.85 18.9586 233.169 19.1998C233.482 19.441 233.854 19.5653 234.278 19.5653C234.881 19.5653 235.417 19.346 235.885 18.9073C236.354 18.4688 236.592 17.957 236.592 17.3649C236.146 17.0213 235.528 16.8459 234.731 16.8459C234.151 16.8459 233.669 16.9848 233.281 17.2552C232.887 17.5404 232.694 17.884 232.694 18.286ZM245.72 13.103L240.959 23.8637H239.486L241.257 20.0989L238.117 13.103H239.672L241.934 18.4688H241.964L244.165 13.103H245.72Z" fill="#3C4043"/>
<path d="M219.292 15.2675C219.292 14.8099 219.25 14.372 219.174 13.9509H213.186V16.3633L216.634 16.364C216.495 17.1667 216.044 17.851 215.355 18.307V19.8722H217.407C218.605 18.7823 219.292 17.1711 219.292 15.2675Z" fill="#4285F4"/>
<path d="M215.357 18.307C214.785 18.6857 214.049 18.9072 213.189 18.9072C211.526 18.9072 210.115 17.8063 209.61 16.3223H207.493V17.9364C208.542 19.9817 210.698 21.3853 213.189 21.3853C214.91 21.3853 216.357 20.8291 217.409 19.8715L215.357 18.307Z" fill="#34A853"/>
<path d="M209.411 15.1252C209.411 14.7086 209.482 14.3058 209.61 13.9271V12.313H207.492C207.059 13.1588 206.815 14.1135 206.815 15.1252C206.815 16.137 207.06 17.0917 207.492 17.9375L209.61 16.3234C209.478 15.9372 209.411 15.5326 209.411 15.1252Z" fill="#FABB05"/>
<path d="M213.189 11.3417C214.128 11.3417 214.97 11.6597 215.635 12.2811L217.453 10.4952C216.348 9.48417 214.908 8.86353 213.189 8.86353C210.699 8.86353 208.542 10.2671 207.493 12.3125L209.61 13.9266C210.115 12.4426 211.526 11.3417 213.189 11.3417Z" fill="#E94235"/>
<rect x="283.5" y="0.5" width="73" height="29" rx="4.5" fill="white"/>
<rect x="283.5" y="0.5" width="73" height="29" rx="4.5" stroke="#E5E6E8"/>
<mask id="mask1_476_204" style="mask-type:luminance" maskUnits="userSpaceOnUse" x="292" y="6" width="56" height="16">
<path d="M347.973 6.99976H292V21.9998H347.973V6.99976Z" fill="white"/>
</mask>
<g mask="url(#mask1_476_204)">
<path d="M330.436 18.7853V16.062C330.436 15.3918 330.182 15.0566 329.545 15.0566C329.29 15.0566 328.993 15.0986 328.824 15.1403V19.1204C328.824 19.2461 328.695 19.3718 328.568 19.3718H327.592C327.464 19.3718 327.337 19.2461 327.337 19.1204V14.4701C327.337 14.3024 327.464 14.1769 327.592 14.1349C328.229 13.9255 328.866 13.7998 329.545 13.7998C331.073 13.7998 331.922 14.5958 331.922 16.0622V19.1623C331.922 19.2881 331.795 19.4138 331.668 19.4138H331.073C330.691 19.4135 330.436 19.1204 330.436 18.7853ZM334.258 17.1513L334.215 17.5285C334.215 18.0313 334.555 18.3244 335.107 18.3244C335.531 18.3244 335.913 18.1988 336.339 17.9893C336.381 17.9893 336.423 17.9473 336.466 17.9473C336.55 17.9473 336.593 17.9893 336.636 18.0311C336.678 18.073 336.763 18.1988 336.763 18.1988C336.848 18.3244 336.933 18.4919 336.933 18.6175C336.933 18.827 336.805 19.0364 336.636 19.1204C336.169 19.3718 335.617 19.4975 335.022 19.4975C334.343 19.4975 333.79 19.3298 333.366 18.9947C332.942 18.6175 332.687 18.115 332.687 17.4865V15.8526C332.687 14.5538 333.536 13.7579 334.98 13.7579C336.381 13.7579 337.188 14.5121 337.188 15.8526V16.858C337.188 16.9837 337.061 17.1093 336.933 17.1093H334.258V17.1513ZM334.215 16.2297H335.829V15.8108C335.829 15.308 335.532 14.9729 335.022 14.9729C334.512 14.9729 334.215 15.266 334.215 15.8108V16.2297ZM345.043 17.1513L345 17.5285C345 18.0313 345.34 18.3244 345.892 18.3244C346.316 18.3244 346.698 18.1988 347.123 17.9893C347.165 17.9893 347.207 17.9473 347.25 17.9473C347.336 17.9473 347.378 17.9893 347.421 18.0311C347.463 18.073 347.548 18.1988 347.548 18.1988C347.633 18.3244 347.718 18.4919 347.718 18.6175C347.718 18.827 347.59 19.0364 347.421 19.1204C346.954 19.3718 346.402 19.4975 345.807 19.4975C345.128 19.4975 344.576 19.3298 344.151 18.9947C343.727 18.6175 343.472 18.115 343.472 17.4865V15.8526C343.472 14.5538 344.321 13.7579 345.765 13.7579C347.166 13.7579 347.973 14.5121 347.973 15.8526V16.858C347.973 16.9837 347.845 17.1093 347.718 17.1093H345.043V17.1513ZM345 16.2297H346.613V15.8108C346.613 15.308 346.316 14.9729 345.807 14.9729C345.297 14.9729 345 15.266 345 15.8108V16.2297ZM320.034 19.4135H320.628C320.756 19.4135 320.883 19.2878 320.883 19.1622V16.062C320.883 14.6375 320.119 13.7996 318.844 13.7996C318.463 13.7996 318.038 13.8833 317.784 13.9673V12.4171C317.784 12.0819 317.486 11.7886 317.146 11.7886H316.552C316.424 11.7886 316.297 11.9143 316.297 12.04V19.1622C316.297 19.2878 316.424 19.4135 316.552 19.4135H317.529C317.655 19.4135 317.784 19.2878 317.784 19.1622V15.2241C317.995 15.1403 318.293 15.0983 318.505 15.0983C319.142 15.0983 319.396 15.3915 319.396 16.1038V18.827C319.439 19.1204 319.694 19.4135 320.034 19.4135ZM326.445 15.8943V17.4445C326.445 18.7433 325.554 19.5393 324.067 19.5393C322.624 19.5393 321.689 18.7433 321.689 17.4445V15.8943C321.689 14.5956 322.582 13.7996 324.067 13.7996C325.554 13.7996 326.445 14.5958 326.445 15.8943ZM324.959 15.8943C324.959 15.3915 324.662 15.0564 324.11 15.0564C323.558 15.0564 323.261 15.3495 323.261 15.8943V17.4445C323.261 17.9473 323.558 18.2405 324.11 18.2405C324.662 18.2405 324.959 17.9473 324.959 17.4445V15.8943ZM315.491 15.1823C315.491 16.5231 314.472 17.4447 313.113 17.4447C312.773 17.4447 312.475 17.4028 312.179 17.277V19.1623C312.179 19.2881 312.052 19.4138 311.924 19.4138H310.947C310.82 19.4138 310.692 19.2881 310.692 19.1623V12.501C310.692 12.3334 310.82 12.2079 310.947 12.1659C311.584 11.9565 312.221 11.8308 312.9 11.8308C314.429 11.8308 315.49 12.7524 315.49 14.1769L315.491 15.1823ZM313.962 14.093C313.962 13.4227 313.495 13.0876 312.858 13.0876C312.476 13.0876 312.221 13.2133 312.221 13.2133V15.9783C312.476 16.1039 312.604 16.1459 312.9 16.1459C313.537 16.1459 314.004 15.7688 314.004 15.1406V14.0932L313.962 14.093ZM342.92 15.1823C342.92 16.5231 341.9 17.4447 340.542 17.4447C340.202 17.4447 339.905 17.4028 339.607 17.277V19.1623C339.607 19.2881 339.481 19.4138 339.353 19.4138H338.376C338.249 19.4138 338.122 19.2881 338.122 19.1623V12.501C338.122 12.3334 338.249 12.2079 338.376 12.1659C339.013 11.9565 339.65 11.8308 340.329 11.8308C341.857 11.8308 342.919 12.7524 342.919 14.1769L342.92 15.1823ZM341.391 14.093C341.391 13.4227 340.924 13.0876 340.287 13.0876C339.905 13.0876 339.65 13.2133 339.65 13.2133V15.9783C339.905 16.1039 340.033 16.1459 340.329 16.1459C340.967 16.1459 341.433 15.7688 341.433 15.1406V14.0932L341.391 14.093Z" fill="#5F259F"/>
<path d="M299.6 21.9995C303.797 21.9995 307.2 18.642 307.2 14.5003C307.2 10.3585 303.797 7.00098 299.6 7.00098C295.403 7.00098 292 10.3585 292 14.5003C292 18.642 295.403 21.9995 299.6 21.9995Z" fill="#5F259F"/>
<path d="M303.05 12.5423C303.05 12.2492 302.795 11.9978 302.498 11.9978H301.479L299.144 9.35849C298.931 9.10708 298.592 9.02335 298.252 9.10708L297.446 9.35849C297.319 9.40046 297.276 9.56792 297.361 9.65165L299.908 12.0398H296.044C295.916 12.0398 295.832 12.1235 295.832 12.2492V12.6681C295.832 12.9612 296.087 13.2126 296.384 13.2126H296.978V15.2237C296.978 16.7319 297.785 17.6118 299.143 17.6118C299.568 17.6118 299.908 17.5697 300.333 17.4023V18.7431C300.333 19.1202 300.629 19.4133 301.012 19.4133H301.606C301.733 19.4133 301.861 19.2876 301.861 19.1619V13.1708H302.837C302.965 13.1708 303.05 13.0871 303.05 12.9614V12.5423ZM300.333 16.1453C300.078 16.271 299.738 16.313 299.483 16.313C298.804 16.313 298.465 15.9779 298.465 15.2237V13.2126H300.333V16.1453Z" fill="white"/>
</g>
</svg>
